<?xml version="1.0" encoding="UTF-8"?>
<svg id="Camada_1" xmlns="http://www.w3.org/2000/svg" version="1.1" xmlns:xlink="http://www.w3.org/1999/xlink" viewBox="0 0 512 512">
  <!-- Generator: Adobe Illustrator 29.2.1, SVG Export Plug-In . SVG Version: 2.1.0 Build 116)  -->
  <defs>
    <style>
      .st0 {
        fill: #7201fe;
      }

      .st1 {
        fill: #7202fe;
      }
    </style>
  </defs>
  <path class="st0" d="M188.3,232.7v-3.2h18.3s.2.2.2.2v67.1s-.2.2-.2.2h-18.3v-3.2c-1.2.4-2.3,1.1-3.4,1.5-5.8,2.2-15.4,2-21.7,1.7-12.6-.6-23.4-10.2-24-23-.4-7.1.3-14.4,0-21.6.9-12.7,11.2-22.3,23.8-22.9,5.5-.3,14.6-.5,19.8,1s3.7,1.4,5.6,2.3ZM188.3,248h-30.6s-.2.2-.2.2v30.2s.2.2.2.2h30.4s.2-.2.2-.2v-30.4Z"/>
  <path class="st0" d="M347,229.5c6.2-.3,13.8-.3,20,0,12.4.5,23.1,10.1,23.9,22.7.4,7.2-.3,14.8,0,22-1,12.8-11.2,22.2-24,22.8-11.8-.7-24.2,2.6-34.2-5.4s-8.8-11.1-9.2-18.7-.3-12.6-.1-18.5c.5-13.6,9.8-24.2,23.7-24.9ZM341.9,278.5h30.5s.2-.2.2-.2v-30.2s-.2-.2-.2-.2h-30.5v30.6Z"/>
  <path class="st0" d="M415.4,229.5v3.2c3.1-1.5,6.4-2.7,9.8-3.1s10.8-.3,15.4-.1c13.7.6,24.1,11.5,24,25.2v42.1c0,0-.3.2-.3.2h-18.2v-48.9s-.2-.2-.2-.2h-30.6v48.9s-.2.2-.2.2h-18.2v-67.5h18.4Z"/>
  <path class="st0" d="M262,229.5v18.4h-30.6v30.6h30.6v18.3c0,0-.3.2-.4.2-8.1-.3-16.6.4-24.7,0-12.8-.6-23-10-24-22.9.3-7.2-.4-14.7,0-21.8.7-12.4,11.5-22.5,23.9-22.8h25.2Z"/>
  <path class="st0" d="M317.2,229.5v18.4h-30.6v30.4s.2.2.2.2h30.5v18.4h-25c-12.9-.4-23.4-10.5-24.1-23.4-.4-6.8.3-13.9,0-20.7.6-12,10.1-22.1,22.1-23.3,9-.3,18,0,27-.1Z"/>
  <path class="st0" d="M113.6,260.1c1.5,0,4.3,0,5.7.4s1.4,1,1.6,1.9v28.6c-.2,3.5-2.7,5.8-6.1,6h-28.1c-2.8-.2-2.5-2.8-2.6-4.9-.7-17.1,12.5-31.2,29.5-31.9Z"/>
  <path class="st0" d="M82.3,256.1c-6.4,7.2-16.5,11.1-26.1,10-1.2-.1-2.3-.2-2.8-1.6-.2-9.8,0-19.7,0-29.5.3-2.6,2.3-4.8,4.9-5.4,9.8-.3,19.6,0,29.4-.2.8,0,1.5.4,1.9,1s.6,2.4.6,3.3c.4,8.3-2.3,16.1-7.8,22.3Z"/>
  <path class="st1" d="M98.3,229.5c5.4.2,11.2-.4,16.5,0,3.3.2,5.8,2.5,6,5.9.4,5.3-.3,11.1,0,16.4-.4,3.3-4.7,1.9-6.8,1.3-8.9-2.5-15.9-10.2-17.5-19.3-.3-1.9-.7-3.7,1.7-4.3Z"/>
  <path class="st1" d="M55.3,272.5c.8,0,2.9.3,3.8.6,9,2.1,16.3,9.6,18.2,18.6.5,2.2,1.2,5.1-1.9,5.4-5.3-.3-11,.4-16.2,0-3-.2-5.5-2.4-5.9-5.4v-17.3c.1-1,1.1-1.7,2-1.8Z"/>
</svg>