<?xml version="1.0" encoding="UTF-8"?>
<svg id="Camada_1" xmlns="http://www.w3.org/2000/svg" version="1.1" xmlns:xlink="http://www.w3.org/1999/xlink" viewBox="0 0 512 512">
  <!-- Generator: Adobe Illustrator 29.2.1, SVG Export Plug-In . SVG Version: 2.1.0 Build 116)  -->
  <defs>
    <style>
      .st0 {
        fill: #0580c8;
      }

      .st1 {
        fill: #0269aa;
      }

      .st2 {
        fill: #0698e8;
      }

      .st3 {
        fill: #025994;
      }

      .st4 {
        fill: #0374b8;
      }
    </style>
  </defs>
  <path class="st2" d="M488.3,398.3c-4.9,20.6-32.7,21-47.7,11.9l2.9-6.9c8.7,4.7,29.8,8,34.3-3.5,5.7-14.7-13.7-16.8-22.7-21.2s-15.6-13.6-11.6-24.4,21.4-14.3,33.6-12,6.3,1.9,9.4,3l-2.3,7.6c-.7.6-6.1-1.7-7.5-2.1-7.5-1.8-20.8-3.4-24.2,5.7-4.9,13.2,15.8,16.5,23.7,20.4s10.3,6.8,12.1,13.4v8.1Z"/>
  <path class="st0" d="M219.5,105.2c11-18.9,21.5-38.3,33-56.9,1.3-2.1,3.4-6.1,4.9-7.7s.4-.9,1.1-.7c1.2.3,11.8,19.1,13.4,21.8,25.2,42.5,50,85.3,74.3,128.3,2,3.6,6.5,10.5,7.7,13.9s.5,1.3.4,2.1h-35.8l-6.6-11.8-.3-2.1h18.9c-1-3-2.9-6.4-4.5-9.2-17.3-30.8-36.2-62.2-54.5-92.5l-.5-.5c-3.4-5.6-6.6-11.3-10.3-16.9s-1.7-3.1-2.5-2.9-5.9,9.1-6.7,10.4c-8.7,14-17.1,28.6-25.5,42.7l-1.1-6.3c-.7-1.1-5.1-1-5.6-2.5s1.3-2.7,1.8-4.3,1-4.5-1.5-4.8Z"/>
  <path class="st3" d="M195.2,257.8c-7.6,13-14.7,26.4-22.7,39.2h-63.7l.3-1.8,32.7-57.1c2.6.2,5.3-.4,7.8-.5,7.1-.3,20.4-.9,27,0s.9-.2.7.7-5.7,11.7-6.3,12.6-.3.6-.7.6l-20.9.3-16.2,31.3,31.5.2c6.3-11.7,13.1-23.2,19.9-34.6s.7-.6.8-.7c1.1,1.5,2.1,3.3,4,3.8,3.3.9,7-1.9,7.7,2.5-.6,1-1.2,2.1-1.8,3.2l-.4.2.4.2ZM193.8,255.6h-.9v1.3h.9v-1.3Z"/>
  <path class="st2" d="M384.3,414.5v-72h27.7c.9,0,5.4,1.2,6.5,1.6,14.6,5.1,13.7,24.8.9,31.5,5.9,3.2,11.9,6.5,12.6,13.9s-1.9,17.9-10.7,22.2-7.1,2.8-8.5,2.8h-28.6ZM393.3,373.1h17.3c.5,0,5.2-3,5.8-3.6,4.2-4.2,4.4-13.6-1.1-16.8s-6.6-2.5-8.8-2.5h-13.3v23ZM393.3,406.4h18.2c4.5,0,10.2-5.4,10.9-9.8,1-6.6-.9-12-7.4-14.4s-4.9-1.5-5.8-1.5h-15.3s-.7.6-.7.7v25Z"/>
  <path class="st2" d="M311.4,414.5l27.4-71.7c2.8-1.2,5.9-.6,8.8-.8l28.1,73c-2,0-4.1,0-6.1,0s-2.3.9-3.1,0l-9.1-23.9-27.6.2-8.8,23.2h-9.7ZM354.6,383.4l-11-31.5-11,31.5h22.1Z"/>
  <path class="st0" d="M333.4,237.6c12.8,0,25.7,0,38.5,0l1.4.4,34,57.9c0,.9,0,.6-.7.7-4.9.7-13,0-18.2,0,.5-1.5-1-3.7-2.3-4.3s-2.1-.1-2.5-.7.2-2.2-.6-3-1.6-.4-2.1-.8-.6-1.2-1.2-1.7c-1.2-.8-4.2-.4-4.3-2.2,2.3,0,5.3.3,7.4,0s.8.2.7-.7c-4.2-7.3-8.3-14.8-12.9-21.8s-5.7-9.2-7.4-9.7c-22.8-.4-45.7-.2-68.5-.2l57.2-.5c1.9-1.7-6-1.3-6.5-1.4-1.2-.1-2.4-1.3-3.9-.9-.4-1.6,1.5-.5,2.1-1.3,1.9-2.7-1.8-2.4-2.5-3s-.5-2.6-1-2.9-1.3,0-1.8-.2c-2.1-.7-5.1-1.4-4.8-3.9Z"/>
  <path class="st1" d="M184.8,164.6c1.5-.2.7,1.8,1.2,3,1.5,3.3,2.4-1,2.8-1.5s3-1.5,3.6-1.1.2,1.1.5,1.4,1,.4,1.3,1.1.7,3.3.5,3.7-1.2.4-1.5,1c-1.1,1.9,1.2,1.3,2.5,1.8l-10.4,18.2c-.2,1.1.8.5,1.3.7,3.8,1,11.2.5,15.5.5s2,.3,2.5-.5c.3,0,.6,0,.9,0,1.1.7,3.8.8,5,0,1.5,0,3,0,4.5,0,2.3,1.3,7.7-.6,9.5,1.6s.2,2.1.5,2.4,2.2.3,2.8.6c1.5.8,2.1,6.6,2.6,8.5-23.1,0-46.2,0-69.3,0-.6-.5,3.4-7.3,4-8.4,6.2-11.2,13.5-22,19.9-33Z"/>
  <path class="st0" d="M297.8,191.6c-3.2,0-4,1.1-6.1-1.8s-.5-1.9-1-2.3c-.9-.7-2.1,0-3,0-2.3-.2-1.2-3-1.9-4s-1.5-.4-2.1-1.1c-1.9-2.1.1-4.5-3.8-7s-3.6-.6-6.1,2.3c-5-8.7-9.9-17.5-15.1-26.1l-1.1.3c-2.5,3.6-4.7,9.7-7.6,12.8l-.5.5h-.5c0-.3-1.4-2.3-1.7-3.1s-.5-2.8-.7-3.1c-.4-.5-3.9-.8-4.9-1.2s-1.2-2.1-3.1-1.6c5.9-10.3,11.6-21.3,17.9-31.4s1-2.3,1.6-1.9c12.9,21.4,25.4,43.1,37.7,65,.7,1.2,1.1,2.9,1.7,3.9Z"/>
  <path class="st2" d="M89.8,414.9c-1.5-.5-6.3.8-7,0l-10.1-25.9h-28.4s-.8,1-.8,1l-8.8,24.3c-2.3.9-4.7.5-7.1.5l27.8-72.5c.9-.6,5.6-.7,6.2,0l28.1,72.5ZM70.5,383.4l-11.7-33.3-12.2,33.3h23.9Z"/>
  <path class="st2" d="M228.4,342.1l28,72.9c-1.5-.5-5.8.8-6.5,0l-10.1-25.9-28.2-.3-9.9,25.2c-1.4,1.7-4.9.6-7,.9l1-4.2,26.8-68.3c1.9-.7,4-.4,5.9-.3ZM237.5,383.4l-11.7-33.3-12.6,33.3h24.3Z"/>
  <path class="st4" d="M333.4,237.6c-.3,2.6,2.8,3.2,4.8,3.9s1.5,0,1.8.2.3,2.3,1,2.9,4.4.3,2.5,3-2.5-.3-2.1,1.3c1.5-.4,2.7.7,3.9.9s8.4-.3,6.5,1.4l-57.2.5c-25.7,0-54.9,1.7-80.1,0l58.5-.5c.3-1-.4-1.1-1.2-1.2-1.2-.2-7.4-.5-7.8-1,.8-1.6,1.9-6.5-.3-7.1s-6.3,1.4-5.5-4.1c25.1,0,50.1,0,75.2,0Z"/>
  <path class="st4" d="M225.8,123.2c-1.9,3.2-3.4,6.1-5.2,9.4-7.6,14.1-16.6,27.9-24.9,41.5-1.3-.5-3.6,0-2.5-1.8s1.4-.7,1.5-1c.2-.3-.3-3.2-.5-3.7s-.9-.6-1.3-1.1-.3-1.3-.5-1.4c-.5-.4-3.1.6-3.6,1.1s-1.3,4.8-2.8,1.5.3-3.2-1.2-3c10.6-18,21.3-36.7,32-54.9l.5-.5c.4-.7,1-1.6,1.4-2.3l.5-.9c.1-.3.3-.6.5-.9,2.4.3,2,3.1,1.5,4.8s-2.5,2.4-1.8,4.3,4.9,1.4,5.6,2.5l1.1,6.3Z"/>
  <path class="st2" d="M274.4,342.4v63.9h33.3v7.4s-.6.7-.7.7h-41.6v-72h9Z"/>
  <path class="st4" d="M349.6,282.6c.1.3,0,.5.5.9s1.2.3,1.8.5c2.3.5,2.1,0,3.6,0s.6,0,.9,0c.8.8,3.2.8,4.1,0,.6,0,1.2,0,1.8,0,2.1.8,5.6.8,7.7,0,1.8,0,3.6,0,5.4,0,0,1.8,3.1,1.4,4.3,2.2s.8,1.4,1.2,1.7,1.6.3,2.1.8c.8.8.1,2.3.6,3s1.8.3,2.5.7c1.2.6,2.8,2.8,2.3,4.3-1.8,0-3.6,0-5.4,0l-.2-1.4c-1.1.2-3.3,0-2.9,1.4-8.5,0-17.1,0-25.7,0s-4.8,0-7.2,0-4.8.3-5.6-.4l-18.7-34.2h15.5c4.1,6.7,8,13.7,11.5,20.7Z"/>
  <path class="st2" d="M191.1,342.4c-.1,1,.4,5.9-.7,5.9h-33.5v27.5h31.5v5.9h-31.5v32.6c0,1-6.8,1-6.8,0v-71.8h41Z"/>
  <path class="st4" d="M274,177.7c2.5-2.8,2.2-4.7,6.1-2.3s1.9,4.9,3.8,7,1.8.6,2.1,1.1c.7,1-.4,3.8,1.9,4s2.1-.6,3,0,.5,1.6,1,2.3c2.1,2.9,2.9,1.8,6.1,1.8.2.3.3.6.5.9l.5.5c.6,1,1.2,2.1,1.8,3.2-2.6.3-1.1,3.4.9,1.8.8,1.5,1.9,3,2.7,4.5-2.7,2,.7,2.1.9,2.3s-1.5,3.1,1.8,3.1c.2.3.3.6.5.9-1.6,1.4-.4,3.3,1.4,2.3.2.3.3.6.5.9l.5.5c2.6,4.8,6.2,9.6,7.7,14.9h-15.1c-6.6-10.7-12.5-21.9-18.7-32.9.7-.5,1-1.4.9-2.2l-1.8.4c-2.1-3.6-4.2-7.2-6.3-10.8,1-1.2.6-2.2-.9-1.8-.4-.8-.9-1.5-1.4-2.3ZM279.4,180.8c-.5-.5-1.4.4-.9.9s1.4-.4.9-.9Z"/>
  <path class="st2" d="M105.6,342.4v66.2h34.2c.1.7,0,5.9-.5,5.9h-40.5v-72h6.8Z"/>
  <path class="st1" d="M258.2,237.6c-.8,5.6,2.6,3.3,5.5,4.1s1.1,5.5.3,7.1c.4.5,6.6.8,7.8,1s1.5.2,1.2,1.2l-58.5.5c-.6,0-1.6.4-1.3-.6,1.2-4.1,5.5-9.2,7-13.3,12.7,0,25.3,0,38,0Z"/>
  <path class="st4" d="M215,193c18,.1,36-.3,54,.2l6.7,12.8c-15.2,0-30.3,0-45.5,0-.5-1.9-1.1-7.7-2.6-8.5s-2.6-.4-2.8-.6c-.3-.3.3-1.5-.5-2.4-1.8-2.1-7.1-.3-9.5-1.6Z"/>
  <path class="st1" d="M185.3,247.9c.2-.3.2-.9.5-1.5,5.8-9.7,11.7-19.3,17.3-29.1h15.1c-1.9,4.8-4.6,9.3-7.1,13.8-4.3,7.6-9.6,15.4-14.1,23.1-.6-4.3-4.3-1.6-7.7-2.5s-2.9-2.3-4-3.8Z"/>
  <path class="st4" d="M238.9,156.1c1.9-.5,1.8,1,3.1,1.6s4.5.7,4.9,1.2.4,2.3.7,3.1,1.6,2.7,1.7,3.1c.3,2.6-7.5,13.8-9.2,16.7h-15.1c.7-3,2.5-6.1,4-8.9,3-5.8,6.7-11.2,10-16.8Z"/>
  <path class="st4" d="M204.6,193c-.5.7-1.7.5-2.5.5-4.3,0-11.7.6-15.5-.5.5-.7,1.7-.4,2.5-.5,5.2,0,10.3.4,15.5.5Z"/>
  <path class="st0" d="M306.9,207.8c-3.3,0-1.6-3-1.8-3.1s-3.6-.2-.9-2.3c1,1.8,1.9,3.9,2.7,5.4Z"/>
  <path class="st0" d="M354.1,296.5c-2,.8-5.3.8-7.2,0,2.4,0,4.8,0,7.2,0Z"/>
  <path class="st0" d="M300.5,196.1c.4.7.6,1.3.9,1.8-2,1.6-3.5-1.5-.9-1.8Z"/>
  <path class="st0" d="M308.7,211c-1.8,1-3-.9-1.4-2.3.3.6.9,1.4,1.4,2.3Z"/>
  <path class="st0" d="M379.8,296.5c-.3-1.3,1.8-1.2,2.9-1.4l.2,1.4c-1,0-2.1,0-3.2,0Z"/>
  <path class="st0" d="M369.9,283.9c-2.1.8-5.5.8-7.7,0,2.5,0,5.1,0,7.7,0Z"/>
  <path class="st0" d="M355.5,283.9c-1.5,0-1.3.5-3.6,0,.8-.8,2.7-.7,3.6,0Z"/>
  <path class="st0" d="M282.5,192.5l1.8-.4c0,.9-.1,1.8-.9,2.2-.4-.7-.6-1.3-.9-1.8Z"/>
  <path class="st4" d="M210.5,193c-1.1.8-3.9.7-5,0,1.6,0,3.3,0,5,0Z"/>
  <path class="st0" d="M275.3,179.9c1.5-.4,1.9.6.9,1.8-.4-.6-.6-1.3-.9-1.8Z"/>
  <path class="st0" d="M360.4,283.9c-.8.8-3.2.8-4.1,0,1.3,0,2.7,0,4.1,0Z"/>
  <path class="st0" d="M218.6,107c.1-.2.3-.6.5-.9l-.5.9Z"/>
  <path class="st0" d="M350.1,283.5c-.5-.4-.3-.6-.5-.9l.5.9Z"/>
  <path class="st0" d="M298.7,193l-.5-.5c0,.1.4.3.5.5Z"/>
  <path class="st0" d="M309.6,212.3l-.5-.5c0,.1.4.3.5.5Z"/>
  <path class="st4" d="M249.7,165.1l.5-.5c-.1.2-.3.3-.5.5Z"/>
  <path class="st0" d="M216.8,109.7c.1-.2.4-.3.5-.5l-.5.5Z"/>
  <path class="st1" d="M195.2,257.8l-.4-.2.4-.2c0,.1,0,.3,0,.5Z"/>
  <path class="st2" d="M271.3,90.3c0-.1-.3-.3-.5-.5l.5.5Z"/>
  <rect class="st1" x="192.9" y="255.6" width=".9" height="1.3"/>
  <path class="st0" d="M279.4,180.8c.5.5-.4,1.4-.9.9s.4-1.4.9-.9Z"/>
</svg>