<?xml version="1.0" encoding="UTF-8"?>
<svg id="Camada_1" xmlns="http://www.w3.org/2000/svg" version="1.1" xmlns:xlink="http://www.w3.org/1999/xlink" viewBox="0 0 512 512">
  <!-- Generator: Adobe Illustrator 29.2.1, SVG Export Plug-In . SVG Version: 2.1.0 Build 116)  -->
  <defs>
    <style>
      .st0 {
        fill: #000000ff;
      }

      .st1 {
        fill: #ffffffff;
      }

      .st2 {
        fill: #06fc67;
      }

      .st3 {
        fill: #22b26a;
      }
    </style>
  </defs>
  <path class="st0" d="M219.9,128.2c27.9-46.5,99.3-48.7,129.8-3.7,3.2,4.8,14.3,28.4,14.3,32.8v92.8c-5.3-.9-32.1,1.2-33.3,0s.6-8.4,0-11.1.3-2.3-1.4-2.7l-1.4,2.7c-.9.1-1.9-.2-2.8,0-8.3,1.9-15.3,6.9-23.8,8.1-70.6,9.8-117.9-58.1-81.5-118.9Z"/>
  <path class="st3" d="M325.2,239c-1.8,9.5-12.2,16.2-19.4,22.2-4.1-4.9-11.4,2.2-17.9,2.9-33.9,3.2-56.5,0-79.1-26.3-22.4-26.1-24.8-56.1-11-87.3,4.7-10.6,11.1-17.6,22.2-22.2-36.4,60.8,10.9,128.7,81.5,118.9,8.5-1.2,15.4-6.2,23.8-8.1Z"/>
  <path class="st2" d="M197.8,150.4c-13.8,31.2-11.4,61.2,11,87.3,22.6,26.4,45.2,29.5,79.1,26.3,6.5-.6,13.8-7.7,17.9-2.9-73.8,60.8-165-15.8-122.4-96.1,2.4-4.6,8.3-14.5,14.4-14.7Z"/>
  <path class="st1" d="M192.9,412.7c-.8-.5-.7-4.7-2.2-4.8-3.9-.2-10.8,5.2-16.6,5.5-11.7.6-26.3-7.3-31.8-17.7-26.2-49.3,58.6-79.9,66.3-16.5,1.3,10.8,4.1,45-15.6,33.4ZM166.5,358.7c-21.8,4.8-16.3,44,9.2,39.9,24.7-4,22.7-46.9-9.2-39.9Z"/>
  <path class="st1" d="M291.2,345c54.6-11.3,60.2,61.9,15.3,68.1s-54.5-60-15.3-68.1ZM316,393.3c17.4-15.9-3.4-45.7-25.6-32.5-23.7,14,2.6,53.6,25.6,32.5Z"/>
  <path class="st1" d="M369.6,380.3c3.7.8,3.1-2.9,4.1-5.5,5-14.5,4.2-39,23.6-33.2-9.5,32.9-15.1,95.5-61,91.4-4.2-20.7,8.4-10.6,20.1-19.4,2.7-2,7.4-9.3,7.5-12.5.3-9.7-31.2-53.1-24.8-59.6,10.8-10.9,29.3,31.5,30.5,38.8Z"/>
  <path class="st1" d="M233.8,322.1v91.4c-4,.7-16.6,0-16.6-4.2v-87.3h16.6Z"/>
  <rect class="st1" x="244.9" y="322.1" width="13.9" height="91.4"/>
  <path class="st3" d="M330.8,239h-2.8l1.4-2.7c1.7.5,1.2,1.6,1.4,2.7Z"/>
</svg>