<?xml version="1.0" encoding="UTF-8"?>
<svg id="Camada_1" xmlns="http://www.w3.org/2000/svg" version="1.1" xmlns:xlink="http://www.w3.org/1999/xlink" viewBox="0 0 512 512">
  <!-- Generator: Adobe Illustrator 29.2.1, SVG Export Plug-In . SVG Version: 2.1.0 Build 116)  -->
  <defs>
    <style>
      .st0 {
        fill: #069cfe;
      }

      .st1 {
        fill: #064268;
      }

      .st2 {
        fill: #099dfe;
      }
    </style>
  </defs>
  <path class="st2" d="M306,92.1c11.2,1.5,16.7,15,15.9,25s-1.2,6.1-1.2,10.5c-.3,38.2.1,76.5,0,114.7-2.1,26.7-29.1,19.2-47.7,20.3l-25.2,20.6c-3.4,2.1-7.6,1.2-9.2-2.5s-3.1-11.7-4.1-16-.2-1.5-.2-2.2c-11.3-.6-23.4.8-34.7,0s-19.1-7.9-20.3-19v-121.7c.5-12.2,16.5-15.3,26.1-17.5,21.2-4.9,40.3-4.6,61.6-.9,9,1.6,22.6,6,31.4,4.6s6.5-6.9,3.6-11.2-3-2.6-4.4-3.8-.8,0-.6-1c2.8.3,6.2-.4,8.9,0ZM182.8,158.8c2.9.4,7.8-2.6,8.3-5.5.8-4.7-3.3-8-.9-14,2.4-6.1,9.1-9.5,15.2-10.5,12.5-2,26.1-1.7,38.6,0s47.2,11.7,61.4,6.6,18.4-34.4.7-39.4c2.2,5,2.2,10.9-2.8,14.1-7.2,4.7-24.7-.8-33-2.3-23.5-4-40.3-6.2-63.8,0-5.9,1.6-18.5,4.3-21.9,9.5s-1.5,3.9-1.5,4.6v36.8ZM182.8,162.3v8.3c6.7-.9,10-7.1,15.1-10.9,12.4-9.3,27.6-7,38.4,3.5s5.8,8,8.8,8.2,2.9-.4,4.3-.4,2.1.5,3,.4c3.3-.1,6.9-6,9.2-8.3,12.7-12.2,27.5-12.2,41-1.3s7.8,8.8,14.2,8.7c.1-13.2.7-26.4.4-39.7-6.9,8-14.8,10-25.1,9.6-23.7-.8-46.6-10.4-71.1-9.6s-22,.6-26.7,8.2,1,9.3.4,14.8-7.2,9-11.8,8.5ZM212.8,158c-33.6,3-25.1,55.9,8.7,47.1,27.4-7.1,21-49.8-8.7-47.1ZM279.9,158c-30.7,3-27.1,50.6,5.1,47.8,30.7-2.6,27.2-51-5.1-47.8ZM316.7,178c-1.3.2-3.5.4-4.3,1.6-2.1,7.4-3.4,14.6-8.5,20.7-14.1,16.5-39.2,11.2-47.6-8.2-1.3-3-3.2-12.3-5.1-13.6s-4.2-1-5.2.5-3,10-4.2,12.8c-10,23.6-42.1,24.9-52.2,1.3-1.3-3.2-2.4-11.8-3.8-13.7s-1.9-1-2.8-.9v65.6c0,7,8.3,14,15,14.6,11.7,1,24.9-1,36.7,0s1.4,0,2.1.4l5.2,20.2c1.7,2.7,3.9.8,5.8-.6,8.3-6.1,15.9-13.7,24.2-19.8,10-1.1,20.9.6,30.7-.2s14.2-7.1,14.2-13.3v-67.4Z"/>
  <path class="st1" d="M420.8,352.3h-38.8v31.2c0,.1-1.4,1.9-1.8,2.1-2.6,1.2-5.6,0-6-3,.9-18.4-1.3-38,0-56.2,2.4-34.4,52.1-33.9,54.5-.9s-1,38.8,0,57.5c-.7,4.6-7.8,3.1-7.8-.4v-30.3ZM421.3,344.9v-17.7c0-15.2-17.9-24.2-30.5-16.1-3.4,2.2-8.8,8.9-8.8,13v20.7h39.2Z"/>
  <path class="st0" d="M325.4,376.3c-5.2,3.8-10.1,7.6-16.6,8.9-28.7,6.1-48.5-27.6-29.7-49.7,17.9-20.9,51.8-9.7,54,17.5s-.4,20.2,0,29.9c-.5,2.7-3.5,3.9-5.8,2.5s-1.9-2.1-1.9-2.4v-6.8ZM300.4,332.4c-29.6,2.5-26.6,48.1,3.8,46.1,30-2,27.2-48.7-3.8-46.1Z"/>
  <path class="st0" d="M90,375.9c-13.6,12.8-34,14.3-46.6-.7-23-27.2,11.8-65.8,41.5-44.6s11.4,34,12.4,52.8c-.9,4-7.3,2.5-7.3,0v-7.6ZM64.6,332.4c-29.9,2.8-26.3,48.6,4.2,46.1,30.1-2.5,26.5-49-4.2-46.1Z"/>
  <path class="st0" d="M195.4,325c27.2-3.1,45.3,26.4,29,48.7-13.2,18.1-41,15.9-51.7-3.6-10-18.3,1.7-42.7,22.6-45.1ZM216.2,371.8c11.4-11.7,7.3-32.4-8.2-37.9s-39.2,14.5-28.1,33.4c7.5,13,25.8,15.3,36.4,4.5Z"/>
  <path class="st0" d="M130.4,325c14.8-1.7,27.8,8.1,28.9,23.2s-.6,23.2,0,34.5c-.2,4.2-6.8,4.5-7.4.4-.7-10.8.8-22.4,0-33.1-1.7-23.5-33.6-22.8-35.3-.9s.8,23.2,0,34.4c-.9,3.9-7.7,3.2-7.3-1.2.8-11.4-1-24.1,0-35.3s10.7-20.7,21.3-21.9Z"/>
  <path class="st0" d="M247.8,324.9h13.7c.6,0,2.4,2.7,2.4,3.7s-1.8,3.7-2.4,3.7h-13.7v39.9c0,1.2,2.2,4.2,3.3,4.9,4.2,2.7,10.3-.4,12.3,3.4s0,5-2.4,5.4c-9.3,1.5-18.6-2.2-20.6-12.1v-70.5c.3-2.4,3.2-3.5,5.3-2.4s2,1.8,2,1.9v22Z"/>
  <path class="st1" d="M446.9,300.5c1.7-.1,3.3,1,3.7,2.6.7,26.1.1,52.4.3,78.6-.2,4.3-5,5.8-7.3,2.1v-80.1c-.2-1.8,1.7-3,3.3-3.2Z"/>
  <path class="st2" d="M262.2,110.8c0,.8.3.9-.5.8-3.7-.6-7.7-1.3-11.4-1.6-17.7-1.6-34.9-1.7-51.8,4-.8.3-5.2,2.4-5.5,2.1-.5-.5.7-1.2,1-1.4,4.4-2.9,12.9-5,18.1-5.9,16.8-3,33.6-1.1,50.2,2Z"/>
  <path class="st2" d="M263.9,129.6c0-.8,1.4-.4,1.9-.4,4.5.5,9.5,2,14.3,2.7,10.8,1.5,20.4,1.7,27.7-7.8s2.7-4.9,4.4-7.1c-2.7,24.2-32.2,17.2-48.4,12.6Z"/>
  <path class="st0" d="M213.7,167.1c7.4-1.4,8.8,11.8,8.4,16.7s-3.6,12.5-9.3,10.2-7.2-25.4.9-26.9Z"/>
  <path class="st0" d="M282.5,167.1c6.9-1,8.8,11.3,8.3,16.2s-4.3,14.5-10.6,10.2-6-25.2,2.2-26.4Z"/>
</svg>