<?xml version="1.0" encoding="UTF-8"?>
<svg id="Camada_1" xmlns="http://www.w3.org/2000/svg" version="1.1" xmlns:xlink="http://www.w3.org/1999/xlink" viewBox="0 0 512 512">
  <!-- Generator: Adobe Illustrator 29.2.1, SVG Export Plug-In . SVG Version: 2.1.0 Build 116)  -->
  <defs>
    <style>
      .st0 {
        fill: #a443f9;
      }

      .st1 {
        fill: #5b357b;
      }

      .st2 {
        fill: #59337a;
      }

      .st3 {
        fill: #5a337a;
      }
    </style>
  </defs>
  <path class="st2" d="M278.1,295.5c12.5,12.8,9.9,35.9,6.2,51.9-9.7,41.6-52.7,88.4-91.4,44.8-.5-.6-.6-1.7-.7-1.7-1.3-.9-3.4,3.6-4.2,4.5-14.9,16.9-39.4,20.8-57.3,5.9-19.4-16.1-26.9-59.9-34.9-83.9s-5.8-13.1-5.8-15.1c0-8.2,15.6-11.7,21.9-12.2,49.8-3.6,44.4,55.6,49.8,88.5.1.8.2,3.2,1.3,3.2,3.5-9.2,6.1-19,7-28.8,1.4-15.8-.4-30-8-44.1s-4.9-5.6-4.2-8.3c1.5-6.3,15.4-9.8,21-10.3,46.4-4.3,41.4,59,49.6,88.5.3,1,0,2.2,1.4,2.4,1.7-7.7,3.5-15.4,4.2-23.3,1.4-15.5,1.1-31.2-7.4-44.7s-7.5-5.4-3-12.1c11.3-16.9,40.4-19.5,54.6-5.1Z"/>
  <path class="st0" d="M272,135.5c.4,4.3,0,9.5,0,13.9,0,12.6,2,22.3-8.7,31.3s-9.5,5.8-15.3,6.3c-39.5-2.1-81.8,2.7-121,0s-26.7-13.5-25.3-29.9c4.6-1.8,7.4-3.6,6.1-9.2s-3.9-4.7-6.1-4.7c-1.8-14.5,7.8-28.2,22.6-29.9h126.5c11.2,1.9,20.3,10.8,21.3,22.3ZM153.9,130.3c-.6,2,0,9.7,0,12.5s5.7,1.7,7,0,1-10.6.3-12.2c-1.2-2.8-6.6-2.8-7.3-.4ZM256.1,130.3c-.6,2,0,9.7,0,12.5s7,1.5,7,0v-12.5c0-1.9-6.2-2.7-7,0ZM142.6,155c-6.9,2,4.1,8.3,6.3,9.4,21.1,10.9,60.3,14.4,81.9,3.7s4-6.5-.7-6.3-10.4,3.5-14.4,4.4c-20.8,4.6-43.3,2.1-62.6-6.7-2.9-1.3-7.5-5.4-10.5-4.5Z"/>
  <path class="st3" d="M390.6,406.4c-3.4-1-.4-16.4-.3-19.8.8-23.2,1.4-52.2,0-75.1s-3.3-15.9-2.4-18.3,4.9-4.7,7.6-4.9c21.1,1.1,43.7-1.5,64.7,0,35.5,2.5,40.5,38.1,11.7,54.1l-8.6,3.6c19.8,2.9,34.9,17,28.8,38.2s-20.6,22.2-32.7,22.2h-68.8ZM439.6,340.4c10.7.4,11.1-13.4,10.5-21.2-.5-6.3-3.2-12.6-10.5-12.1v33.3ZM439.6,352.2v36.8c15.8.7,16.3-38.2,0-36.8Z"/>
  <path class="st2" d="M345.7,319.6v20.8c8,1.5,24.5-8.9,25.7,4.5s-1.8,18.8-7.9,16.9-1.9-1.8-3.3-2.3c-4.8-1.9-9.5-1.9-14.6-1.7v22.6c0,.7,1.6,1.1,2.4,1.1,5.4,0,14.8-3.4,19.1-6.7s6.4-8.4,9.8-5.5c5.9,5.2,6.2,32.1-1.9,36.3s-4.1,1.3-5.5,1.5c-20.1,2.3-49.3,2.2-69.4,0-5.9-.6-6.2-1.6-5.9-7.3s1.7-15.2,2.1-22.9c1.1-19.9,2.6-50-.9-69.3s-5.9-10.7.5-15.1,48.7-4.8,59.8-4.2,13.2,1,16.7,3.5c9.5,6.9,7.5,21.9,3.8,31.6s-6.3,5.5-13.3,1.4-11.5-5.1-17.3-5.3Z"/>
  <path class="st1" d="M101.7,143.1c2.2,0,5.6,2.4,6.1,4.7,1.3,5.6-1.5,7.5-6.1,9.2s-8.2,2.3-12.3,4c-64.4,27.2-84.3,109.9-37.8,163,9.4,10.8,20.5,18.2,32.3,26.1,3.2,6.2-2,12.1-8.7,9.3-9.5-3.9-24.7-16.9-31.6-24.6-54.2-59.9-33.3-154.4,40.7-185.8,3.7-1.6,13.9-5.8,17.4-5.9Z"/>
  <path class="st1" d="M252.6,262.6c-.2-14.6,2.5-31.6-.2-46s-2.1-2.4-.6-4.4c4.3-5.7,26.3-4.9,32.7-3.5,20.9,4.6,28.5,25.9,15.8,43-11.8,15.9-31.3,8.6-47.8,10.9ZM276.2,253.6c2.8.5,4.4-3.3,5.2-5.6,2.6-7.2,2.5-18.1-.4-25.2s-2.1-5.1-4.8-4.6v35.4Z"/>
  <path class="st1" d="M234.6,237.6c-1.1,1.3,2.3,5.6,3.1,6.8,2.8,4.1,6.3,7.9,9.5,11.6s3.4,1.1,2.2,3.7c-2.3,5.1-17.2,5.3-21.4,2.1s-6.5-14.6-7.8-18.8c-1.8,3.1,1.6,17.8-.3,19.1s-22.6,1.4-23.7.3c.2-13,1.3-26.2.7-39.3s-3.7-10.8,1.6-13.7,26.9-2.5,33.5-.6c14.6,4.3,17.7,18.8,5.3,27.6s-2.7.9-2.8,1ZM219.2,235.5c7.6-2.1,8.5-13.6,0-15.3v15.3Z"/>
  <path class="st1" d="M461.6,207.2c22.5-3.5,37.7,11.7,33.4,34-6.6,34.2-59.9,30.6-55.3-10.8,1.2-11,11-21.5,22-23.2ZM465.8,219.6c-5.5,1.6-3.5,23.7-.9,28.4,5.2,9.5,7.7-3.1,8-8s-.6-22.2-7.1-20.4Z"/>
  <path class="st1" d="M272,149.4c0-4.4.4-9.6,0-13.9,30.1-9.9,61.7-9.2,90.6,4.3,16.8,7.8,41.3,27.1,50.5,43.3s-.6,13.4-8.3,10.4c-26.1-37.8-67.7-58.8-114.1-49.3-6.4,1.3-12.4,3.8-18.8,5.2Z"/>
  <path class="st1" d="M384.7,243.1c4.9-6.5,7.1-18.2-1-22.9-.5,7.6-.5,15.3-.4,22.9s0,4.9,0,7.3,2.2,10.2.4,11.5-22.3,2-23.7,0c-.3-13.3,1.6-28.3.4-41.4s-3.8-7.5.4-10.6c4.1-3.1,20.7-2.6,26.3-2.2,13.4.9,22.8,7.4,21.2,21.9-1.1,9.3-9.7,14.9-18.5,14.7s-3.4-.9-5.1-1.1Z"/>
  <path class="st1" d="M121.9,243.2c.2-.3,5.2-1.8,6.1-1.9,16.1-2.2,15.7,16.7,0,21.6-24.8,7.7-41.7-12.5-35.7-36.3,4.3-16.7,26.5-25.3,41-16.7s7.8,21.6-6.3,20.2c-8.7-.9-1.6-9-6.4-10.3s-6.8,15.8-6.4,19.7,1.7,13.9,6.2,11.8,1.2-7.6,1.4-8Z"/>
  <path class="st1" d="M141,263.3c-.7-.2-1.3-1.5-.9-2.3,4.7-13.6,9.9-27.2,14-41s-.3-14,11.1-12.2,9.6,3.6,11.5,6.5c7.1,10.7,8.8,32.3,15.8,44,.3.9.6,2.2.4,3-.5,2.3-23.2,2.8-24.8.5s.2-6.8-1.7-8-8.3.1-10.7-.4c-2.7,2-.6,9.8-3.6,9.8s-9.4.5-11.1,0ZM161.5,232.7c-1.1-1.2-1.2.3-1.4,1-.4,1.5-2.5,11.7-2.1,12.2h5.6c.6-.6-1.6-12.7-2.1-13.2Z"/>
  <path class="st1" d="M303.7,263.3c-.2,0-1.3-1-.7-1.4,4.3-11.4,8.3-23,12-34.6,1.6-4.9,2.7-12.4,4.3-16.5,2.9-7.5,18.3-.8,21.5,5,5.2,9.5,9.2,28.4,13.3,39.5s2.8,3.5,2.2,6.1-23.2,2.9-24.8.5-.5-7.4-1.8-8.3-10.6-.3-11.4.6c-1.5,1.8-.4,9-2.8,9s-9.6.6-11.8,0ZM324.9,231.3c-1.8-.1-1.2-.1-1.4,1-.3,1.9-2.6,13-2.1,13.5h5.6l-2.1-14.6Z"/>
  <path class="st1" d="M436.8,211.2c-2.9,16.4-.8,34-1,50.7-1.7,2.4-20.3,1.1-24,.7,0-12.9,1.8-27,.7-40s-5-11.3,1.9-14,16.2-.4,22.4,2.6Z"/>
  <path class="st1" d="M330.3,191.9c2.8-.4,5.3-.2,7.4,2,7.8,7.9-9.6,12.6-15.8,11.6-12.9-2.2,1.5-12.7,8.4-13.5Z"/>
  <path class="st1" d="M142.6,155c2.9-.9,7.6,3.2,10.5,4.5,19.3,8.8,41.7,11.3,62.6,6.7s11.3-4.2,14.4-4.4c4.7-.2,5.1,4,.7,6.3-21.5,10.7-60.7,7.1-81.9-3.7-2.2-1.1-13.2-7.4-6.3-9.4Z"/>
</svg>