<?xml version="1.0" encoding="UTF-8"?>
<svg id="Camada_1" xmlns="http://www.w3.org/2000/svg" version="1.1" xmlns:xlink="http://www.w3.org/1999/xlink" viewBox="0 0 512 512">
  <!-- Generator: Adobe Illustrator 29.2.1, SVG Export Plug-In . SVG Version: 2.1.0 Build 116)  -->
  <defs>
    <style>
      .st0 {
        fill: #fffbfb;
      }

      .st1 {
        fill: #fd020b;
      }
    </style>
  </defs>
  <path class="st1" d="M273.6,155.3c-.2-.7-1.8-.5-1.6-2.3s2.5-5,3.3-6.1c12.8-19.8,34.1-19.5,51.3-5.5,36.4,29.6,35,82.5-2,111-11.5,8.8-29,16.2-43.6,16.8-1.3,0-4.3.5-3.3-1.5,5.6-9.4,9.9-19.7,15.4-29.1s5.1-8.3,11.1-9.2,19.2,1.4,25.2-3.4c5.1-4.1.2-7.5,1.4-11.8.5-1.8,2.6-3.5.4-5.3s-2.5-.7-1.8-2.1,1.8-.8,1.7-3.3-2.1-4.4-2.1-5.7c0-2.1,6.4-3.8,5.4-8.3s-5.9-4.4-7.5-5.5-5-4-5.6-5.1,0-4.2-.1-5.6c-.4-8.1-4.5-17.2-9.6-23.4s-3.5-4.6-4.1-2.8-.2,3.7-.3,4.9c-4.2,32.3-21.5,61.2-47.4,80.7-25.9,19.4-55.5,14-64.1-19.1s5.8-61.2,31.3-78.5c25.6-17.4,69-22.4,96.7-7.5,4.4,2.4,15.5,10,17.9,14.1s.4.5.3.9c-.3,0-.5,0-.8-.1-1.3-.6-4.2-3.4-5.7-4.5-8.4-6-19.5-10.9-29.9-12-16.8-1.7-32,8.4-38.3,23.7-.4,1-.8,3.2-1.2,3.7-.6,1-1.9.2-2.9,2.3s-2.5,6.8-3,8.8,1.5.9,2.9.8c3.2-.2,6.7-.2,9.6,1,.3.1.9-.2.9-.4v-10.4ZM264.7,166.7c-20.1,1.6-16,30.8,4.8,26.9,17.4-3.2,14.3-28.4-4.8-26.9Z"/>
  <path class="st1" d="M425.1,371.4h-26.6v-3.1c-14.7,6.6-31,4.7-44.2-4.4-20.4-14.2-25.2-42.3-10.7-62.6s35.5-23.9,54.9-15v-29s.4-.4.4-.4h25.8s.4.4.4.4v114.1ZM377.9,309c-14,1.4-21.2,19-12.1,29.9,11.8,14,34.2,4.8,32.7-13.4-.8-10.3-10.6-17.5-20.6-16.5Z"/>
  <path class="st1" d="M241.8,371.4h-26.6v-46.5c0-.4-.7-2.9-.9-3.5-4.5-13.5-22.3-16.9-31.5-6s-4.3,7-4.3,9.5v46.5h-26.6v-88.2h26.6v3.1c13-5.7,27.6-5.1,40,1.8s22.5,21.5,23.3,37.4v45.9Z"/>
  <path class="st1" d="M334.5,371.4h-26.6v-46.5c0-.4-.7-2.9-.9-3.5-4.5-13.5-22.3-16.9-31.5-6-1.6,1.9-4.3,7-4.3,9.5v46.5h-26.6v-88.2h26.6v3.1c13-5.7,27.6-5.1,40,1.8,13.8,7.7,22.5,21.5,23.3,37.4v45.9Z"/>
  <path class="st1" d="M120,314.2l-26.4,3.9c-.8-.1-1.9-2.3-2.5-3-9.4-10.9-28-6.7-31.7,7.4-5,19.2,19.1,31.4,31.7,17.1.6-.7,1.7-2.9,2.5-3l26.4,3.9c-8,28.3-42.7,40.9-67.3,24.5-25.4-16.9-27.5-53.4-3.6-72.7,24.3-19.6,62.4-8.2,70.9,21.8Z"/>
  <rect class="st1" x="429" y="283.2" width="26.3" height="88.2"/>
  <rect class="st1" x="122.1" y="283.2" width="26" height="88.2"/>
  <path class="st1" d="M440.4,246.3c11.1-1.2,19.3,9.8,14.6,20.1s-17.3,10.9-23.8,3c-7-8.6-1.9-21.9,9.2-23.1Z"/>
  <path class="st1" d="M133.2,246.3c11-1.2,19.1,9.4,14.9,19.6s-19.4,11.4-25.2,1.7.3-20.2,10.3-21.3Z"/>
  <path class="st0" d="M264.7,166.7c19.1-1.5,22.2,23.7,4.8,26.9-20.8,3.9-24.9-25.3-4.8-26.9ZM265.7,170.6c-14.3.8-12.8,20.9,2.2,19.2s10.9-19.9-2.2-19.2Z"/>
  <path class="st1" d="M265.7,170.6c13.1-.7,14.8,17.7,2.2,19.2s-16.5-18.4-2.2-19.2Z"/>
</svg>