<?xml version="1.0" encoding="UTF-8"?>
<svg id="Camada_1" xmlns="http://www.w3.org/2000/svg" version="1.1" xmlns:xlink="http://www.w3.org/1999/xlink" viewBox="0 0 512 512">
  <!-- Generator: Adobe Illustrator 29.2.1, SVG Export Plug-In . SVG Version: 2.1.0 Build 116)  -->
  <defs>
    <style>
      .st0 {
        fill: #f11701;
      }

      .st1 {
        fill: #f11902;
      }

      .st2 {
        fill: #f11801;
      }
    </style>
  </defs>
  <path class="st0" d="M202.4,218.6c-.3.2-.9,0-1.2-.4-24.5-31.5-75.1-32.6-99.9-.7-16.7,21.5-16.4,58.2,1.4,79,25.9,30.3,74.2,28.6,98.6-2.5l1.1-.3,36.7,43.6c-18.1,19.6-43.6,32.3-70.1,36-82.5,11.6-152.7-51.6-139.8-136,5-32.6,24.4-62.9,52.4-80.4,44.6-28,109.5-26.9,148.7,10.1l-27.9,51.7Z"/>
  <path class="st2" d="M143.9,208.6c35.6-3.2,64,22,55.9,58.6-9.4,42.5-70.2,49.6-91.4,13.3-17.1-29.1,1.1-68.8,35.5-71.9ZM149.9,230.7c-35.6,2.4-28.7,57.3,7,50.2s24.3-52.3-7-50.2Z"/>
  <polygon class="st1" points="350.8 282.4 359.6 229.2 373.4 229.4 383.9 257.2 396.1 229.1 409.7 229.2 417.5 282.4 403.7 282.4 399.3 253 387.1 282.4 381.9 282.5 369.8 253.6 368.8 253 364.6 282.4 350.8 282.4"/>
  <path class="st2" d="M247.4,261.3v-32.1h13.3v53.3h-13.6l-25.5-32.1v32.1h-13.8v-53.3h13.6c8.1,9.6,15.2,20,23.2,29.6.7.9,1.6,2.5,2.7,2.5Z"/>
  <path class="st2" d="M473.3,229.2c11.5,1,18.6,9.7,15.7,21.2s-4.7,8.3-10.2,10-.8-.3-.7.7l16.1,21.4h-16.8c-4.6-5.8-8-13.4-12.5-19.2s0-.8-1.1-.6v19.7h-13.3v-53.3c7.4.5,15.5-.6,22.8,0ZM463.9,239.7v13.1c0,1.6,6.9,0,8.1-.6,3.5-1.9,4.1-6,2.2-9.3s-6.7-3.3-10.4-3.2Z"/>
  <path class="st1" d="M316.8,229.2v35.6c0,.2,1.2,2.7,1.5,3.1,3.4,5.2,12.2,5.3,15.6,0s1.8-5,1.8-6v-32.8h13.8v33.3c0,28.6-46.4,27.3-46.4,3.7v-37h13.8Z"/>
  <path class="st1" d="M299.4,231.9l-5.1,11c-3.2-1.6-5.9-3.7-9.8-3.6s-8.4,5-3.7,8.1c7.2,4.8,19,2.6,20.7,15.1,2.4,17.6-14,24.1-28.7,20.4s-9.8-3.6-10.2-5,4.6-9.5,5.7-10.7c3.8,3.7,14.5,8.2,18.1,2.5s-10.9-9.4-14.9-11.3c-11.7-5.6-8.3-23.8,2.4-28.7s17.5-1,25.4,2.2Z"/>
  <polygon class="st2" points="449.2 229.2 449.2 240.6 432.7 240.6 432.7 250.3 448.3 250.3 448.3 261.3 432.7 261.3 432.7 271.4 449.2 271.4 449.2 282.4 418.9 282.4 418.9 229.2 449.2 229.2"/>
</svg>