<?xml version="1.0" encoding="UTF-8"?>
<svg id="Camada_1" xmlns="http://www.w3.org/2000/svg" version="1.1" xmlns:xlink="http://www.w3.org/1999/xlink" viewBox="0 0 512 512">
  <!-- Generator: Adobe Illustrator 29.2.1, SVG Export Plug-In . SVG Version: 2.1.0 Build 116)  -->
  <defs>
    <style>
      .st0 {
        fill: #ffffffff;
      }

      .st1 {
        fill: #ffffffff;
      }

      .st2 {
        fill: #fe6504;
      }

      .st3 {
        fill: #ffffffff;
      }

      .st4 {
        fill: #f8f8f8;
      }
    </style>
  </defs>
  <path class="st3" d="M485.8,253.5v31.2c-4,12.3-21.4,11.3-22.8-2.3-.5-5.3-.7-26.1.8-30.4,3.4-10.5,19.6-9.1,22,1.5ZM473,251.6c-2.1.5-2.7,2.3-2.9,4.2-.6,5.7-.7,21,0,26.7.6,4.9,7.1,5.8,8.5,1.4s1.1-25.7,0-29.4c-.8-2.6-3.1-3.3-5.6-2.8Z"/>
  <path class="st4" d="M73.8,238.9v.5c-15.2-.7-32-.2-47.3,0-.9,0-2.3-.3-2.8.5-.2-.3-.5-.5-.5-1h50.6Z"/>
  <path class="st2" d="M73.8,239.4c11.5.5,14.9,6.7,15.2,17.6,11.3-1,16.9,5,17.7,15.8.5,6.9.7,19.2-4.4,24.3s-11.7,5.1-16.5,4-7.5-7.1-9.5-8.9h16.5c.7,0,2.7-1.7,3.1-2.4,1.7-2.6,1.5-14.4,1.1-17.9-.6-4.9-3.2-6.4-8-5.8.3,12.1-7.4,19-19.5,17.6s-7.9-6.2-10.9-9h15.9c3.5,0,5.3-5.7,4.8-8.5h-28.1c-2.6,0-8.4-7.1-10.4-9h38.5c0-5.4-1-8.6-6.8-9.1-12.8-1.1-27,.9-40,0-1.9-.3-7.6-6.2-8.9-8,.5-.8,1.9-.5,2.8-.5,15.3-.2,32.2-.7,47.3,0Z"/>
  <path class="st0" d="M278,245.4h14.2c2.1,0,5.6,3.2,6.4,5.2,1.4,3.3,1.5,13.3-.4,16.4s-2.4,1.9-2.2,2.7,1.5,1.4,1.9,2.2c2.7,4.6,1.3,9.9,1.6,15s1.2,4.2,1,5c-.4,1.3-6,1.1-6.8.3-2-2-.9-11.7-1.2-14.9-.6-5-8.1-4.7-8.1-3.5v18.1c0,1.2-7.1,1.2-7.1-.5v-45.2c0-.1.6-.5.8-.8ZM284.4,252v14.6c7.5.8,9-1.2,8.6-8.3-.3-6.7-2.4-6.6-8.6-6.3Z"/>
  <path class="st3" d="M391.7,273.1v18.3c0,1.7-7.1,1.7-7.1.5v-45.7c0,0,.7-.8.8-.8h13.7c1.4,0,5.2,2.7,6,4,3,4.7,2.7,16.7-2.2,20.3,5.6,4.4,3.8,12.3,4,18.6s1.8,3.9-1.2,4.3-5.3.2-5.8-3.3c-1-7.1,3.5-17.4-8.1-16.3ZM391.2,266.5c4.2,0,8.1,1.1,8.6-4.2.7-7.7.4-11.6-8.6-10.3v14.6Z"/>
  <path class="st1" d="M125.9,245.4h21.5c.9,0,4.3,2.2,5,3,1.6,1.8,2.5,4.9,2.8,7.3.6,5.3.7,25.5-.7,29.8-1.3,3.9-4.6,6.5-8.7,7s-9.1.4-11.6,0-1.5-.2-2-1l-.2-31.9c-.1-2.7,7.1-2,7.1-1v26.6c0,1.1,7.8,2,8.9-2.7,1.7-7.2-.6-19.9,0-27.7-1.4-5.5-11.5-1.9-16-3.2-1.4-.4-5.5-4.7-6-6.3Z"/>
  <path class="st1" d="M351.2,286.1c2.8,0,7.7.7,8.5-2.9v-28.8c-1.5-4.5-11.7-1.5-15.6-2.7s-5.1-4.9-6.6-6.3h21.5c.2,0,3,1.3,3.5,1.6,2.1,1.4,3.9,4.4,4.3,6.8.9,5.9.7,22.3.1,28.5s-2.1,7.6-5.9,9.2-2.8,1.1-3,1.1h-13.2c0,0-.8-.7-.8-.8v-33.2c0-1.2,7.1-1.2,7.1.5v26.9Z"/>
  <path class="st3" d="M234.3,279.1l6.8-33.2c.7-1,4.9-.3,6.4-.5,0,1.1,0,2.1,0,3.2-1.4,13.6-6.3,28.2-8,41.9-.1.6-.3,1.3-.8,1.7-.8.7-8.7,1.2-9-.8l-8.5-45.2c.3-1.2,6.7-1.5,7.2.3l6,32.5Z"/>
  <path class="st0" d="M180.6,245.4c.6.4,1,6.5-.8,6.5h-12.4v13.6h10.6c.4,0,1.2,6.5-.8,6.5h-9.9v14.1h13.2c.4,0,1.2,6.5-.8,6.5h-18.7c0,0-.8-.7-.8-.8v-45.7c0,0,.7-.8.8-.8,2.6,0,18.7-.5,19.5,0Z"/>
  <path class="st0" d="M272.2,245.4c.6.4,1,6.5-.8,6.5h-12.4v13.6h10.6c.4,0,1.2,6.5-.8,6.5h-9.9v14.1h13.2c.4,0,1.2,6.5-.8,6.5h-18.7c0,0-.8-.7-.8-.8v-45.7c0,0,.7-.8.8-.8,2.6,0,18.7-.5,19.5,0Z"/>
  <path class="st0" d="M432.7,245.4c.6.4,1,6.5-.8,6.5h-12.4v13.6h10.6c.4,0,1.2,6.5-.8,6.5h-9.9v14.1h13.2c.4,0,1.2,6.5-.8,6.5h-18.7c0,0-.8-.7-.8-.8v-45.7c0,0,.7-.8.8-.8,2.6,0,18.7-.5,19.5,0Z"/>
  <path class="st1" d="M316.8,264.5l5.8-18.6c.7-.8,6.5-.9,6.8.3l-9.5,28.7c-1,4.4.9,12.4-.2,16.4s-5.6,1.8-6.5,1.1-.2-14.3-.6-17c-1.3-8.2-7.3-19.3-9.3-28s-.3-1.3-.2-2c1.9.3,5.8-.7,7.1.7s4,13.8,5.5,17.1.3,1.2,1,1.2Z"/>
  <path class="st3" d="M451.4,252v39.5c0,1.8-7.1,1.8-7.1,0v-39.5h-7.3c-.9,0-1.4-6,0-6.5,6.4.4,13.9-.7,20.2,0s2.5,6.6,1.5,6.6h-7.3Z"/>
  <path class="st0" d="M205.1,286.1c1.1.3,1.3,6,0,6.5-5.3-.4-12,.8-17.2,0s-1.5-.2-2-1l-.3-44.5c-.5-2.6,6.8-2.5,7.1-.5v37.7c-.1.5.3,1.7.8,1.7,2.4,0,10.1-.5,11.6,0Z"/>
  <path class="st3" d="M210.8,245.5c1-.3,6.3-.6,6.3,1.2v43.8c.2,3.1-6.6,3.2-7.1.5l.2-45c.1-.2.4-.3.6-.4Z"/>
  <path class="st3" d="M372.8,245.5c1-.3,6.3-.6,6.3,1.2v43.8c.2,3.1-6.6,3.2-7.1.5l.2-45c.1-.2.4-.3.6-.4Z"/>
</svg>