<?xml version="1.0" encoding="UTF-8"?>
<svg id="Camada_1" xmlns="http://www.w3.org/2000/svg" version="1.1" xmlns:xlink="http://www.w3.org/1999/xlink" viewBox="0 0 512 512">
  <!-- Generator: Adobe Illustrator 29.2.1, SVG Export Plug-In . SVG Version: 2.1.0 Build 116)  -->
  <defs>
    <style>
      .st0 {
        fill: #2d2d57;
      }

      .st1 {
        fill: #ed742d;
      }

      .st2 {
        fill: #ec6f26;
      }

      .st3 {
        fill: #eb6a1e;
      }

      .st4 {
        fill: #31315a;
      }
    </style>
  </defs>
  <path class="st3" d="M84.9,175.6c9.2-1.3,18.5,8.5,25.3,14.4,6.4,5.6,31.8,30.1,33.5,36.4,2.2,8.4.4,13.6-4.7,20.2s-32.4,34.2-38.9,38.7c-19,13.2-39.9-6.2-27.9-24.7,4.6-7.2,23.5-19.6,24-27.3s-26.4-23.7-27.6-37.4c-.8-9.1,7.3-18.9,16.4-20.3Z"/>
  <path class="st2" d="M63.5,186.1c0,.1-2.2-.3-3.1,1.1-12.9,21.4,24.6,32.1,24.4,47.4s-30.9,25.2-27.2,41.7c1,4.6,5.8,5.9,5.9,10.4-11.6,2.3-21-5.7-18.4-17.5,1.8-8.1,20.4-19.2,24.4-26.9,10.8-20.9-26.1-28.7-24.8-47.8,1.1-15,23.1-15.3,18.7-8.6Z"/>
  <path class="st0" d="M117.9,336.4l7.1-46.6c25.1-3.3,43.8,3.7,33.4,31.9-1.6,4.5-10.3,14.6-14.9,14.6h-25.7ZM130.4,327.1c15.9,3.1,21.3-8.2,18.6-22.4-1.3-6.9-14.4-6.6-15.5-5.5s-1.9,24-3.1,27.9Z"/>
  <path class="st4" d="M354.2,300.8c.9.9,3.1,21.3,3.2,24.7l11.1-24.5,9.1-.3c.1,1.2,0,2.4-.3,3.5-.8,4.2-16.5,38.1-19.2,41.3-4.5,5.4-9.7,5-16.3,4.7-3.6-10,7.7-9,7.9-10.2,1.3-7-7.8-37.9-6.3-39.4,2.2.4,10-.7,10.8,0Z"/>
  <path class="st0" d="M175.5,322.5c-1.6,12.7,16.1,2.3,17.1,3.1,6.2,12.1-13.4,14.8-21.6,9.9-11.8-7-6.3-31.3,5.7-34.3s21.4.2,22.2,12.8c.9,14.4-13.3,6.6-23.4,8.5ZM187.7,308.7c-2.7-4.4-13.5,1.5-12.2,7.5h12.4c-.3-2.1.7-6-.2-7.5Z"/>
  <path class="st0" d="M310.8,322.4h-21.8c-.9,12.6,13.1,2.5,15.5,3.8,9.8,4.9-3.1,10.8-9,11.4-26.3,2.8-20.7-33.1-5.4-36.5s22.9,5.4,20.7,21.4ZM301.4,316.2c-.2-19.8-17.2-.7-11.7,0h11.7Z"/>
  <path class="st4" d="M253.1,300.8c.9.9,3.5,21.4,3.2,24.7,4.3-1.9,9.4-23.5,11.1-24.6s8,.3,10.7-.2c-1.9,4.5-14.7,35.2-16.6,35.7s-12.5.4-12.9,0c-1.3-1.3-4-30.9-6.2-35.6,2.2.4,10-.7,10.8,0Z"/>
  <path class="st1" d="M447.6,300.8c.4.4-.2,3.5,0,4.7,35.3-21.9,27.1,48.6-3.1,27.9-3.4,7.4,2.5,18.9-9.3,17,2.5-6.7,4.6-46.7,7.7-48.9s4.4-1,4.7-.7ZM448,308.9c-2.8,2.8-6.5,21.2,2,22.8,16.2,3.1,18.4-23.1,9.3-24.8s-9.4,0-11.3,1.9Z"/>
  <path class="st1" d="M388.3,290.1c1.5,1.2,6.4,33.6,6.4,38.5,2.4-.2,2.3-2.4,3.1-3.9,5.4-10.2,9.5-22.8,14.8-33.3l7-1.5c-2.7,5.5-18.8,45.9-21.2,46.5s-5.7-.3-8.3,0l-7.8-46.4c1.7.3,5.1-.6,6,.2Z"/>
  <path class="st4" d="M219,286.8c1.3,5.8-6.2,40-4.6,41.7s4.3-.9,4.6.9c.4,10.1-12.5,8.6-14.8,3.9-3.8-7.7,5.2-36.2,3.9-46.5h10.9Z"/>
  <path class="st4" d="M330.6,301.3c.5.3.2,2.9,1.1,2.6,2.6-.8,5.7-4.6,10.1-3.1-1.2,15-1.8,8.5-9.8,11.1-6.4,2.1-3.8,22.6-5.7,24.5s-8.7-.3-10.9,0c-1.2-1.2,3.5-33.3,4.5-34.7s9-1.4,10.7-.4Z"/>
  <path class="st4" d="M237.7,300.8c-1.3,5.6-1.8,31.3-3.8,34.2s-8.7,1.2-11.8,1.4c2.4-4.6,3.4-34.3,4.7-35.6s8.8.3,10.9,0Z"/>
  <path class="st1" d="M430.5,300.8c2.1,2.1-3.9,30.3-3.1,35.6h-6.2c.2-5.1,2.5-33.5,4.6-34.9s4.4-1,4.7-.7Z"/>
  <path class="st4" d="M54.1,223.3c.3,2.1.9,4.5,2.4,6.1,2.9,3.2,8,1.6,7,6.2-7.3,0-6.8,5.3-9.2,8.4s-3.2-2.3-4.7-4.5c-2.4-3.4-4.6-2.6-6.8-3.9-4.8-2.7,2.5-3.2,4.4-4.5,4.6-3.1,2.1-8.7,6.9-7.8Z"/>
  <path class="st0" d="M238.8,287.2c5.6,5.6-3,13.6-10.3,10.2-4.9-6.6,4.9-15.6,10.3-10.2Z"/>
  <path class="st1" d="M433.6,286.8c2.6,10.2-9.9,9.4-7.8,2.3s5.5-2.6,7.8-2.3Z"/>
</svg>