<?xml version="1.0" encoding="UTF-8"?>
<svg id="Camada_1" xmlns="http://www.w3.org/2000/svg" version="1.1" xmlns:xlink="http://www.w3.org/1999/xlink" viewBox="0 0 512 512">
  <!-- Generator: Adobe Illustrator 29.2.1, SVG Export Plug-In . SVG Version: 2.1.0 Build 116)  -->
  <defs>
    <style>
      .st0 {
        fill: #27449a;
      }

      .st1 {
        fill: #aeadaf;
      }

      .st2 {
        fill: #a9a8ab;
      }

      .st3 {
        fill: #a9a8ad;
      }

      .st4 {
        fill: #224099;
      }
    </style>
  </defs>
  <path class="st1" d="M186.4,406.1l-.4-3.1,4.4-24.2c.9-2.5,8.8-2.4,11.1-1.8,5.8,1.5,4.5,9.2,3.2,13.6-2.2,7.9-6.6,7.8-14,7.6l-1.7,7.9h-2.5ZM191.4,395.2c5.3.2,8.1.4,9.8-5.1s1.7-12.5-7.6-9.9l-2.2,15.1Z"/>
  <path class="st3" d="M377.3,73.2c-2.4,10.1-2.1,21.8-11,28.8-1.5,1.1-6.5,4-8.2,4h-169.7c2.7-10.8,2.1-23.1,12.6-29.7,1.5-.9,5.8-3.1,7.4-3.1h168.8Z"/>
  <path class="st2" d="M352.9,182.1c-2.6,11.5-2.4,25.2-14.6,31-1,.5-4.4,1.8-5.3,1.8h-168.2c-.3,0-.5-.6-.6-1,0-1,1-4.9,1.3-6.3,1.6-7.9,2.5-15.3,8.9-20.9s7-4.6,9.7-4.6h168.8Z"/>
  <path class="st4" d="M331.9,128.7c.6.6-2.7,15.2-3.2,17.2-1.7,6-5.1,10.8-10.7,13.7s-4.5,1.9-4.8,1.9h-137.7c0-.7,0-1.5,0-2.2.9-5.3,2.9-15.7,5.4-20.2s9.2-10.4,14-10.4h136.9Z"/>
  <path class="st0" d="M457.4,335.1c-.6-.2-.9-2.1-1-2.8-.5-2.9-1.7-21.8-2.6-22.4h-26.4s-11.2,24.4-11.2,24.4c-1.1,1.3-8.4,1.1-9.3.4s-.6-.6-.6-1.1c0-.9,4.2-9.8,4.9-11.4,9.3-20.6,18.8-41.3,29.1-61.3,5.8-5.8,16.9-5.9,18.8,3.5,1.2,5.8,1.1,13.6,1.8,19.7,1.8,16.2,3.9,32.5,5.5,48.8.1.6-.7,2.3-1.1,2.3-1.6,0-7,.3-8,0ZM453.4,301.5c0-1.2,0-2.4,0-3.6-.6-8.9-1.6-20.7-3-29.4s-3.6-2.9-4.9.4l-14.2,31.2c-.4.4.2,1.3.4,1.3h21.7Z"/>
  <path class="st0" d="M88.6,327.1c1.2.4-.2,6.8-.8,7.6s-4.5.8-5.5.9c-6.8.4-17.1,1.1-23.5-.5s-12.4-8.1-11.6-16.6c3.3-14.2,4.2-29.6,7.6-43.7,5-20.7,23.8-18.9,41.4-17.5s4.7.7,5.1,1.2-.5,7.2-1.9,7.4c-8.1.9-17-.5-25,.2-12.7,1.2-9.4,15.4-12.4,24.4h31.7c2.9,0,1.2,7.9,0,8.3l-33.2.5c-.7,5.7-2.4,11.4-3.1,17.1-.6,4.7-1.1,9.1,4.9,10.1s3.9.5,4.5.5h21.9Z"/>
  <path class="st0" d="M226.7,290.5h31.7c2.4,0,1.5,7.7-.5,8.3l-33,.7c-.6,6.2-2.8,12.5-3.3,18.6s-.5,6.3,3,7.8,5.1,1.2,6.4,1.2h22.5c.1,1.5-.4,6.8-1.4,7.6s-10.8.7-13.1.8c-9.8.3-25.9,1.4-27.1-12.4-.6-7.3,2.6-20.7,3.9-28.5,1.5-8.6,3.2-25.6,9.1-31.6,7.5-7.6,25.5-6.5,35.5-5.7s4.6.5,5.1,1.3,0,7-1.9,7.4c-8,.8-16.7-.5-24.6.2s-8.3,2.7-9.7,8-1.7,11.2-2.7,16.4Z"/>
  <path class="st0" d="M411.7,266.5c-.2.3-1.3.5-1.8.5-14.9-.6-28.3-4.8-35.9,11.7s-7.2,28.7-6.3,36.5,7.1,12.1,14.9,12.1,1.9-.5,2.9-.5c5,0,10-.3,15.1-.3,1.2.4,0,6.4-.5,7.2s-6.9,1.8-8.2,2c-15.5,1.7-30.9-.3-33.8-18.3-1.5-9.3,3-32.5,6.9-41.3,7.1-16.1,20.4-20.1,37-18.5s8.9,1,10.2,1.6.9.5.9,1.1-1.1,6.2-1.3,6.5Z"/>
  <path class="st0" d="M117.2,266.7c8.1-9.3,19.9-10.6,31.6-9.4s7.1.8,9.1,1.4,1.3.4,1.5,1-.6,6.8-1.9,7.2l-9.6-.8c-5.7.3-11.3-.8-16.7,1.4-10.8,4.5-13,17.3-14.9,27.5-2,10.5-6.4,28.7,8.5,31.6s4.6,0,7.1,0c5.1,0,10-.3,15.1-.3,1.3.4.3,6.9-1,7.7s-5.7,1.3-7,1.4c-14.1,1.7-30.9.2-34.1-16.7-2.4-12.7,3.5-42.1,12.3-52Z"/>
  <path class="st0" d="M274.3,266.2c-.8-.5,0-8.9,2.8-8.4h49.6c4.4-1.2,1.9,7.8.3,8.3l-20.7.3-.3.5-12.1,66.9c-.1.3-1.1,1.3-1.2,1.3h-7.6c-.9,0-.7-3.2-.6-3.9,3-20.4,8.2-40.6,10.8-61.1,0-.8.8-3.9-.1-3.9h-20.8Z"/>
  <path class="st0" d="M180.4,258.3c.8.8.2,3.1,0,4.2-2.3,18.5-7.2,37.5-10,56-1.3,7.9,4.6,8.2,10.7,8.6s13.8-.4,20.6,0c1.4.5.5,6.1-.4,7.1-1.7,2-11.8.7-14.7,1.7-13.5.3-27,0-25.8-17.4l10.2-59.1c.3-2.5,8.6-1.9,9.4-1.1Z"/>
  <path class="st0" d="M343,257.7h7.1c.8,0,1.4,2.3,1,3.1-5.3,23.4-7.2,48.6-12.7,71.8-.1.6-.8,2.4-1.4,2.4h-7.6c-1.9,0-.3-6.7,0-8.1,3.6-21.6,7.1-45.2,11.8-66.4.3-1.4.3-2.3,1.8-2.9Z"/>
  <path class="st1" d="M133,377.9c.3.2,4.1-1.7,6.8-1.1s1.7,1.1,2.6,1.1,2.6-1,3.8-1.2c5.2-.7,8,1,7.7,6.5s-2.3,14.3-2.9,14.7-2.1.1-3,.2c-.7-.7,2.5-13.5,2.4-15.8,0-4.3-7-2.6-7.4-1.2-.2,2.1-2.1,16.2-3,16.8s-2.1.1-3,.2c-.6-.6,2.2-14.2,2.5-16.2,0-3.6-5.6-1.9-7.4-.6l-2.8,16.1c-.3,1.1-3.1,1-3.5.3l3.4-19.8c.3-1.1,1-1.4,2.1-1.3,1.6.1,1.2,1,1.5,1.3Z"/>
  <path class="st1" d="M258.7,377.6c-.3,2.4-2.9,19.8-3.7,20.4-2,1.4-3-1.1-3.2-1.1-.7-.1-2,1-3,1.2-10.1,1.9-9.3-8-7.1-14.7,2.5-7.9,10.4-7.3,17.1-5.8ZM254.5,379.6c-6.2-.4-8.4.3-9.9,6.3-.9,3.8-2.3,10.1,3.8,9.2s3.8-1.6,3.9-1.8c.4-.5,2.7-13.3,2.2-13.8Z"/>
  <path class="st1" d="M175,377.6c-.8,3.2-2.1,18.5-3.5,20.2s-3.6.8-2.7-1.3c-1.6.6-2.5,1.5-4.4,1.7-9.6,1-8.4-8.3-6.3-14.7s10-7.4,17-5.9ZM171.2,380.1c-7.8-2.2-10.5,2.4-10.9,9.5s-.1,6.3,4.4,5.6,3.9-1.6,4.1-1.9c1.4-2.2,1.2-10.3,2.5-13.2Z"/>
  <path class="st1" d="M347.4,396.9c-.6-.4-2.5,1-3.6,1.2-6.7,1-8.7-2.8-8-8.9s2.6-11.7,8.5-12.5,9.4-.1,9.8,1.5l-3.4,19.2c-.3.8-1.5.9-2.2.7s-.9-1.1-1.1-1.2ZM347.7,393.4c.4-.5,2.4-12.3,2.2-13.1-.5-1.4-5.6-.7-6.9.1-3.2,2.1-5.8,13.9-1.7,14.7s5.5-.7,6.4-1.8Z"/>
  <path class="st1" d="M226.3,377.6c-.5,2.8-2.4,19-3.5,20.1s-2.6.6-2.7.4.3-1.7-.2-1.7c-11.7,5.8-13.6-3.7-10.5-13s10.1-7.4,17-5.8ZM217,379.7c-4.4.9-5.9,9.5-5.3,13.1.6,3.7,6.7,2.4,8.4.4s2.7-12.3,2.5-13c-.3-1.1-4.6-.8-5.5-.6Z"/>
  <path class="st1" d="M407.5,377.6l-3.3,20c-1.7,1.1-3.3,1.2-3.2-1.1-7.2,4-12.2,1.6-11.6-6.9.8-11.7,7-14.8,18-11.9ZM398.2,379.7c-3.1.6-4.3,4.2-4.8,7-1,5-1.2,10.6,5.8,7.9s1.9-1,2.1-1.3c.4-.5,2.7-12.3,2.5-13-.3-1.1-4.5-.8-5.5-.6Z"/>
  <path class="st1" d="M448.7,388.5c-2.3,8.8,6.1,6.7,11.8,6.3,1.3,4.3-8.2,3.8-10.6,3.3-6.6-1.3-5.2-10-3.6-14.7,4.1-11.4,21.5-7.6,15.7,5.1h-13.2ZM459.3,385.9c2.1-9.3-9.3-7.6-10.1,0h10.1Z"/>
  <path class="st1" d="M123.3,388.5h-13.2c-.9,0-1.2,4.8.6,6.1s10.1-.2,10.5.2c.6,3.2-1.3,3.2-4,3.4-10.5.8-13.3-3.5-10.4-13.4s20.7-10.5,16.5,3.7ZM110.3,385.9h9.5c1,0,1.4-5.3-1.9-6.1s-7.4,2-7.6,6.1Z"/>
  <path class="st1" d="M287.9,388.5c-.9.3-.7,3.2-.6,4,.8,4.6,8.5,2.3,11.7,2.3.6,3.2-1.3,3.2-4,3.4-10.6.8-13.3-3.5-10.4-13.4s4.7-8.4,10.4-8.1,6.9,3.7,6.5,8.7-.4,3.1-1.1,3.1c-2.5,0-11-.5-12.6,0ZM288.1,385.9h9.5c1,0,1.4-5.3-1.9-6.1s-7.3,2-7.6,6.1Z"/>
  <path class="st1" d="M416.4,377.9c.2.1,3.1-1.1,4-1.2,3.8-.4,7.2.5,7.7,4.8s-1.5,12.1-2.3,14.9-1.5,1.6-3.6,1.7c-.8-.8,2.9-14,2-16.9s-6.9-1.3-8.5.1l-2.9,16.4c-.5.7-3.3.7-3.6-.3l3.4-19.6c.3-1.2,2.3-1.6,3.3-.9s.3.9.5,1Z"/>
  <path class="st1" d="M359.9,376.8c.5-.2,1.8-.2,2.3.1,1.2.9-1.5,11-1.7,13.1s-.2,2.4,0,3.3c.6,3.2,6.8,1.8,8.6.2l2.8-15.7c.2-1.3,2.9-1.6,3.5-.8-.5,2.6-2.7,20.2-4,20.8s-2.7-.7-4-.6-1.7.7-2.6.8c-5,.5-8.3-.8-8.2-6.5,0-2.6,1.6-10.6,2.3-13.3s.3-1.4.9-1.6Z"/>
  <path class="st0" d="M253.5,238.2c1.4-1.3,1-1.7,3.3-1.9s8.8-.7,7.6,1.7l-15.2,14.2c-1.1,1.1-6.9,1.3-7.7.7s-.5-2,0-2.6c4.2-3.8,7.9-8.2,12-12.1Z"/>
  <path class="st1" d="M62.3,377.1c.2.2.2,2.6-.7,2.9-1.6.5-9.2-2-9.8,1.5s6.2,4.8,7.9,7.6c2.5,4.1-.4,8.3-4.8,8.9s-8,.3-9-.6-.3-2.4,0-2.7,7.4,1.5,9.8-.5c4.1-3.4-4.1-6.2-6.1-8.2-4-3.9-1.1-8.8,4-9.4s8.1-.1,8.5.4Z"/>
  <path class="st1" d="M320.1,377.1c.2.2-.2,2.7-.5,2.9-.7.5-7.3-1.5-9.4.4-3.3,2.9,4.5,5.9,6.1,7.4,4.4,4,1.5,9.7-4,10.3s-7.7.3-8.6-.6-.4-2.4,0-2.7,7.4,1.5,9.8-.5c4.8-3.9-6.8-6.4-7.7-10.8-1.6-7.9,9.2-7.3,14.2-6.4Z"/>
  <path class="st1" d="M89.7,377.1l-.4,2.9c-2.2-.2-9.6-1.5-10.1,1.5s6.2,4.8,7.9,7.6c2.5,4.1-.4,8.3-4.8,8.9s-8,.3-9-.6-.3-2.4,0-2.7c.8-.5,7.3,1.6,9.8-.5,4.1-3.3-3.6-6-5.6-7.8-4.2-3.7-2-9,3.2-9.7s6.1,0,8.9.3Z"/>
  <path class="st1" d="M101,372.1c.2.9-.8,4.2-.4,4.6s4.5-.9,4.5.9c.1,3.9-3.5.7-5.3,2.7,0,2.5-3.1,12.5-2.6,14.2s3.5,1.2,4.6,1.1c0,1.2.4,2.3-1.1,2.5-2.3.4-6.6.3-7-2.7s2.7-15.2,2.1-15.8c-1.7,0-4.2.7-3.8-1.9s4.1-.6,4.6-1.1-.7-5.9,4.2-4.6Z"/>
  <path class="st1" d="M331.4,372.1l-.4,4.6c1.2.2,4.5-.7,4.5.9s-.3,1.9-.4,2c-.5.5-4.1-.8-5,.7-1.5,2.5-1.4,10.9-2.6,14.2.4,1.1,3.5,1.2,4.6,1.1,0,1.2.4,2.3-1.1,2.5-2.3.4-6.6.3-7-2.7s2.7-15.2,2.1-15.8c-1.7,0-4.2.7-3.8-1.9s4.1-.6,4.6-1.1-.7-5.9,4.2-4.6Z"/>
  <path class="st1" d="M439.9,372.1l-.4,4.6c1.9.2,5.1-.9,4.6,1.9s-4.3,0-5.3,1.9l-2.3,14.4c.2.7,3.4.6,4,.7,1.4.2.2,2.2-.5,2.5s-3.7.2-4.5,0c-1.6-.3-2.7-2-2.8-3.5,0-2.7,2.9-12.8,2.5-14.3s-4.4-.1-4.2-1.7c.4-3.3,4-1.1,4.9-2.3s-1-5.1,4-4.2Z"/>
  <path class="st1" d="M277.7,377.9c.3.2,5-2.1,6.3-1.2,1.2,4.6-4.6,2.1-6.5,4.6s-1.7,12.8-3.1,15.8c-.6,1.4-2.2.9-3.5.9l3.4-20.7c.3-1,2.2-1,2.9-.5s.3.9.5,1Z"/>
  <path class="st1" d="M241,376.7c1,4.6-4.2,2.2-6.5,4.6l-2.9,16.4c-.4.6-2.6.6-3.2.2-.9-.6,2.9-18,3.2-20.4,1.3-2.1,3.2,0,4.2,0s3.6-1.5,5.3-.8Z"/>
  <path class="st1" d="M384.1,377.9c.3.2,5-2.1,6.3-1.2.8,4.9-4.5,2-6.8,4.8l-3,15.9c-.6,1.2-2.2.6-3.3.7-.7-.7,3.1-17.7,3.1-20.2.3-1.1,1-1.4,2.1-1.3,1.6.1,1.2,1,1.5,1.3Z"/>
  <path class="st1" d="M64.5,398.1l3.4-20.7c.4-1.1,3.7-1.1,3.6.2l-3.5,19.2c-.4,1.8-2.1,1.2-3.6,1.3Z"/>
  <path class="st1" d="M69.8,368.8c4.4-1.5,3.1,4.3,2.3,4.8s-2.8.4-3.2-.2.2-4.3.9-4.6Z"/>
</svg>