<?xml version="1.0" encoding="UTF-8"?>
<svg id="Camada_1" xmlns="http://www.w3.org/2000/svg" version="1.1" xmlns:xlink="http://www.w3.org/1999/xlink" viewBox="0 0 512 512">
  <!-- Generator: Adobe Illustrator 29.2.1, SVG Export Plug-In . SVG Version: 2.1.0 Build 116)  -->
  <defs>
    <style>
      .st0 {
        fill: #0389a2;
      }

      .st1 {
        fill: #b8b8b8;
      }

      .st2 {
        fill: #fe9001;
      }

      .st3 {
        fill: #919090;
      }

      .st4 {
        fill: #ab6000;
      }

      .st5 {
        fill: #fefefe;
      }
    </style>
  </defs>
  <path class="st2" d="M256.6,97.9v1.1c-5.3-.3-23.3,18.4-26.9,23.2-33.7,44.9-19.5,104.8,25.8,135-41,21.3-94.7,5.4-118.2-34.1-40.3-67.9,19.9-145.8,95.8-132.4,6,1.1,20,7.3,23.5,7.2Z"/>
  <path class="st1" d="M256.6,257.2c.3-.1,1-1.2,2.1-1.7s2.9-.3,3.3-.5c19,10.3,40.2,14.2,61.6,10.5,6.4-1.1,19.8-7.2,23.9-7.3s22.7,10.2,28.6,6-3.7-22.3-3.2-24.6,4.8-4.9,6.3-6.7c8.3-10.5,9.9-14.8,13.8-27s3.9-2.3,2.3-4.7-35.6-.5-40.9-1.1c1.2-4.4,2.6-9.5-3.7-9.7-6.2-.3-5.6,5.4-8.1,9.7h-38.7c8.4-32.7-2.9-67-28-88.8-3.1-2.7-16.1-12.1-19.4-12.4v-1.1c1.4,0,18-7.9,22.6-9.1,80.3-22.2,155.7,63.8,111.3,136-1.9,3.1-11.9,14.9-12.1,15.9-.5,1.8,2.6,8.7,3,11.7,1.6,13.5,0,18.1-14.1,16.3s-16.5-6.1-19.7-6.1-10,3.9-13.4,4.7c-27.7,6.9-52.6,4-77.5-10.2ZM314.7,90.4h-19.4v1.1h19.4v-1.1Z"/>
  <path class="st4" d="M256.6,99c3.3.2,16.3,9.7,19.4,12.4,25,21.8,36.4,56.1,28,88.8s-5.2,12-6.5,18.3c-9.9-2.6-15.7-5.6-21.3-14.7-1.7-2.7-4.9-11.9-6.6-12.7-4.1-2.1-9.1,1.2-8.2,6,2.3,12.1,17.5,26.8,28.6,31.2-2.6,4.6-6.4,9.3-10.2,12.9s-13.8,11.8-17.8,14-2.2,0-3.3.5-1.8,1.5-2.1,1.7-.7,0-1.1,0c-45.3-30.2-59.5-90.1-25.8-135,3.6-4.8,21.6-23.5,26.9-23.2Z"/>
  <path class="st0" d="M193.1,385.2c-.4-.4.3-6.1,0-7.5-2.2,1.5-2.8,4.1-5.4,5.9-19.4,13-45-14.3-31.4-36.7s20.2-15.2,29.8-8.9,4.5,5.5,7,7.5c.4-1.2-.5-9.7,0-9.7h20.4v49.5c-2.9-.5-19.7.7-20.4,0ZM182.1,351c-12.5,1.6-10.9,20.6,1.7,19.9,13.2-.7,11.5-21.6-1.7-19.9Z"/>
  <path class="st0" d="M298.6,385.2c-.4-.4.3-6.1,0-7.5-2.2,1.5-2.8,4.1-5.4,5.9-21,14.1-48.3-19.9-28-40.9,7.2-7.4,21.9-10.5,29.6-2.6,1.9,2,1.8,4.5,3.8,5.4.4-1.2-.5-9.7,0-9.7h20.4v49.5c-2.9-.5-19.7.7-20.4,0ZM287.6,351c-12.6,1.5-10.2,20.9,1.8,20.2,13.1-.7,12.1-21.9-1.8-20.2Z"/>
  <polygon class="st0" points="149 317.4 149 332.5 123.2 332.5 123.2 346.5 146.9 346.5 146.9 359.4 123.2 359.4 123.2 385.2 101.7 385.2 101.7 317.4 149 317.4"/>
  <path class="st0" d="M377.2,362.6l-29.1,3.2c3.6,10.6,16.9,5.4,24.7,3.2l2.1,13.9c-15.9,5.7-39.6,5.7-46.5-13.1-14-37.9,52.5-50.9,48.7-7.3ZM359.7,348.9c-4.5-4.4-14.5,0-12.6,7.3,2,0,13.5-1.6,14-2.2s-.5-4.3-1.3-5.1Z"/>
  <path class="st0" d="M244.8,317.4v50c0,3.2,8.4,3,10.8,1.6-.2,11.2,3.1,16.1-10.2,17.2s-21-4.6-22.1-17.7c-1.3-15.2.6-32.7.5-48l21.1-3.2Z"/>
  <path class="st0" d="M421.3,308.8c-1,12.1-4.5,23.8-8.3,35.3s-3.2,11.1-4,12.1c-2,2.4-12.2.5-15.6,1.1,1.8-16.3.2-32.3,4.3-48.4h23.7Z"/>
  <path class="st0" d="M373.9,328.2h-15.6c-1.8,0-4.2-12.9-5.4-12.9-1.5,1.3-4.2,12.9-4.8,12.9h-16.1c2.9-6.3,6.7-18.9,10.6-24.1s17.8-1.2,19.5-.1,10.2,20.6,11.8,24.2Z"/>
  <path class="st0" d="M395.2,363.9c20.7-4.3,18.9,18.7,5.8,21.9-20.3,4.9-20-18.9-5.8-21.9Z"/>
  <path class="st3" d="M354.6,200.1c5.3.6,39.4-1.2,40.9,1.1s-1.8,3.2-2.3,4.7c-3.9,12.2-5.5,16.4-13.8,27-1.4,1.8-5.9,5.1-6.3,6.7-.6,2.3,8.4,21,3.2,24.6s-22.8-6.1-28.6-6-17.6,6.2-23.9,7.3c-21.4,3.8-42.6-.2-61.6-10.5,4-2.2,14.3-10.6,17.8-14s7.6-8.3,10.2-12.9c23.3,9.2,57.5-2.7,64.6-28Z"/>
  <path class="st5" d="M297.5,218.4c20.1,5.4,34.8-.2,45.2-18.3,2.5-4.3,1.9-10,8.1-9.7,6.3.3,5,5.3,3.7,9.7-7,25.3-41.2,37.2-64.6,28-11.2-4.4-26.3-19.1-28.6-31.2s4.1-8.1,8.2-6,5,10.1,6.6,12.7c5.7,9.1,11.4,12.1,21.3,14.7Z"/>
  <path class="st3" d="M342.7,200.1c-10.4,18-25.1,23.7-45.2,18.3,1.2-6.3,4.9-12.1,6.5-18.3h38.7Z"/>
  <rect class="st5" x="295.4" y="90.4" width="19.4" height="1.1"/>
</svg>