<?xml version="1.0" encoding="UTF-8"?>
<svg id="Camada_1" xmlns="http://www.w3.org/2000/svg" version="1.1" xmlns:xlink="http://www.w3.org/1999/xlink" viewBox="0 0 512 512">
  <!-- Generator: Adobe Illustrator 29.2.1, SVG Export Plug-In . SVG Version: 2.1.0 Build 116)  -->
  <defs>
    <style>
      .st0 {
        fill: #fe0202;
      }

      .st1 {
        fill: #fe0101;
      }

      .st2 {
        fill: #fe0303;
      }

      .st3 {
        fill: #fe0505;
      }
    </style>
  </defs>
  <path class="st1" d="M417.3,90.2l-13,50.2-21.2.5-22.6,105.7c-9.1,36.6-33.6,58.2-71.6,61.5l-57.7-.2,12.3-44.7,39.9-.2c16.9-2.2,23.1-19.3,27.1-33.6,7.7-27.4,11.8-56.6,19.4-84.1l.7-4.6H119.8l-49.3-49.2-.7-1.4h347.5Z"/>
  <path class="st1" d="M303.8,159.5l-8,33.8c-41.2-.3-82.3-.7-123.5-.5l-1.2-.6-32.4-32.6h165.1Z"/>
  <path class="st0" d="M292.4,208.8l-7.7,33.5c-16,.2-32.5.7-48.6.3s-2.1-.5-3.2-.5c-3.8-.1-7.6.2-11.3,0l-32-31.8-.7-1.4h103.5Z"/>
  <path class="st0" d="M147.3,349.3c41.9-3.1,45.4,56.3,5.3,59.1-42,3-46.3-56.1-5.3-59.1ZM149.1,360.7c-23.8,1.1-21.8,37.5,1.7,36.4s21.7-37.4-1.7-36.4Z"/>
  <path class="st2" d="M421,408h-13.5c-2.1-3.4-3.1-7.4-4.7-11.1-8.7-.6-17.8-.2-26.7-.2-1,.3-4.3,9.6-4.9,11.3h-13.2l25.3-58.4c2.2.4,12.2-.7,13.3.5l24.4,57.9ZM398.2,386.1l-8.7-22.3-9.1,22.3h17.8Z"/>
  <path class="st2" d="M239,408l25.2-58.3h12.9c0-.1,25.3,58.3,25.3,58.3h-13.5c-2.2-3.3-3.3-7.4-4.7-11.1-8.9-.6-18.1,0-27.1-.3-1.7,3.8-2.8,7.9-5.1,11.4h-13ZM279.6,386.1l-8.7-22.3-9.6,22.3h18.2Z"/>
  <path class="st2" d="M104,349.7v43.5c0,2.1-2.5,7.2-3.9,8.9-6.7,8.3-20.5,8-28.9,2.5s-5.7-4.3-5.3-5.7c.6-2.2,4.7-6.1,5.3-8.7,2.2,1,3.7,3.1,5.9,4.3,3.8,2.1,9.7,3.5,12.5-.7s1.2-2.3,1.2-2.5v-30.3h-19.4s-.7-.6-.7-.7v-10.7h33.3Z"/>
  <path class="st2" d="M347.5,390c-1.2,15.1-13.6,21.9-27.7,17.2-2-.7-11.3-6-11-8s5.3-7.3,6.1-9c3.7,4.6,15.4,10.3,18.5,2.5s.9-3,.9-3.2v-28.5h-20.1v-11.4h32.6s.7.6.7.7v39.7Z"/>
  <path class="st3" d="M237.6,349.7v11.4h-17.8v47h-12.5s-.7-.6-.7-.7v-46.3h-17.3v-11.4h48.3Z"/>
  <path class="st2" d="M383.1,344.6l8-13.2.9-.5c1.6,1.2,10.4,3.3,11.2,4.1s0,.6-.3.9c-3.2,3-7.1,5.6-10.4,8.6h-9.3Z"/>
</svg>