<?xml version="1.0" encoding="UTF-8"?>
<svg id="Camada_1" xmlns="http://www.w3.org/2000/svg" version="1.1" xmlns:xlink="http://www.w3.org/1999/xlink" viewBox="0 0 512 512">
  <!-- Generator: Adobe Illustrator 29.2.1, SVG Export Plug-In . SVG Version: 2.1.0 Build 116)  -->
  <defs>
    <style>
      .st0 {
        fill: #ffffffff;
      }

      .st1 {
        fill: #ffffffff;
      }

      .st2 {
        fill: #3c4093;
      }

      .st3 {
        fill: #5cb14f;
      }
    </style>
  </defs>
  <path class="st3" d="M94.7,181.8c36.2,11.7,58.1,45.3,48.7,83-10.5,41.9-60.3,62.9-96.6,36.8-14.8-10.6-20.7-23.1-27.8-39.1v-15c7.8-11.5,22.7-14.2,30-.7,6,11,2.4,19.8,16.6,28.5,19.3,11.8,29.3-4.9,46,9.7,1.5-1.9-4.1-13.5-3.7-17.7s4.3-7.2,5.2-11.8c5.5-28.3-21.9-51.6-47.5-35.8-10.4,6.4-13,19.3-29.7,13.9-5.3-1.7-9.1-10.1-9.1-15.1,0-14.1,29.4-31.6,41.4-36.6h26.5Z"/>
  <path class="st0" d="M178,247.5c-4.1-.2-11.4,1.6-13-3.1s-1-51.1.6-53.3,12.6-2.7,15.3,0,11.1,30.1,13.2,30.1c5-5.8,8.5-26,13.2-30,3.8-3.3,16.1-2.4,16.1,1v52.5c0,3.9-15.1,3.9-15.1,0v-27.2l-8.5,18.8c-16.2,8.9-12.8-13.9-21.8-20.7v31.9Z"/>
  <path class="st0" d="M219.6,277.5c-12.7,3.9-15.6-9.8-26-10.9-18.9-1.8-23.5,27.7-8.2,32.5,19.2,6,17.3-11.3,34.2-8.5-3.5,33-51.1,30.8-56.3-1.4-6.2-38.3,50.7-51.2,56.3-11.7Z"/>
  <path class="st1" d="M374.7,271.8c4.5-1.1,10.4,1.3,14.3,1,2.5-.2,4.9-2.5,7.6-2.8,33.2-3.5,27.6,59.4-8.7,41.2-.7,4.3,1.5,13.7-.8,17-2.5,3.6-12.4,1.7-12.4-1v-55.3ZM396.7,281.6c-12,1.1-13.4,23.3,3.4,20.3,10.4-1.8,8.1-21.3-3.4-20.3Z"/>
  <path class="st0" d="M329.3,255v58.1c-8.4-3.3-17.6,1.6-23.6,1.6-30.9.2-23-60.1,12.3-41v-18.8s11.4,0,11.4,0ZM307.8,281.6c-12.1,1.1-13.4,23.3,3.5,20.3,10.7-1.9,7.1-21.3-3.5-20.3Z"/>
  <path class="st1" d="M270.6,232.5h-28.4c.5,9.7,15.4,3.5,21.7,3.7,10.6.3-.1,9-4.2,10.9-25.8,12.2-44.1-25.3-22-38.7,18.4-11.1,36.1,4.3,32.8,24.1ZM257.4,223.1c0-8.8-12.3-9.9-15.1-2.8-2.1,5.2,13,1.9,15.1,2.8Z"/>
  <path class="st0" d="M478.1,308.7c-22.6,21.1-53.1-17.8-26.8-35,23.4-15.4,45,18,26.8,35ZM459.3,283.5c-7.3,2.2-7.2,15.9,0,18.1,16,4.7,19.3-23.8,0-18.1Z"/>
  <path class="st1" d="M344.4,286.8c-3-.7-7.8,2.4-7.6-2.8.5-17.7,29.9-20.1,33.7.5.8,4.3,1.3,24.4-.4,26.9-10,2.2-33.3,8.2-35-6.8-.9-7.8.6-14.5,9.3-15.8,4-.6,7.5.2,11.3,1,4.6,1,1.5-7.8-.9-8.5-4.3-1.2-7.1,4.1-10.4,5.6ZM346.3,298.1c-4.2,6.1,9.4,11.2,11.3,4.6s-9.9-6.7-11.3-4.6Z"/>
  <path class="st1" d="M230.9,286.8c-3-.7-7.8,2.4-7.6-2.8.5-17.7,29.9-20.1,33.7.5.8,4.3,1.3,24.4-.4,26.9-3,4.2-9.4,0-13.1.4s-5.2,3.5-9.5,3.2c-16.2-.9-17.2-24.1-3-26.3,4-.6,7.5.2,11.3,1s1.5-7.8-.9-8.5c-4.3-1.2-7.1,4.1-10.4,5.6ZM232.8,298.1c-4.2,6.1,9.4,11.2,11.3,4.6s-9.9-6.7-11.3-4.6Z"/>
  <path class="st0" d="M285.8,206.2v27.2c0,3.7,11.4,3.7,11.4,0v-27.2h11.4v34.7c0,.5,2,1.9,1.7,3.5-1,5.7-11.2,1.7-14.1,2-6.3.7-12.9,7.3-19.6-2s-7-36-.9-38c3-.9,7,0,10.1-.3Z"/>
  <path class="st0" d="M263.1,271.8h22.7c2.1,13-1.9,9.8-7.4,14.2s-3.1,19.3-3.9,27.1h-11.4v-41.3Z"/>
  <path class="st1" d="M437.1,271.8v41.3c-2.7.3-13.2.5-13.2-2.8v-38.5h13.2Z"/>
  <path class="st1" d="M365.2,253.1c-2.2,8.2-7.6,15.2-17,13.1,1.9-10.1,5.9-15.2,17-13.1Z"/>
  <rect class="st1" x="423.9" y="254.9" width="13.3" height="11.3"/>
  <path class="st2" d="M79.1,230.9c18-3.4,27.4,22.6,10.6,31.3-23.9,12.3-34-26.9-10.6-31.3Z"/>
</svg>