<?xml version="1.0" encoding="UTF-8"?>
<svg id="Camada_1" xmlns="http://www.w3.org/2000/svg" version="1.1" xmlns:xlink="http://www.w3.org/1999/xlink" viewBox="0 0 512 512">
  <!-- Generator: Adobe Illustrator 29.2.1, SVG Export Plug-In . SVG Version: 2.1.0 Build 116)  -->
  <defs>
    <style>
      .st0 {
        fill: #f24607;
      }

      .st1 {
        fill: #fa6303;
      }

      .st2 {
        fill: #f85a04;
      }

      .st3 {
        fill: #f03d08;
      }

      .st4 {
        fill: #fa6e15;
      }
    </style>
  </defs>
  <path class="st1" d="M289.4,113.4c-3.2,14.8-.7,30.5-1.5,45.7-20.3-17.9-52.8-14.4-69,6.9-1.2,1.6-7.6,12.2-7.6,13v103.8c-19.3,1.6-40.6-15.4-42.7-34.6-3.4-29.9,10.6-69.4-17.2-90.3-21.5-16.2-49.9-13.3-66.7,7.9s-10.3,17.2-10.3,22.1v93.5c-19.7.7-37.8-14.9-39.8-34.6s-2-70,5.2-87.6c24.8-60.6,106.9-71.2,148.7-22.2,26.1-29,64.6-39.8,100.9-23.5Z"/>
  <path class="st2" d="M289.4,113.4c33.1,14.8,49.1,35.5,54.5,72.9.7,4.6-.5,9.8.1,14.6,1.6,12.4,6.7,20.1,16.1,28.1,2.4,2.1,9.2,7,11.8,8.1,0,13.8.6,27.6-1.5,41.2-30.8-7-56.6-32.4-64.4-63-5.5-21.9,1.3-39.1-18.1-56.3.8-15.1-1.7-30.8,1.5-45.7Z"/>
  <path class="st3" d="M435.2,119.3c56,33.5,58.2,108.8,4.4,145.8-5.1.2-4.1.9-4.4-3.6-1.2-15.3,1.9-31.4-1.5-46.5,2.6-5.2,4.8-18.4,4.5-24.3s-6.3-17.7-6-22.8,1.5-1.7,1.5-3.6c0-14.9-1.3-30.6,1.4-45Z"/>
  <path class="st0" d="M435.2,119.3c-2.7,14.5-1.4,30.2-1.4,45s-1.5,3.3-1.5,3.6l-14.8-13.9c-12.8-8.9-34.6-10.6-48.5-3.8-4.5.8-2.8-2.3-2.9-5.1-.5-11.5.3-23.2,0-34.7,28.8-8.1,44-6.3,69.2,8.8Z"/>
  <path class="st0" d="M433.7,215c3.4,15.1.3,31.2,1.5,46.5.4,4.5-.7,3.8,4.4,3.6-21.2,14.6-43.6,19.1-69.2,13.3,2.1-13.6,1.5-27.4,1.5-41.2,21.3,9.3,51.4-1.4,61.9-22.1Z"/>
  <path class="st1" d="M330.6,324c-2.7,2.4-2.7,4.3-7.4,6.6-6.2,3.1-13.8,4.2-20.6,3.7v-101.6c3.4-.8,2.4.6,3.4,1.9,7.5,9.7,16.3,23.8,24.6,32-2.4,18.3-2.4,39.2,0,57.4Z"/>
  <path class="st4" d="M103.8,402.1h-7.4v-25.8c0-3.1-6.1-10.5-9.6-11.1-4.8-.8-13.9,3.4-13.9,8.1v28.7c-14.9,3.1-7-18.8-8.9-28.7-2.5-12.9-22.1-7.9-22.1,0v28.7c-2.1.4-8.8,0-8.8-2.2v-39.8c0-5.4,10.1.5,10.8.5,1.6-.1,3.7-2.3,6.2-2.6,11.8-1.6,18,7.2,19.1,7.2s7.3-8.9,19-7.2c5.3.8,15.6,8.9,15.6,13.9v30.2Z"/>
  <path class="st2" d="M366,110.5c.3,11.5-.5,23.2,0,34.7.1,2.8-1.5,5.9,2.9,5.1-.7.4-11.6,9.2-12.6,10.3-2.9,3.1-4.3,7.3-7.3,10.3-5.9-13.6-11.3-27-19.9-39,7.2-8.6,19-16.4,29.8-20.3,2.6-1,5.2-.5,7-1Z"/>
  <path class="st0" d="M444,366.7c-1.8,1.2-1.7,7.3,2.5,8.5,9.8,2.9,32.1-5.9,32.4,13.1,0,5.2-5.6,13.7-10.6,13.7h-33.1c-.4-2.1,0-8.8,2.2-8.8h29.5c4.3,0,4.3-10.3,0-10.3h-23.6c-6.8,0-11-14.6-5.8-20.6s6.9-4.5,7.3-4.5h30.9c2.9,0,2.9,8.8,0,8.8-4.6,0-30.4-.9-31.7,0Z"/>
  <path class="st4" d="M286.4,383h-33.9c-.3,0-.3-5.9,0-5.9h25c-7.3-29.2-46.8,1-23.5,15.4,13.3,8.2,25.2-5.5,27.2-5.1,9.3,2-4.2,13.5-11.9,14.6-40.5,5.8-38.3-48.6-1.5-43.9s20,11.7,18.5,24.9Z"/>
  <path class="st4" d="M196.6,360.1c1.5-4.8,22.7-1.7,27.5.5,18.1,8,16.4,34.9-3,40.3-4.3,1.2-15.2.7-15.7,1.2-1.7,1.7,4.7,16.7-8.8,13.3v-55.2ZM203.9,394.7c11.1,1.1,25.2.3,25.2-14s-25.2-17.7-25.2-13.3v27.2Z"/>
  <path class="st4" d="M329.1,347.6v52.3c0,4.4-23.2,1.9-27.8-.2-13.9-6.1-16.4-26.1-5.3-35.9s23.4-5,24.3-5.9c1.3-1.3-3.7-13.3,8.8-10.3ZM321.8,365.3c-9.1-.4-20.3-1.1-23.9,9.2-7.5,21.8,23.9,23.2,23.9,18v-27.2Z"/>
  <path class="st4" d="M383.6,347.6v54.5h-21.4c-4.1,0-12.6-6.3-14.9-10.1-8.8-14.4-.5-30.5,15.6-33.4,11.3-2,15,4,13.3-11h7.4ZM376.3,365.3c-32.4-4.2-33.1,33.3,0,29.5v-29.5Z"/>
  <path class="st2" d="M405.4,358.3c33.6-5.6,37.3,38.4,12.6,43.5-35.4,7.3-40.4-38.8-12.6-43.5ZM405.3,365.6c-13.4,3.1-13.4,25.8,0,28.8,28.8,6.6,27.9-35.2,0-28.8Z"/>
  <path class="st4" d="M146.5,399.9c-.7,2.3-5.8,2.8-7.9,2.2s-1-3-1.7-3c-3.8,0-8.2,4.8-17.3,2.7-4-.9-12.8-10.3-12.8-13.7v-28c0-2.9,8.8-2.9,8.8,0v28c0,5.9,11.9,8.4,17,5.3,1-.6,5-6.1,5-6.7v-26.5c0-2.9,8.8-2.9,8.8,0,0,7.8,1.6,34.7,0,39.8Z"/>
  <path class="st1" d="M183.3,400.6c-.3,0-2.4,1.7-5,1.6-6.8-.2-13.6-2-16.7-8.6-2.6-5.6-2.8-33.8-1.9-41s3.1-5.2,8.9-5.1c.4,2-.5,9.8,0,10.3.9.9,13.4-2,14.7,2.2,2.6,8.1-13.7,4.1-14.7,5.1s-.2,22.9.8,25c2.3,5.3,9.1,4.7,14,4.5-.3,1.7.2,4,0,5.9Z"/>
  <rect class="st4" x="149.4" y="347.6" width="8.8" height="54.5"/>
  <path class="st2" d="M338,272.5c-2.4,11.2-1.9,24.6-1.5,36.2s-1.5,5.9,2.9,5.1c-4.1,6.9-3.6,5.6-8.8,10.3-2.4-18.3-2.4-39.2,0-57.4.8.8,5.2,3.9,7.4,5.9Z"/>
  <path class="st4" d="M183.3,394.7c2.3-12,1.4-24.4,1.5-36.8l8.9.9v43.3c-3.5,1-7.5-1.5-10.3-1.5.2-1.9-.3-4.2,0-5.9Z"/>
  <path class="st4" d="M332.1,402.1v-44.2c5.8-.1,8.1-1.2,8.9,5.1s.7,33.8-.3,36.7-5.8,2.4-8.6,2.4Z"/>
  <path class="st0" d="M339.5,313.7c-4.4.8-2.9-2.3-2.9-5.1-.4-11.6-.9-25,1.5-36.2,3.2,2.9,7.9,1.8,8.9,9.5,1.5,11-2.2,22.9-7.4,31.7Z"/>
  <path class="st4" d="M186.4,356.3c-1.1-.7-2.5-6.2.7-7.1,10.2-3.1,6.6,11.7-.7,7.1Z"/>
  <path class="st4" d="M339.3,356.3c-7.3,4.6-10.9-10.3-.7-7.1,3.2,1,1.8,6.5.7,7.1Z"/>
</svg>