<?xml version="1.0" encoding="UTF-8"?>
<svg id="Camada_1" xmlns="http://www.w3.org/2000/svg" version="1.1" xmlns:xlink="http://www.w3.org/1999/xlink" viewBox="0 0 512 512">
  <!-- Generator: Adobe Illustrator 29.2.1, SVG Export Plug-In . SVG Version: 2.1.0 Build 116)  -->
  <defs>
    <style>
      .st0 {
        fill: #131245;
      }

      .st1 {
        fill: #66668f;
      }

      .st2 {
        fill: #2f2d64;
      }

      .st3 {
        fill: #2e2c63;
      }
    </style>
  </defs>
  <path class="st2" d="M163.8,210.7l-.5,4.2c2.8-1.5,7.1,0,10,1,7.3,2.7,12.7,9.9,16.9,15.8-2.5,5.7,5.4,5.9,4.3,12-.1.7-3.4.6-2.1,3.3s4.6,2.2,6.3,2.7c0,.3,0,.7,0,1.1.6,6.6.5,18.2,0,25.3-1.2,19.3-19.4,41.2-39.1,44.9-3.6.7-10.5-.3-14.1.5-.9.2-.3,2.2-2.2,2.2-21.4-.3-40.3-9.8-51.4-27.5l-4.8-15.8c-.5-1.7.2-3.7-2.6-3.1-4.7-28.7,7.5-56.8,36.3-65.4.9-.3,10.2-4.3,10.8-4.3,8.4-.2,24.5.9,32.3,3.3ZM154,224.7c-2.4-1-16.2-1.7-19.2-1.3-5.7.8-17,8-21.3,12-12.4,11.5-14.4,34.5-7.4,49.1,4.6,9.6,12,17.2,21.9,20.3,3,.9,24,1.7,26.5.6s5.7-3.2,6.8-3.9c27-15.7,28.1-55.9,1-72.1-1.6-1-7.6-4.4-8.4-4.8Z"/>
  <path class="st2" d="M229.4,244.4c.2,3.5-.1,7,0,10.5,5-1.8,3.9-6.9,9-10.5,5.8-4.1,7-2,12.7-2s8-2.2,13.5,2,5.8,5.7,6.1,6.1c4.7,6.3,4.1,20.8.4,27.6-3.5,6.3-6,7.4-12.1,9.6-2.5-2.8-10.6,1.6-12.7,0s2.8-1.9,2.1-3.1l-7.4,2.1c-2-1.1-3.9-1.3-5.8-3.2s-4.8-9.5-6.9-8.4c-3.1,1.5.9,54.7-2.1,62.2-3.5.1-8.4.4-11.6,0v-91.7c.4,0,2.1-1,3.6-1.1,3.7-.1,7.5,0,11.2,0Z"/>
  <path class="st3" d="M338.4,194.9c-.6,3.5,1.7,2,4.2,1.1v88.6c-1.8-.3-10.2.4-10.6,0s.3-7.3,0-8.9c.1-1.1-1.4-.6-2.1-.6-3.6,0-2.5,3.5-4.6,6-.4.5-7.1,6.1-7.8,6.5-10.3,6.1-23.2.8-29.5-8.2-4.5-6.4-2.5-8.2-2.5-14.3s-1.1-4-.9-6.1c.5-6.4,9.7-16.7,16.1-17.1s15.5.8,17.9,1.5.2,2.3.8,3,3.3.5,4.5,1.2,4.3,6.6,4.9,7.5-.3,1.9,0,2.1c3,2.5,1.9-4.5,2.1-6.3s1-1.6,1.1-3.6c.5-7.1-1.8-48.4,0-50.2s5.2,1.7,4.2-2.1c.7,0,1.4,0,2.1,0ZM341.6,199.1c-1.5-.8-2.8.7-2.1,1,1.5.8,2.8-.7,2.1-1Z"/>
  <path class="st2" d="M374.9,226.5l23.3,59.1,23.3-59.1h17.5l-29.7,75.3c-2,2.6-19.7,2.2-21.1,1.2s-.6-.8-.8-1.3l-29.8-75.2h17.5Z"/>
  <path class="st0" d="M328.9,255v-62.2s16.9,0,16.9,0c0,2.1,0,4.2,0,6.3l-1.1,1.6,1.1.5c.6,27.2.8,56.2,0,83.3-3.2.6-2-1.6-2.1-3.6-1-28.6.7-57.4,0-86-1.8,0-3.5.1-5.3,0s-1.4,0-2.1,0c-1.8,0-3.5,0-5.3,0v55.9c-.2,1.8.9,8.8-2.1,6.3s.2-1.7,0-2.1Z"/>
  <path class="st0" d="M214.6,245.5v91.7c-.8,0-2.3.5-2.1-.6v-92.2c1.5-.6,2,1.1,2.1,1.1Z"/>
  <path class="st2" d="M338.4,194.9c1.8,0,3.5,0,5.3,0,.7,28.6-1,57.4,0,86s-1.1,4.2,2.1,3.6c0,1.1,0,2.1,0,3.2-12.5-.4-20.5,3.9-15.9-12.7.8,0,2.3-.4,2.1.6.2,1.6-.4,8.5,0,8.9s8.8-.3,10.6,0v-88.6c-2.6.9-4.8,2.4-4.2-1.1Z"/>
  <path class="st0" d="M228.3,275l1.1,62.2c-1.1,0-2.1,0-3.2,0,3-7.5-.9-60.7,2.1-62.2Z"/>
  <path class="st3" d="M198.7,249.7c-1.7-.4-5.6-.9-6.3-2.7-1.2-2.7,2-2.6,2.1-3.3,1.1-6.1-6.8-6.3-4.3-12,4.6,6.3,7.4,9.2,8.5,17.9Z"/>
  <path class="st3" d="M198.7,276c.5-7.1.6-18.7,0-25.3,2.9,5.7,2.5,14.3,2.2,20.6s.2,4-2.2,4.7Z"/>
  <path class="st3" d="M241,286.6l7.4-2.1c.6,1.3-4.6,1.3-2.1,3.1s10.1-2.8,12.7,0c-4.6,1.6-5,2.7-11.1,2.1-4.7-.5-4.4-1.9-6.9-3.2Z"/>
  <path class="st1" d="M212.5,244.4l.6-2.1h16.3c0,.7,0,1.4,0,2.1-3.7,0-7.4-.1-11.2,0-1.6,0-3.2,1.1-3.6,1.1s-.6-1.7-2.1-1.1Z"/>
  <path class="st0" d="M84.4,277.1c2.8-.6,2.1,1.4,2.6,3.1l4.8,15.8c-4.3-6.8-6.1-10.9-7.4-19Z"/>
  <path class="st3" d="M173.3,215.9c-3-1.1-7.2-2.5-10-1l.5-4.2c3.3,1,7.5,2.3,9.5,5.3Z"/>
  <path class="st2" d="M345.8,201.2l-1.1-.5,1.1-1.6c0,.7,0,1.4,0,2.1Z"/>
  <path class="st2" d="M336.3,194.9c.9,3.8-3.6,1.4-4.2,2.1-1.7,1.8.5,43.2,0,50.2s-1.1,3-1.1,3.6v-55.9c1.7,0,3.5.1,5.3,0Z"/>
  <path class="st2" d="M341.6,199.1c.7.4-.6,1.8-2.1,1s.6-1.8,2.1-1Z"/>
</svg>