<?xml version="1.0" encoding="UTF-8"?>
<svg id="Camada_1" xmlns="http://www.w3.org/2000/svg" version="1.1" xmlns:xlink="http://www.w3.org/1999/xlink" viewBox="0 0 512 512">
  <!-- Generator: Adobe Illustrator 29.2.1, SVG Export Plug-In . SVG Version: 2.1.0 Build 116)  -->
  <defs>
    <style>
      .st0 {
        fill: #efe93d;
      }

      .st1 {
        fill: #306c6e;
      }

      .st2 {
        fill: #306d71;
      }

      .st3 {
        fill: #44797e;
      }
    </style>
  </defs>
  <path class="st2" d="M158.5,292.9c-34,32.7-92.2,18.5-112-23.3-27.8-58.8,30.5-121.9,91.7-98.6s41.1,26.5,40.9,46.8c-5.1-6.1-17-16.1-25.1-16.1h-36.7v66.1h36.7c6.7,0,19.2-8.7,23.2-14.4s2.1-8.9,6.3-10.6c1.7,12.4-5.2,22.8-8.9,34h-57.3v16.1h41.2ZM70.2,202.2c-24.6,4.2-35.5,34.1-20.2,53.2,15.5,19.3,47.8,16.9,59.3-5.3,14-27-10.7-52.8-39.1-47.9Z"/>
  <path class="st1" d="M373.6,241.1c1.3,3.3,6.7,6.3,7,8.3,1.7,8.8-33.8,17-45-1.7-.9-1.6-4-14-6.8-10.2s0,6.8-1.4,10.3c-4.7,11.4-23.1,14.7-32.7,7.6-.8,4.6,1.8,18.2-1.7,20.7s-19.8,1.5-19.8-1.9v-43.8l-10,19.5c-26.6,24.5-71.5,2.1-60-34.8,10.3-33,65.4-27.4,68.2,6.4,3.7-.9.9-8,2-11.4,1.5-4.5,12.4-3.2,16.7-2.8s4,2.6,5.5,2.7c2.9.3,7.8-3.3,14.1-2.7,12.2,1.1,16.6,8.1,19.1,18.6s4.1-2.8,5.5-5.1c13.2-22.3,48.9-17,50,9.6,0,2.4,0,4.8,0,7.1-3.6,0-7.2,0-10.8,0s-21.6-.7-21.5.9c.3,10.5,15.8,4.7,21.5,2.7ZM235.1,209.3c-15.2,2.4-17.2,29.9-1.8,33.3,23.9,5.2,23.8-36.7,1.8-33.3ZM364.6,228.6c5.9-6-16.2-13-11.6,0,2.3-.4,11,.6,11.6,0ZM299.6,223.6c-8.7,2.6-6.8,23.5,6.5,19.1s7.1-23.1-6.5-19.1Z"/>
  <path class="st2" d="M387.9,230.4c0-7.1,0-14.3,0-21.5,5.4.9,13.8-1.3,18.6,0,1.8.5.6,4.2,2,3.6,7-2.8,8.6-7.4,19.3-5,5.7,1.3,13.8,11.5,13.8,16.6v34.9h-21.5v-31.3c0-4.7-12.5-2.3-12.5,1.8v29.5h-19.7c0-7.1.1-14.3,0-21.4s0-4.8,0-7.1Z"/>
  <path class="st0" d="M441.7,275.1c-.1,3.4,1.2,17.9-2.7,17.9h-105.7c-3.9,0-3.9-17.9,0-17.9h108.4Z"/>
  <path class="st2" d="M137,253.6v-35.7c35.5-7.3,33.3,42.2,0,35.7Z"/>
  <path class="st3" d="M423.5,309.3c1.2.8,3,11.4,3.9,12.3,4.6,4.5,3.8-12.2,9.8-12.5,2.7-.1,3.2-.4,2.7,2.7s-9.1,23.6-10.7,25.1c-8.3,8.4-19-2.9-3.7-3.7l-7.2-22.3-8.7,6.4-.2,15h-5.4s0-23.2,0-23.2c4.8,2.2,16.4-1.7,19.5.2Z"/>
  <path class="st3" d="M276.1,302.1c18.7-6.1,34.7,15.3,19.5,26.6-4,3-18.8,6-21.7,1.9s-2.2-27,2.2-28.5ZM278.6,307.2c1,7.2-3.9,19.8,6.2,19.8,16.9,0,12.4-25.9-6.2-19.8Z"/>
  <path class="st3" d="M324.8,311.2c2.4,2.4,2.2,8.7,2.2,12.1h-16.1c2.6,6.4,8.8,2.2,13.4,1.8,4.5.2-5.5,13.1-16.1,3.6-13.4-12,7.3-26.8,16.6-17.5ZM321.6,318c.3-7.5-11.1-7.5-10.7,0h10.7Z"/>
  <path class="st3" d="M398.7,323.3h-16.1c1.6,7.2,13.8,1.1,14.3,1.8,6,7.1-17.4,11.7-19.7-1-3.9-21.2,25.9-21.1,21.5-.8ZM393.3,318c.3-7.5-11.1-7.5-10.7,0h10.7Z"/>
  <path class="st3" d="M357.2,309.3c1.8,1.1,2.9,13,7.4,14,1.6-5.2,1.7-16.6,9-14.3,1.4,1.4-6.2,22.5-7.3,23.2-7,4.7-15.3-22.1-14.2-23.2s4.3-.2,5.1.3Z"/>
  <rect class="st3" x="343.1" y="309" width="5.4" height="23.3"/>
  <rect class="st1" x="332.3" y="300.1" width="3.6" height="30.4"/>
  <path class="st2" d="M77.3,218.4c21.3-1.1,19.5,39.7-3,32.7s-13.6-31.8,3-32.7Z"/>
</svg>