<?xml version="1.0" encoding="UTF-8"?>
<svg id="Camada_1" xmlns="http://www.w3.org/2000/svg" version="1.1" xmlns:xlink="http://www.w3.org/1999/xlink" viewBox="0 0 512 512">
  <!-- Generator: Adobe Illustrator 29.2.1, SVG Export Plug-In . SVG Version: 2.1.0 Build 116)  -->
  <defs>
    <style>
      .st0 {
        fill: #9c1213;
      }

      .st1 {
        fill: #388526;
      }

      .st2 {
        fill: #500e0f;
      }

      .st3 {
        fill: #c22525;
      }

      .st4 {
        fill: #fefefe;
      }

      .st5 {
        fill: #cecdce;
      }
    </style>
  </defs>
  <path class="st5" d="M345.6,163.5c.2,2.3.6,4.1.9,6.4s.9,1.6.9,1.8c.6,4.3,1.2,9.9.9,14.2s-3.5,12.4-3.6,17.8c-4.9,6.6-9.3,12.9-15.5,18.3-1-3.3.6-5.4-.9-8.2,5.6-3.3,10-13.2,11.9-19.2,3.3-10.6,3.7-15.7.7-26.7-.8-2.9-5.3-12-5-13.8.4-2.7,15.5-19.1,18.5-21.7s7.5-4.2,7.8-4.6-.9-2.6-1.5-2.8c-1.3-.3-5.4.4-5.8,0s.2-6.9,0-8.6c-.4-2.6-3.6-7-5.6-8.5s-1,.5-1.4.3c-1.3-.7-1.7-2.4-5.3-2.3-5.3.2-10.9,7.8-10.3,12.8s5.4,8.4,5.1,12-6,9.7-9.5,11.4c-7.1-5.4-14.6-13-23.8-14.3-4.4-.6-12.6-.7-16.9,0-2.4.4-9.6,2.4-9.7,5,0,1.7,11.4,8.5,13.6,10.8,5,5,9.4,14.2,12.3,20.6,4.8,10.6,5.9,20.2,9.6,31.1-1.1-2.4-5.5-1.6-8.2-2.7-1.2-3-2.4-5.1-3.7-8.2-.7-1.8-1-5.1-1.8-7.3s-.8-.6-.9-.9c-2.2-9.3-5.9-21.3-11.9-28.8s-10.9-12.1-15-11.2c-5.5,5.3-11.3,11.8-17,16.7-11.9,10.2-25.3,17.7-38.4,26-5,2.4-11.6,6.3-16.5,8.2s-1.6.5-2.7.9-.6-.1-.9,0c-8.8,3.4-25,7.2-32.1,11.3-13.2,7.6,11.8,22,17.5,25.2,6.2,3.4,10.9,5.5,17.4,8.2v5.5c-8.5-2.1-1,2.1,0,5.5l-9.1,4.6,7.3-.9c-1,11.5-2,33.7,6,42.9,3.2,3.7,9.7,3.6,7.7,11.5l1.8-1.4c0,3.9-.1,7.9,0,11.9s.5,22.7,1.3,23.8c1.4,2,10.6.4,12.4-1s1.8-2.4,1.9-4.1c.2-3.9-.9-10.4-1-15.1l2.7-3.7c2.6-.8,1.8,2.2,3.2,2.7,2.4.9,2.1-1.4,3-1.8,5.9-2.2,13.1-2.5,19.4-5.1,3.6-1.5,13.7-9.6,15.1-9.6s2.4,1.8,3.9,2.5,2.6,0,2.9.3c.8.8-.8,16.5.2,19.5s3.7,1.5,5.4,1.5c0,2.6-.7,13.2.9,14.2s13.1.7,13.8-2.3.7-5.6.9-7.3c.9-.5,4.2-.6,4.5-1,1-1.1-1.3-7.9,1-9,.6,4.9-1.2,11,.9,15.5,0,.6,0,1.2,0,1.8s0,.6,0,.9c-1.3,5.2-4.3,6.3-8.4,8.3s-.7,1.5-.9,1.5c-1.2.5-8.1-.4-9.8-.7-3.7-.7-5.5-2.4-7.3-2.7-.6-2-1.1-5.5-2.8-6.8-2.5-1.9-17.7-4.9-21.4-5.1-2.1-.1-17.2.3-17.9.9s.3,2.9,0,3.7-1.6,4.4-1.8,4.6-1.8-.2-2.7.5-.9,2.4-1.9,3.2c-2.1,1.9-7.3,1.9-10.1,1.8s-3.1,0-4.8-.2-5.8-3.1-7.1-.7c-2.2,4.1-2.3,1.8-3.7,2.8s.9,1.4.9,1.8c-4,1.2-5.4,2.8-7.3,6.4-1.2-1.1-4.2.3-1.7-4,1.3-2.2,1.8-1.6,2.6-4.3,1.1-3.8,6.2-4.9,10.1-4.6-3.5-7.7-2.4-16.4-2.7-24.7,0-1.5.2-3.2,0-4.6-.4-2.2-5.4-10.5-7-10.9-.8-.3-1,.8-1.2.9-2.2.7-3.8,2-5.5,2.7s-7.2,3.3-8.2,3.7-1.3-.7-2.5-.3c-10.7,3.1-19.4,5.5-30.4,1.2s-11.2-7.5-14.1-11.1c-3.3-4.2-7.6-15.6-11.2-18.1s-12.2-3.3-16.8-1.9c-12.5,3.7-8.7,17.9-11.9,27.4-.2.1.1,2.1-2.3,2.7s.2-2.3-1.4-1.8c.5,5.8-6,2.8-9.6,2.7s-5,2.5-9.7-2.2-2.6-12.4-4.5-19.2l-1.8-53c-.4-3.9-6.4-1.1-7.6-4.3s-2.3-14.8-1.1-17.2c1.4-2.9,24.1-6.1,28.4-6.4,14.4-1,32.4-.4,44.3,7.8,5.3,3.7,9.1,9.6,10.6,15.9s-.2,4.9,1.3,6.4v9.1c4.3-1,7.6-3.6,12.1-4.8,8.6-2.3,16-2.3,24.5.7,3.7,1.3,6.8,4.6,11,4.1.4-1.5-1.5-.5-1.7-1.3s2.8-5.3,1.6-6.8-2.2-.3-2.9-1c-3.4-2.8-7.1-4.3-10.7-6.4-6-3.6-18.2-10.6-21.9-15.5-.2-.2-2.6-4.3-2.7-4.6-3.6-8.7.5-14.8,7.9-19.1,1.7-1,4-.7,4.7-1.2s.8-2.4,1.6-3.4c6.9-8.7,11.9-14,20.5-21.1.9,6.4-6.5,9.4-10.5,13.7-.7.7-6.6,7.7-5.9,8.2,5-.8,10-2.4,14.8-3.9,33.3-10.4,50.6-24.4,75.7-47.3s30.9-18.3,50.3-10.5c5.4,2.2,9.6,6.8,15.6,5.9.4-4.6-2.4-8.6-2.4-13.1,0-14.5,15.8-22.9,27.9-14.7,3.2,2.2,12,15.6,13.5,19.4,1,2.5,2.1,5.6.3,8.1s-9.7,7.7-12.4,10.4c-3.3,3.3-8.8,8.5-9.5,13.3-.5,3.5.6,5.1.9,7.7ZM82.2,209.2c-3.8-.5-3.8,1.3,0,.9v-.9ZM129.8,247.6c6.7-28.5-18.4-33.1-40.7-32l-26,3.7v4.5c10.5-1.1,8.8,4.1,9,11.9.6,19.5.9,40.1,2.7,59.4.3,3,1.4,6,.9,9.1,4.9-.6,15.7,2.1,15.6-5s-1.1-18.3-1.9-25.1c-.2-1.6,0-3-.9-4.6,10.4-1.3,23-1.4,31.8-8,4-3,8.7-8.8,9.4-13.9ZM143.5,297.8c10.1,10.1,22,8.6,35,4.3,2.4-.8,9.9-3.2,9.9-5.7,0-3.9-5.5-1.4-7.8-1.3-4.7.1-9.5,0-14.2,0-8.9-1.6-15.4-10.4-15.5-19.2l33.7-2c5.6-20.9-9-31-28.5-24.4-20.5,7-28.4,32.4-12.5,48.2Z"/>
  <path class="st5" d="M204.8,348.1c9.1-2.7,5.1,0,5.6,2.2.4,1.6,5.8,2,2.6,7.8,5.7-4.9,7.9-3.8,5.5,3.7,1.3-.6,3.2-4.1,5-3.7s1.2,2.5,1.5,2.7c.4.3,8.1-2.4,8.1,3.8,0,.9-2.8,8.3-3.2,8.2-5.7-1.4-13.8-5.3-4.1-8.3.3-.3-2-2.7-2.3-2.7-1,0-11.2,12-8.7.9l-4.6,2.7c-1.8-4.2-.4-7.7,0-11.9-6.8-.5-4.2,6.1-4.6,6.4-1.8,1.7-4-2.4-4.6-2.7,1.6-3.4,4-5,3.7-9.1Z"/>
  <path class="st5" d="M329.2,222.9c3.2,3.5,15.6,30.2,18,31,4,1.3,11.2-4.9,14.9-6.8,7.6-3.8,20.9-8.1,29.3-7.8,4,.2,7.4,4.6,12.4,4.6,6.2,0,15.1-4.1,21.9-4.6s8.7.9,13.2.9c-.5,2.7,1.4,1.8,3.2,1.8,4,0,7.5-.9,11.5-.9,23.7-.3,20.9,28.1,3,30.8-2.7.4-9.5-.3-11,1.4-3.2,3.7,1.5,26.3-5.7,34.1-4.4,4.8-16.3,5-22,2.3l1.8-1.4c-2.8-2.5-6.4-2.1-5.5-6.9h-.9c.1.7.1,1.4-.7,1.8-6.9,3.3-20.1,7.3-27.7,8.3s-7.9.9-14.6-.9c-3.4-.9-9.7-3.1-12.3-5.5s-7.1-9.4-8-9.9c-2.5-1.5-5.1.6-7.1,1.6-3,1.6-2.8,2.4-4.6,3.7-3.1,2.2-5.6,3.6-9.1,5.5s-.7.8-.9.9-.7-.1-.9,0c-.2-5-5.6-.5-8.4.3s-13.2,3.5-13.9,3.4c-1-.2-2.2-2.3-.5-3.2s4.2-1,5.5-1.3c8.6-2.2,9.7-1.2,17.4-6.4,15.5-10.4,19.6-26.1,9.5-42.9-3.2-5.3-3.5-3.7-7.4-6.1s-1.8-2.8-3-3.1c0-1.4-.4-3.7,1.4-4.3s5,1.4,2.3-1.2-7.6-1.7-8.7-1.8c-3.7-.3-6,.5-9.3.8s-3.3.8-3.1-.8l7.3-.9c.7-2-1.8-3.6-1.8-5,0-2.1,5.4-5,7.2-6.5s2.9-5.1,7.4-4.9ZM365.7,255.8c-6,4.7-5.7,3.8-8.2,11-1.9,5.3-3.1,8.7-2.7,14.6.5,8.8,5.1,17.2,12.9,21.4,12.2,6.6,28.1-.4,40.2-4.1-1-8-3.4-6-9.1-4.6s-1.2.7-1.8.9c-.6,0-1.2,0-1.8,0-7-.3-12.1,1.3-18.2-3.3-3.5-2.6-7.7-10.2-6.5-14.5s30.3-2.5,34.7-3.4c6.5-28.1-20.4-33-39.2-18.2ZM439.6,249.6c-2.5-2.9-23.3,1.9-23.6,3.1s.2,2.8,0,4c3.2,0,7.4-1,8.2,3.2-.3,14.8-1.1,29.8-1.4,44.4,1.4,1.9,14.4.4,15-1.6l2.4-41.5c2.1-1.9,9.3-4.9,11-1.8,2,3.6-2.4,7.1,6.4,6.4s11.5-15.1,3.4-17.1-7.9,1.7-12.4,1c-2.1,3.2-6.8.6-7,4.3-1.9,0-1.2-3.3-2-4.3Z"/>
  <path class="st0" d="M342.9,296.9c2-1.1,4.6-3.1,7.1-1.6s6.4,8.5,8,9.9c2.6,2.4,9,4.6,12.3,5.5-1.5,5.3,9.3,3,10.1,3.7-5.2,17.8-18.8,30.5-31.1,43.4-.9,1-1.2,2.5-1.8,3.2-3.1,3.5-16.8,13.6-21,14.6.2-3.9-2.1-.9-3.7,0-2.9.2-4.2-1.2-5.5,2.3,2.7.7,4.2-1.5,5.5-2.3.9,0,1.9.1,2.7,0-2.4,1.8-6.2,4.1-9.1,4.6.6-2.8-1.5-1.7-3.7-1.8v1.8c.9,0,1.8,0,2.7,0-1,2-3.1,1.4-4.6,1.8,2.1-2.7-.7-2.1-2.2-1.7-6.2,1.3-12,3.9-18.6,5.1-4.6.8-10,.6-14.2,1.4s-3.6,1.2-3,2.5h7.8c-22.9,2.5-41.4-1-62.2-10,.9-1.8,1.8-1.7-.3-2.9s-6.9-4.1-8-1.6l5.5,3.7c-12.3-5.7-19.2-10.6-29.3-19.2,1.4-1.7,0-2.1-.9-3.2-3.8-4.3-8.7-8-12.4-12.3-6.9-8.1-14.5-19.2-17.8-29.3h14.2l14.2-3.7c.3.9,2,2.5,1.4,3.6l-26.1,1.9c-.2,1,0,1.8.4,2.8.6,1.8,14.6,18.8,16,19.6s.9.6,1.8.4l-.9-5.9c.3-1.4.9.5.9.4.9,4.9,4.4,9.8,9.1,5.5h.9c-5,8.4,6.3,13.7,10.1,7.3h.9c-.8,2.6-1.3,2-2.6,4.3-2.5,4.3.5,2.9,1.7,4,1.8,1.6,1.8,1.5,3.7,2.7s2.7,4.4,4.6,2.7-2.2-6.9,4.6-6.4c-.4,4.2-1.8,7.7,0,11.9l4.6-2.7c-2.5,11.1,7.6-.9,8.7-.9s2.6,2.4,2.3,2.7c-9.7,2.9-1.6,6.9,4.1,8.3.4,0,3.2-7.4,3.2-8.2h.9l-1.9,8.6c5.1,4.4,3.9-2.6,5.7-5.8h3.5c.5.9-3.8,7.7,2.7,9.6,5.3,1.6,8.2-3.9,6.4-7.8,2.1,2,4.5,2.1,7.3,1.8,0,.2,2.4,1.2,1.8,1.8s-2.1,0-2.6,1.5c-2.4,6.7,5.9,4.1,9.9,4.9-1.4-2.9-.4-6.7-.9-9.1,1,0,1.8-.6,2.7-.9,0,2.2-.1,12.9.9,13.7s2.6.1,2.7,0c.3-.3-.3-3.4,0-3.7.6-.6,4.8,1.9,6.6-3.9.8-2.6.2-3.7-.2-6.1.5.1,1.2,0,1.8,0,0,1.8,1.8,12.5,3.2,12.8,3.8,0,1-4.3,1.4-4.6s2.4,0,3.6-.5c2.7-1.2,3.4-5.1,2.8-7.7l.9-.9c.2,1.1,1.7,7,1.9,7.3s2.6-.8,3.6,0c.4-.5-2.2-11.9-2.7-13.7,3.3-3.7,5.3-4.4,6.4.9-1.3.3-3.9-1.1-3.6,1.3.3,3.1,2.6,6.6,3.2,9.7l3.2-.9c-.8-3.1-1.9-6.1-2.7-9.1h1.8c.4,9.1,11.8,9.8,11,0-2.4-.6-2.5,2.5-3.6,3.2-2.7,1.7-4.2-1.5-3.6-3.6s4.8-.9,5.4-3.3h.9c0,0,1.3-.2,1.5.2.9,1.7.7,4.7,2.7,6.2.7.1,7.1-3.8,8.6-4.6s2-.1,3.7-1.8,1.6-2.3,1.8-3.7c.6,0,1.3,0,1.8,0,3.3-.6,1.9-1.8,2.7-2.7s3.6.8.9-3.7c5.1,1.2,8.1-1.2,7.3-6.4,5,2,3,.1,3.7-.9s2.2-1,1.8-2.7c.8.3,3.4-.3,3.7,0,.7.7-2.7,8.7-2.8,10.5,0,.9,1.1.5,1.9,0,4-2.5,16-20.9,17.4-25.6s1.8-5.1-.4-7.9-11-8-11.7-8.4c-3.5-1.6-7-2.4-8.9,1.1l1.4-6.4c-7,11.2-14.8,22.3-25.1,30.6l2.7.4c.3,4.3-3.9,1.5-4.4,1.9s-.3,2.1-1.6,2.5-3.5-.1-5.2.3c-14,4-28.6,15.2-42.2,16.3-11.9.9-33.3-1.5-42.8-9.2s-1.6-2.5-2.5-3.7c.9-.8,1-2.5,1.9-3.2s2.6-.4,2.7-.5c4.2,2.1,7.6,5.7,12.2,7.5,13.7,5.3,20.7,4,33.5-.7,1.8-.7,4.3.2,5.5-1.3,1.8.3,8.6,1.2,9.8.7s.3-1.2.9-1.5c4.2-2,7.2-3.1,8.4-8.3,3.9,1.9,12.5-2.5,15.9-4.7,6.7-4.3,17-18.8,20.6-26.1s2.2-4.8,2-7.6ZM207.1,371.9v.9c.6-.3.6-.6,0-.9ZM220.8,378.3v.9c.6-.3.6-.6,0-.9ZM224,379.2c-1.3-.7-2.4.6-1.8.9,1.3.7,2.4-.6,1.8-.9ZM271.5,387.4c-15.9.3-31.3-3.5-46.6-7.3,1.3,1.8,5.2,2.6,7.3,3.2,9.9,3,20.3,4.7,30.6,5.4l8.7-1.3Z"/>
  <path class="st1" d="M354.8,177.2c-.3-.3-.6-.6-.9-.9.3.3.6.6.9.9Z"/>
  <path class="st1" d="M351.1,173.5c-.9-.6-2.8-.7-3.7-1.8,0-.3-.8-1-.9-1.8,2.6,0,3.2,2.3,4.6,3.7Z"/>
  <path class="st1" d="M352,174.4c-.3-.3-.6-.7-.9-.9.3.3.6.6.9.9Z"/>
  <path class="st1" d="M352.9,175.4c-.3-.3-.6-.7-.9-.9.3.3.6.6.9.9Z"/>
  <path class="st1" d="M353.8,176.3c-.3-.3-.6-.6-.9-.9.3.3.6.6.9.9Z"/>
  <path class="st1" d="M355.7,178.1c-.3-.3-.6-.6-.9-.9.3.3.6.6.9.9Z"/>
  <path class="st1" d="M356.6,179c-.3-.3-.6-.6-.9-.9.3.3.6.6.9.9Z"/>
  <path class="st1" d="M357.5,179.9c-.3-.3-.6-.6-.9-.9.3.3.6.6.9.9Z"/>
  <path class="st1" d="M358.4,180.8c-.3-.3-.6-.6-.9-.9.3.3.6.6.9.9Z"/>
  <path class="st1" d="M359.3,181.8c-.2-.3-.7-.6-.9-.9.3.3.6.6.9.9Z"/>
  <path class="st1" d="M360.2,182.7c-.2-.3-.7-.6-.9-.9.3.3.6.6.9.9Z"/>
  <path class="st1" d="M360.2,182.7c14.9,17.3,22.1,30.8,28.8,53,.5,1.5-.2,3.2,2.3,2.7v.9c-8.4-.3-21.7,4-29.3,7.8s-10.9,8.1-14.9,6.8-14.8-27.4-18-31c-.1-.2,0-.6,0-.9,6.3-5.4,10.7-11.7,15.5-18.3,0,1.7-.2,2.8.5,4.5s7.9,9.2,9.1,9.2c5.3,0,7.6-18.4,7.8-22.4s.5-8.1-1.8-12.3Z"/>
  <path class="st1" d="M261.5,137c-25.1,22.9-42.4,36.9-75.7,47.3-4.8,1.5-9.8,3.2-14.8,3.9-.6-.6,5.2-7.5,5.9-8.2,4.1-4.3,11.4-7.2,10.5-13.7,21.3-17.5,46.1-28.4,74.1-29.2ZM193.9,174.3c1.2.7,21.7-10.7,24.6-12.2s25.5-13.2,25.6-14.6c0-4.1-13.9-.1-16.6.7-8.6,2.6-13.7,6.4-20.6,10.7-5.9,3.6-11.8,7.2-17.6,11-.7,2.7,2.1,1.9,3.9,2.8s.7,1.6.8,1.7Z"/>
  <path class="st1" d="M155.4,215.6c-3.5,6.9,7.8,17.2,14.3,17.3s5.2-1.8,7.7-1.8c3.6,2.2,7.3,3.6,10.7,6.4s2.7.6,2.9,1c1.1,1.5-2,5.6-1.6,6.8s2.1-.2,1.7,1.3c-4.2.5-7.3-2.8-11-4.1-8.4-3.1-15.8-3.1-24.5-.7-4.5,1.2-7.7,3.8-12.1,4.8v-9.1s9.1-26.5,9.1-26.5c.1.3,2.6,4.4,2.7,4.6Z"/>
  <path class="st2" d="M391.3,238.4c-2.4.5-1.8-1.2-2.3-2.7-6.7-22.2-14-35.8-28.8-53-.3-.3-.6-.6-.9-.9s-.6-.6-.9-.9-.6-.6-.9-.9-.6-.6-.9-.9-.6-.6-.9-.9-.6-.6-.9-.9-.6-.6-.9-.9-.6-.6-.9-.9-.6-.6-.9-.9-.6-.6-.9-.9c-1.3-1.4-2-3.7-4.6-3.7-.3-2.3-.7-4.1-.9-6.4,17.6,13.5,31.9,32,40,52.8,2.6,6.7,5.9,15.3,5.7,22.2Z"/>
  <path class="st2" d="M351.1,173.5c.3.2.6.7.9.9s.6.6.9.9.6.6.9.9.6.6.9.9.6.6.9.9.6.6.9.9.6.6.9.9.7.6.9.9.7.6.9.9.8.6.9.9c2.3,4.2,2,7.6,1.8,12.3s-2.5,22.4-7.8,22.4c-1.2,0-8.6-7.8-9.1-9.2s-.5-2.8-.5-4.5c.1-5.5,3.3-11.9,3.6-17.8s-.3-9.9-.9-14.2c.9,1.1,2.8,1.3,3.7,1.8Z"/>
  <path class="st2" d="M183.7,308.8c.1.6-.2,1.4,0,1.8l-14.2,3.7h-14.2c3.4,10.1,10.9,21.2,17.8,29.3s8.6,8.1,12.4,12.3,2.3,1.5.9,3.2c-.7-.6-2.2-.9-3.2-1.8-14.2-12.9-25.4-29.7-32.5-47.5,11,4.2,19.7,1.8,30.4-1.2,1.2-.4,2.4.3,2.5.3Z"/>
  <path class="st2" d="M384.9,311.5c-8,19-20.9,37.1-37.5,49.4.6-.7.9-2.2,1.8-3.2,12.3-13,25.9-25.6,31.1-43.4-.7-.7-11.5,1.7-10.1-3.7,6.7,1.8,7.8,1.8,14.6.9Z"/>
  <path class="st1" d="M108.8,278.6c-7.5,7.6-2.7,18.8-9.1,26.1-.9,1-2.4,1-2.8,1.3,3.2-9.5-.6-23.7,11.9-27.4Z"/>
  <path class="st2" d="M280.7,389.2h-7.8c-.7-1.4,2.1-2.4,3-2.5,4.1-.8,9.6-.5,14.2-1.4,6.7-1.2,12.5-3.9,18.6-5.1s4.3-1,2.2,1.7c-.3,0-.6,0-.9,0l-1.8.9c-.3,0-.6,0-.9,0l-2.7.9c-.3,0-.6,0-.9,0-1.9.4-4,.1-5.5,1.8-.3,0-.6,0-.9,0l-1.8.9c-4.9,1.1-9.6,2.2-14.6,2.7Z"/>
  <path class="st1" d="M453.5,241.2c-4,0-7.5,1-11.5.9s-3.7.9-3.2-1.8c4.5,0,11.4-3.1,14.6.9Z"/>
  <path class="st2" d="M215.8,378.3l-5.5-3.7c1.1-2.4,6.6.8,8,1.6,2,1.2,1.2,1.2.3,2.9-.8-.3-1.8-.5-2.7-.9Z"/>
  <path class="st0" d="M303.5,383.7c-.8,2.8-3.7,1.4-5.5,1.8,1.5-1.7,3.6-1.5,5.5-1.8Z"/>
  <path class="st2" d="M315.4,380.1c-.9,0-1.8,0-2.7,0v-1.8c2.2.1,4.2-1,3.7,1.8-.3,0-.6,0-.9,0Z"/>
  <path class="st2" d="M322.8,375.5c1.6-.9,3.8-3.9,3.7,0-.3,0-.6,0-.9,0-.9.1-1.8,0-2.7,0Z"/>
  <path class="st2" d="M322.8,375.5c-1.3.8-2.8,2.9-5.5,2.3,1.3-3.5,2.5-2.1,5.5-2.3Z"/>
  <path class="st0" d="M307.2,382.8c-.4.1-1.4.6-2.7.9l2.7-.9Z"/>
  <path class="st0" d="M309.9,381.9c0,0-.5.6-1.8.9l1.8-.9Z"/>
  <path class="st0" d="M297.1,385.6c0,0-.7.7-1.8.9l1.8-.9Z"/>
  <path class="st4" d="M304.5,192.7c2.7,1.1,7.1.3,8.2,2.7,1.7,4.9,4,9.8,7.3,13.7,1.9,2.3,5,6.5,8.2,4.6,1.6,2.8,0,5,.9,8.2s-.1.7,0,.9c-4.6-.1-5.1,3.1-7.4,4.9s-7.3,4.4-7.2,6.5c0,1.5,2.5,3,1.8,5l-7.3.9c-.2,1.6,2.1.9,3.1.8,3.3-.3,5.6-1.1,9.3-.8s8.4,1.5,8.7,1.8c2.7,2.6-2.1,1.1-2.3,1.2-1.8.6-1.4,2.9-1.4,4.3-1.5-.3-6.5-.2-8.2,0,.5-2.9-2.4-2.7-1.8,0-4.2.6-14.4,5.6-17.8,5.5s.4-5-3.7-5.5-19.4,3.4-20.1,4.6-.4,3.2-.4,4.6c5.8,0,8.1-1.4,9.1,5.1,2.1,14.7-.5,36.3-.8,51.6,0,3,0,6.1,0,9.1-1.7,0-4.7.6-5.4-1.5s.7-18.7-.2-19.5-2.1.2-2.9-.3c-1.5-.7-2.5-2.5-3.9-2.5s-11.5,8.1-15.1,9.6c-6.3,2.7-13.5,2.9-19.4,5.1-.9.3-.6,2.7-3,1.8s-.6-3.6-3.2-2.7l-2.7,3.7c0-1.8,0-3.7,0-5.5s0-1.8,0-2.7v-.9c1.4-1,3-.9,4.6-.9,2.4,0,5.1.3,7.3,0l-1.4,4.6c8-2.6,15.9-3.3,23.2-7.9s11.6-8.9,12-10.9c.7-3.9-5.1,1.5-5.6,1.8-1,.6-2.4.3-2.7.5,7.5-10.5,8.7-27.2.9-37.9-2.2-3-7.8-8.1-11.5-8.4s-7.4,0-8.6.1c-3.2.4-18.5,5.8-19.2,5.1s0-5.6-3.2-5.6-19.6,3.7-20.2,4.6-.3,3.3-.4,4.6c3.8.2,7.9-1.4,8.9,3.4s.2,20.3.2,27.7-.8,7.6.9,10.1c0,.6,0,1.2,0,1.8s0,.6,0,.9l-1.8,1.4c2-7.9-4.5-7.8-7.7-11.5-8-9.2-7-31.4-6-42.9l-7.3.9,9.1-4.6c-1-3.3-8.5-7.6,0-5.5v-5.5c.3.1.7-.1.9,0,.9.4,1.9,1.5,2.7,1.8,30.2,11.7,69.4,13.3,98.8-1.8,3.6-1.8,7.2-3.5,10.1-6.4l10.1-7.8c-7-6.1-11.9-14.3-15.7-22.7s-.4-2.7-.7-3.4ZM276.6,298.7v.9c.6-.3.6-.6,0-.9Z"/>
  <path class="st3" d="M229.5,342.6c.9,1.2,1.3,2.7,2.5,3.7,9.5,7.7,30.9,10.1,42.8,9.2,13.6-1.1,28.2-12.3,42.2-16.3,1.7-.5,3.7.1,5.2-.3s1.2-2.2,1.6-2.5,4.7,2.4,4.4-1.9l-2.7-.4c10.4-8.4,18.1-19.4,25.1-30.6l-1.4,6.4c1.9-3.6,5.4-2.7,8.9-1.1s11.3,7.8,11.7,8.4c2.2,2.8,1.3,4.8.4,7.9-1.4,4.7-13.5,23.1-17.4,25.6s-1.9.9-1.9,0c.1-1.8,3.5-9.8,2.8-10.5s-2.9.3-3.7,0-5.1-3.8-4.1-5.5c1.5-2.4,5.7,1.8,6.9,2.7s.1.7.5.9c.4,0,.4-.8.5-.9.6-.4,1.4-.6,1.8-1.4-2.6-2-5.2-6.9-8.6-6.8-5,.1-2.7,3.7-3.4,4.5s-3.8-1.1-2.6,2.2,6.2,4.2,7.2,7c-.7,1,1.4,2.9-3.7.9-.6-4.3-6.2-7.2-9.7-3.7s-1.4,9.2,2.3,10.1c2.7,4.5-.7,3.4-.9,3.7-1-3.8-5.1-6.2-7-8.4s-1.2-6.4-3.5-2.5c-1.5,2.5,8.1,10.1,7.8,13.7-.5,0-1.2,0-1.8,0-2.2,0-4.2-1.6-5-3.7s.6-2.5,0-3.7-1.7-.2-2.3-.6c-.9-.5-1.4-1.5-1.8-1.7-2.4-1.1-1.8,5.2-1,6.4l8.3,6.8c-1.6,1.7-2.5,1.2-3.7,1.8-3.2-3.1-3.8-9.7-9.4-8.1s-4.5,4.6-3.4,6.2h-.9c-3.3-3-9.3-.9-9.1,3.7h-1.8c0-.3,0-.6,0-.9-1.1-5.3-3.1-4.7-6.4-.9-.5-1.7-2-2.2-3.7-1.8-.2,2.8.3,5.5.9,8.2l-.9.9c-.2-.7-1.6-2.4-2.2-2.8-2.1-1.3-8.8,0-8.8,2.8-.6,0-1.3.1-1.8,0-5.2-1.4-3.8-2.4-10.1,0s-1.7.9-2.7.9c-.8-3.8-10.2-3.6-8.2.9-2.8.2-5.2.2-7.3-1.8-2.3-5.3-4.7-2.6-7.6-3s-5.8-4-8.8-1.5h-.9c0-6.1-7.7-3.5-8.1-3.8s-.6-2.4-1.5-2.7c-1.8-.4-3.7,3-5,3.7,2.5-7.5.2-8.5-5.5-3.7,3.2-5.8-2.3-6.3-2.6-7.8-.5-2.3,3.5-4.9-5.6-2.2,0-.5-1.3-1.6-.9-1.8,1.4-1,1.5,1.3,3.7-2.8,2-.3,1.8,1.5,3.5,2.4,3.8,1.8,7,1.4,11.1,1.3l-2.7-2.7c2.8,0,7.9,0,10.1-1.8ZM223.1,348.1l2.7.5c-.9-1.4-2.9-2.3-2.7-.5ZM265.1,359.1c3.2,0,6.4.1,9.6,0s3.4.7,3.2-.9c-6.7-.3-13.5.4-20.1,0-6.5-.4-16.2-3.6-24.3-6.4-.9-.3-8.4-4.5-6.8-1.4,2.4,4.8,29,9.9,34.8,10.1,1.7,0,2.8,1,3.6-1.4Z"/>
  <path class="st3" d="M201.1,357.2c-1.8-1.2-1.9-1.2-3.7-2.7,2-3.6,3.3-5.2,7.3-6.4.3,4.1-2.1,5.8-3.7,9.1Z"/>
  <path class="st0" d="M88.6,223.8l.9,39.3c18.3,2.4,28-9.8,22.9-27.4,4.5.6,10.9-.8,15,0s-.5,3.1,1.4,2.8l.9-4.6c-.4,4.4.5,9.5,0,13.7-.7,5.2-5.3,10.9-9.4,13.9-8.8,6.6-21.4,6.7-31.8,8,1,1.6.7,2.9.9,4.6-2.8-.5-1.8,1.4-1.8,3.2-.2,5.9.7,11.2.9,16.9-.5.5-12.2-3.5-13.7.9-1.9-19.3-2.2-39.9-2.7-59.4h13.7c0,5.7-.5,12.3,0,17.8s.3,4.1,1.8,4.1c-1.6-11.2-.7-22.5-.9-33.8.6-.1,1.4.2,1.8,0Z"/>
  <path class="st0" d="M143.5,297.8c-15.8-15.8-8-41.2,12.5-48.2,19.5-6.7,34.1,3.4,28.5,24.4l-33.7,2c.2,8.8,6.6,17.6,15.5,19.2-7.5-.1-11-1.8-19.7,0-2,.4-3.2,0-3.2,2.7ZM167.9,257.9c-4.5-4-11.5-2.1-14.7,2.5-2.1,3.1-1.5,6.4-4.2,7.7l3.2,2.3c3.1-1.6,17.3-.4,18.7-1.9s-1.1-9-3-10.6Z"/>
  <path class="st3" d="M192,305.1l10,9.6,3.7,2.3c.4,8.2-.7,16.9,2.7,24.7-3.9-.3-8.9.8-10.1,4.6h-.9c3.3-5.7-4.3-12.3-10.1-7.3h-.9c.2-.1,0-1.2.6-1.8s1.8-1,2.2-1.6c2.4-3.8-3.7-10.1-7.4-6.2s-.6,3.7-.9,4.1-1.8-.3-3.7,0-.7-1.8-.9-.4l.9,5.9c-.9.2-1.2,0-1.8-.4-1.4-.8-15.4-17.8-16-19.6s-.6-1.8-.4-2.8l26.1-1.9c.6-1.2-1.1-2.7-1.4-3.6s.1-1.3,0-1.8c1.1-.3,6.4-2.9,8.2-3.7Z"/>
  <path class="st3" d="M129.8,247.6c.5-4.2-.4-9.4,0-13.7l-.9,4.6c-1.9.3-.1-2.6-1.4-2.8-4.2-.8-10.5.7-15,0-2.8-9.6-14.4-15.4-23.8-11.9s-1.3-.1-1.8,0c-1.7,3-.9,8.1-.9,11.9h-13.7c-.2-7.8,1.4-12.9-9.2-11.9v-4.5c.1,0,26.1-3.7,26.1-3.7,22.3-1.1,47.4,3.5,40.7,32Z"/>
  <path class="st3" d="M252.3,294.2c1,3.9,6.2,1.3,5.5,4.6-7.3,4.3-10,6.2-19.2,7.3s-5,0-7.3,0c-1.6-1.4-3-1.5-4.6,0s-2.2,1,0,1.8c0,.9,0,1.8,0,2.7-2.1,7.8-.4,16.6-.9,24.7-1.8,1.4-11,3-12.4,1s-1.2-20.6-1.3-23.8c1.5-3.1,1.6-9.5,0-12.8,0-.6,0-1.2,0-1.8s0-1.2,0-1.8c5.5.5,11.1-.8,16.5,0s3.8,1.5,6.1,1.7c4.9.5,14.1.3,17.7-3.5Z"/>
  <path class="st3" d="M323.7,293.3c-1.4,5.4,3.8,3.2,3.7,6.4-7.7,5.2-8.8,4.2-17.4,6.4-3.3.9-9.8-1.5-11.9,0s-.9-.1-.9,0c-1.5.9-.9,3.5-.9,5,0,6.1,0,12.2,0,18.3s-.6,4.1.9,5c-.7,3-11.9,3.6-13.8,2.3s-.8-11.6-.9-14.2c0-3,0-6.1,0-9.1,2.2,1.7,0,7.4.9,9.1h.9s0-26.5,0-26.5c3.3,1,10.8-1.1,13.2-.7s4.3,3.9,9.2,4.4,5.1-.4,8.7-1.8,6.7-2.8,8.2-4.6Z"/>
  <path class="st3" d="M166.4,295.1c4.7,0,9.5.2,14.2,0,2.2,0,7.8-2.6,7.8,1.3,0,2.5-7.5,4.9-9.9,5.7-12.9,4.3-24.8,5.8-35-4.3,0-2.8,1.2-2.3,3.2-2.7,8.7-1.8,12.2-.1,19.7,0Z"/>
  <path class="st1" d="M277.9,341.7c-6.8-1.4-18.1-.5-26.7-2.1-4.8-.9-11.8-1.7-15.4-5.2.3-.8-.3-3.4,0-3.7.6-.6,15.8-1.1,17.9-.9,3.7.2,18.9,3.2,21.4,5.1s2.2,4.8,2.8,6.8Z"/>
  <path class="st2" d="M277.9,341.7c1.8.4,3.6,2.1,7.3,2.7-1.2,1.5-3.7.7-5.5,1.3-12.8,4.7-19.9,6-33.5.7-4.5-1.8-8-5.4-12.2-7.5.2-.2,1.6-4,1.8-4.6,3.6,3.4,10.5,4.3,15.4,5.2,8.6,1.6,19.9.7,26.7,2.1Z"/>
  <path class="st1" d="M304.5,334.4c0-.6,0-1.2,0-1.8.2-2.4-.1-4.9,0-7.3,2.1.4,3-.2,4.6-1.3,2.5-1.7,9.9-7.9,11.9-10.1s2-2.2,1.8-4.2c1.9-.6,3.2-2.1,4.6-2.7s.7.1.9,0l.9-.9c3.5-1.9,6-3.3,9.1-5.5-6.5,14.6-19.6,26.9-33.8,33.8Z"/>
  <path class="st2" d="M342.9,296.9c.2,2.8-.8,5.2-2,7.6-3.6,7.3-13.9,21.8-20.6,26.1-3.4,2.2-12,6.6-15.9,4.7,0-.3,0-.6,0-.9,14.2-7,27.4-19.2,33.8-33.8,1.8-1.3,1.5-2.1,4.6-3.7Z"/>
  <path class="st4" d="M327.3,307c-1.3.6-2.6,2.1-4.6,2.7-14.4,4.7-17.3-2.7-18.3,15.5-.1,2.4.2,4.9,0,7.3-2.1-4.6-.4-10.6-.9-15.5-2.3,1.2,0,7.9-1,9s-3.6.5-4.5,1c.1-1,.1-2.7,0-3.7s-.5-.8-.9-.9c-.3-2.1,0-5,0-7.3,1.9-2.2.5-6.3.9-9.1,2.1-1.5,8.6.9,11.9,0-1.4.4-5.1,1.1-5.5,1.3-1.6,1-.5,3,.5,3.2s12-2.9,13.9-3.4c2.9-.7,8.2-5.2,8.4-.3Z"/>
  <path class="st3" d="M89.5,274.1c.8,6.8,1.9,18.3,1.9,25.1s-10.7,4.5-15.6,5c.5-3.2-.6-6.1-.9-9.1,1.5-4.4,13.3-.4,13.7-.9-.2-5.8-1.2-11.1-.9-16.9,0-1.8-.9-3.7,1.8-3.2ZM88.2,296v.9c.6-.3.6-.6,0-.9Z"/>
  <path class="st0" d="M205.7,312.5c.2,1.3,0,3.1,0,4.6l-3.7-2.3-10-9.6c1.7-.7,3.3-2,5.5-2.7,2.9,2.9,3.9,9.1,8.2,10.1Z"/>
  <path class="st0" d="M219.4,344.4l2.7,2.7c-4.1,0-7.3.5-11.1-1.3s-1.5-2.6-3.5-2.4c1.3-2.4,5.1.4,7.1.7s3.1.2,4.8.2Z"/>
  <path class="st0" d="M297.1,315.2c0,2.3-.3,5.2,0,7.3s.5.8.9.9c.1.9.1,2.7,0,3.7-.2,1.7-.6,6-.9,7.3-1.5-.9-.9-3.5-.9-5,0-6.1,0-12.2,0-18.3,0-1.5-.6-4.1.9-5,0,3,0,6.1,0,9.1Z"/>
  <path class="st0" d="M226.7,316.1c0,4.7,1.2,11.1,1,15.1,0,1.8-.4,3-1.9,4.1.6-8-1.2-16.9.9-24.7,0,1.8,0,3.7,0,5.5Z"/>
  <path class="st1" d="M205.7,312.5c-4.4-.9-5.3-7.1-8.2-10.1.2,0,.4-1.1,1.2-.9,1.7.4,6.6,8.7,7,10.9Z"/>
  <path class="st0" d="M212.1,312.5c-.1-3.9,0-7.9,0-11.9s0-.6,0-.9c1.6,3.3,1.5,9.7,0,12.8Z"/>
  <path class="st4" d="M82.2,209.2v.9c-3.8.5-3.8-1.3,0-.9Z"/>
  <path class="st0" d="M282.5,313.4c.3-15.3,2.9-36.9.8-51.6s-3.3-5.2-9.1-5.1c0-1.4-.4-3.4.4-4.6s18-4.8,20.1-4.6c4.1.5,2.8,5.5,3.7,5.5,3.4,0,13.7-4.9,17.8-5.5s1.2,0,1.8,0c1.8-.2,6.8-.3,8.2,0s1.7,2.3,3,3.1c3.9,2.4,4.2.8,7.4,6.1,10.1,16.8,5.9,32.5-9.5,42.9.2-3.2-5-1-3.7-6.4,7.6-8.8,3.3-35.6-10.6-36.2-2.9-.1-13.2,2-15,4.2-.7.9-.8.8-1,2.2-.7,5.8-.6,19.9,0,25.8s.5,1.9,1,3.1c2.8,7.3,11,5.3,17.4,5.5-3.6,1.5-3.7,2.3-8.7,1.8s-7.6-4-9.2-4.4c-2.3-.4-9.9,1.7-13.2.7v26.5h-.9c-.8-1.8,1.3-7.4-.9-9.1Z"/>
  <path class="st0" d="M439.6,249.6c.9,1,.2,4.3,2,4.3.2-3.7,4.9-1.1,7-4.3,4.5.7,7.6-2.2,12.4-1,8.1,2.1,7.5,16.3-3.4,17.1s-4.3-2.8-6.4-6.4c-1.7-3.1-8.8,0-11,1.8l-2.4,41.5c-.7,2-13.7,3.5-15,1.6.3-14.6,1.1-29.6,1.4-44.4-.8-4.2-5-3.2-8.2-3.2.2-1.2-.3-3,0-4s21.1-6,23.6-3.1Z"/>
  <path class="st0" d="M365.7,255.8c18.8-14.9,45.8-9.9,39.2,18.2-4.4.9-34.1,1-34.7,3.4-1.2,4.3,3,11.8,6.5,14.5,6.1,4.5,11.3,3,18.2,3.3.5,2.8-1.4,1.8-3.2,1.8-8.1.3-9.8-3.1-14.8-3.6s-12.1-.3-14.6,0-1.4,2.8-2.2,1.9c-1.4-1.6-2.8-8.4-3.4-10.8s.6-3.4-2.1-2.9c-.3-5.9.9-9.3,2.7-14.6.8-.8,2.2.2,2.8-.5,1.3-1.6,2.8-4.9,4.5-7.3.8-1.1,2.4-1.4.9-3.2ZM371.2,254.9c0,0,.3-1.9-.4-1.8-2.5,1.4-.6,2.9.4,1.8ZM391.3,268.5c1.2-20.3-20.4-14.1-21.9,1.9l21.9-1.9Z"/>
  <path class="st3" d="M354.8,281.4c2.6-.5,1.7,1.3,2.1,2.9.6,2.5,2,9.2,3.4,10.8.9.9.4-1.7,2.2-1.9s12-.2,14.6,0c4.9.6,6.7,3.9,14.8,3.6,1.8,0,3.7.9,3.2-1.8.6,0,1.2,0,1.8,0s2,1.7,3.7.9v-.9s-1.8-.9-1.8-.9c5.7-1.4,8.1-3.4,9.1,4.6-12,3.7-28,10.7-40.2,4.1s-12.3-12.6-12.9-21.4Z"/>
  <path class="st3" d="M365.7,255.8c1.5,1.8,0,2.1-.9,3.2-1.7,2.4-3.3,5.6-4.5,7.3s-2-.2-2.8.5c2.5-7.2,2.2-6.2,8.2-11Z"/>
  <path class="st0" d="M398.7,294.2l1.8.9v.9c-1.6.8-3.2-.9-3.6-.9.6-.2,1.2-.8,1.8-.9Z"/>
  <path class="st4" d="M328.2,307c.2-.1.5-.7.9-.9l-.9.9Z"/>
  <path class="st5" d="M250.5,369.1c1.8,4-1.1,9.4-6.4,7.8-6.5-1.9-2.2-8.8-2.7-9.7h-3.5c-1.8,3.2-.6,10.2-5.7,5.8l1.9-8.6c3-2.4,6.7,1.2,8.8,1.5s5.3-2.2,7.6,3Z"/>
  <path class="st5" d="M291.7,369.1c.6,2.7-.1,6.5-2.8,7.7s-3.5.4-3.6.5c-.3.3,2.4,4.6-1.4,4.6-1.4-.3-3.2-11-3.2-12.8,0-2.9,6.7-4.1,8.8-2.8s2.1,2.1,2.2,2.8ZM285.3,374.6c1.9,1.3,5.7-2,2.3-4.6-4.9-3.8-3.1,4.1-2.3,4.6Z"/>
  <path class="st5" d="M177.3,333.5c1.9-.3,3.6.2,3.7,0,.3-.4-.5-2.7.9-4.1,3.7-3.9,9.8,2.4,7.4,6.2s-1.6.9-2.2,1.6-.4,1.6-.6,1.8c-4.8,4.3-8.2-.6-9.1-5.5Z"/>
  <path class="st5" d="M326.4,361.8c-1.5.8-7.9,4.7-8.6,4.6-1.9-1.5-1.8-4.5-2.7-6.2s-1.5-.2-1.5-.2c-1.1-1.7,1.4-5.6,3.4-6.2,5.6-1.6,6.2,5,9.4,8.1Z"/>
  <path class="st5" d="M278.9,369.1c.4,2.4,1,3.6.2,6.1-1.8,5.8-6.1,3.4-6.6,3.9s.3,3.3,0,3.7-2.6,0-2.7,0c-1-.8-1-11.6-.9-13.7,6.3-2.4,4.9-1.4,10.1,0ZM276,371.1c-.3-.4-4-1.3-4.4.4-.9,3.6,3.5,7.4,4.6,2.7s.2-2.7-.1-3.1Z"/>
  <path class="st5" d="M266.1,370c.5,2.5-.5,6.3.9,9.1-4-.8-12.3,1.8-9.9-4.9s2.5-1.4,2.6-1.5c.5-.7-1.7-1.6-1.8-1.8-1.9-4.5,7.4-4.7,8.2-.9Z"/>
  <path class="st5" d="M344.7,343.5c.8,5.2-2.2,7.6-7.3,6.4s-5.1-7.3-2.3-10.1,9-.6,9.7,3.7ZM336.5,342.6c-1.2,3.4,4.6,6.5,5.5,3.2s-3.2-3.5-5.5-3.2Z"/>
  <path class="st4" d="M197.5,346.3c-3.7,6.4-15,1.1-10.1-7.3,5.7-5,13.4,1.6,10.1,7.3ZM194.7,341.7c-3.3-.4-7.8-.5-5.1,3.7,1.8,2.7,6-.9,5.1-3.7Z"/>
  <path class="st4" d="M353.8,337.1h-.9c-1.2-.9-5.4-5.2-6.9-2.7-1,1.7,3.7,5.3,4.1,5.5.3,1.7-1.4,2.1-1.8,2.7-1.1-2.7-6.5-5.1-7.2-7-1.3-3.3,2.1-1.7,2.6-2.2.7-.8-1.6-4.4,3.4-4.5,3.4,0,6,4.9,8.6,6.8-.4.8-1.2,1-1.8,1.4Z"/>
  <path class="st5" d="M312.7,360c-.7,2.4-4.9,1.4-5.4,3.3s1,5.3,3.6,3.6,1.2-3.8,3.6-3.2c.8,9.8-10.6,9.1-11,0-.2-4.5,5.9-6.7,9.1-3.7Z"/>
  <path class="st2" d="M271.5,387.4l-8.7,1.3c-10.4-.7-20.7-2.5-30.6-5.4s-6.1-1.4-7.3-3.2c15.3,3.9,30.7,7.6,46.6,7.3Z"/>
  <path class="st4" d="M330.1,360l-8.3-6.8c-.8-1.2-1.4-7.5,1-6.4s1,1.2,1.8,1.7,2-.2,2.3.6c.6,1.1-.6,2.3,0,3.7.8,2.1,2.8,3.7,5,3.7-.2,1.3-.9,2.7-1.8,3.7Z"/>
  <path class="st5" d="M292.6,368.2c-.6-2.7-1.1-5.5-.9-8.2,1.7-.4,3.2.2,3.7,1.8s3.2,13.2,2.7,13.7c-1-.8-3.5.2-3.6,0-.2-.3-1.6-6.3-1.9-7.3Z"/>
  <path class="st5" d="M333.7,356.3c.4-3.6-9.3-11.2-7.8-13.7,2.3-3.9,3.3,2.3,3.5,2.5,1.9,2.3,6.1,4.6,7,8.4-.8,1,.6,2.1-2.7,2.7Z"/>
  <path class="st5" d="M301.7,362.7c0,.3,0,.6,0,.9.9,3.1,2,6,2.7,9.1l-3.2.9c-.7-3.1-2.9-6.6-3.2-9.7-.3-2.5,2.3-1,3.6-1.3Z"/>
  <path class="st2" d="M224,379.2c.6.3-.5,1.6-1.8.9s.5-1.6,1.8-.9Z"/>
  <path class="st2" d="M207.1,371.9c.6.3.6.6,0,.9v-.9Z"/>
  <path class="st2" d="M220.8,378.3c.6.3.6.6,0,.9v-.9Z"/>
  <path class="st2" d="M228.6,172.6c-.1,3.2-.6,2.5,2.2,2.7,16.3,1.3,33.8-1.4,50.4-1,5.2.2,10.6,1.7,16,1,.2.4.8.7.9.9s.8.6.9.9c-1.6,1.3.7,5.7,1.8,7.3,1.3,3.2,2.4,5.2,3.7,8.2s.1,2.1.7,3.4c3.8,8.4,8.7,16.6,15.7,22.7l-10.1,7.8c-5.8-5.4-12.9-2.9-19.7-3.7-25.8-2.9-62.6-9.8-86.5,3.2-2.6,1.4-6.6,3.3-5.5,6.9-.3-.1-.7.1-.9,0-6.5-2.7-11.2-4.8-17.4-8.2.4-2.9-3.9-2.8-5.6-3.8-3.3-1.9-2.5-5-4-8-2.1-3.9-5.4-6.8-7.7-10.6.5-2.1,20-8.7,23.1-9.8s6.6-2.2,8.9-4.3c.3-.1.7.1.9,0l2.7-.9c4.9-2,11.5-5.8,16.5-8.2,4.5-2.2,8.3-3.9,12.8-6.4Z"/>
  <path class="st1" d="M312.7,195.5c-3.7-10.9-4.8-20.4-9.6-31.1-2.9-6.5-7.3-15.6-12.3-20.6-2.2-2.2-13.7-9.1-13.6-10.8,0-2.6,7.3-4.6,9.7-5,4.3-.7,12.6-.6,16.9,0,9.3,1.3,16.7,8.9,23.8,14.3,3.6-1.8,9.2-7.5,9.5-11.4s-4.6-8-5.1-12,5-12.6,10.3-12.8c3.6-.1,4,1.6,5.3,2.3s1.1-.5,1.4-.3c2,1.5,5.2,5.9,5.6,8.5s-.3,8.3,0,8.6,4.5-.4,5.8,0,1.6,2.6,1.5,2.8c-.3.4-5.7,2.8-7.8,4.6-3,2.6-18.1,18.9-18.5,21.7s4.2,10.9,5,13.8c3,11,2.7,16.1-.7,26.7-1.4,1-2.2,5.8-2.9,6.2-1.2.7-7.2.4-10.6,2.6s-3.2,4.9-6.7,5.8c-3.3-3.9-5.7-8.8-7.3-13.7Z"/>
  <path class="st3" d="M298.1,176.3c-.1-.3-.7-.5-.9-.9-.9-1.7-1.9-6.1-3.2-7.3-2.5-2.2-7.6,0-10.9,0-13.7.4-27.5-.2-41.2,0s-6.3.8-13.2,4.5c-4.5,2.5-8.3,4.2-12.8,6.4,13.2-8.3,26.5-15.8,38.4-26,5.7-4.9,11.5-11.4,17-16.7,4.1-.8,12.4,8.1,15,11.2,6,7.5,9.7,19.4,11.9,28.8Z"/>
  <path class="st2" d="M155.4,215.6c3.8,4.9,15.9,12,21.9,15.5-2.5,0-5.7,1.9-7.7,1.8-6.4-.2-17.8-10.4-14.3-17.3Z"/>
  <path class="st0" d="M195.6,188.2c-2.4,2.1-6,3.2-8.9,4.3s-22.6,7.7-23.1,9.8c2.3,3.7,5.6,6.6,7.7,10.6,1.6,3,.7,6.1,4,8s6,.9,5.6,3.8c-5.7-3.2-30.7-17.6-17.5-25.2,7.1-4.1,23.3-7.9,32.1-11.3Z"/>
  <path class="st2" d="M340.1,194.5c-1.9,6-6.3,15.8-11.9,19.2s-6.3-2.3-8.2-4.6c3.4-.9,4.5-4.3,6.7-5.8,3.4-2.2,9.4-1.9,10.6-2.6s1.5-5.3,2.9-6.2Z"/>
  <path class="st0" d="M300.8,184.5c-1.1-1.6-3.4-6-1.8-7.3.8,2.2,1.1,5.5,1.8,7.3Z"/>
  <path class="st0" d="M199.3,187.2l-2.7.9c1.1-.4,2.1-.6,2.7-.9Z"/>
  <path class="st2" d="M193.9,174.3c-.1,0,0-1.3-.8-1.7-1.8-.9-4.6,0-3.9-2.8,5.8-3.7,11.7-7.3,17.6-11,6.9-4.3,12.1-8.1,20.6-10.7,2.7-.8,16.7-4.8,16.6-.7s-22.6,13.1-25.6,14.6-23.4,12.9-24.6,12.2Z"/>
  <path class="st0" d="M211.2,287.8c0-7.4,1.2-21.3-.2-27.7s-5.1-3.2-8.9-3.4c0-1.4-.4-3.5.4-4.6s18.1-4.6,20.2-4.6c3.2,0,2.9,5.3,3.2,5.6.7.7,15.9-4.7,19.2-5.1s7.4-.2,8.6-.1c3.8.3,9.4,5.4,11.5,8.4,7.8,10.7,6.6,27.4-.9,37.9-2,1.2-3.6,2.9-6.4,4.6.7-3.2-4.5-.7-5.5-4.6.9-.9,3-6.6,3.2-8.2,1.7-9.6-2.7-29-14.7-29.3-3.7-.1-10.5,2.4-14.1,3.7s-1.3-.1-1.8,0c2.6,10-.8,21.2,1.8,31.1.4,1.6.9,3.1,1.8,4.6-5.3-.8-11,.5-16.5,0,0-2.6.7-6.4-.9-8.2Z"/>
  <path class="st0" d="M310.9,226.5c-2.8,2.9-6.5,4.6-10.1,6.4-3.4-.8-7.4,3.1-10.4,2.8s-1.6-2.4-5.1-3.3c-16-3.8-50.3-6.3-65.7-1.6s-9.9,6.4-17.6,3.9c-.9-.3-1.8-1.5-2.7-1.8-1.1-3.5,2.9-5.5,5.5-6.9,23.9-13,60.7-6.1,86.5-3.2s13.8-1.7,19.7,3.7Z"/>
  <path class="st3" d="M202,234.8c7.6,2.5,11-1.9,17.6-3.9,15.4-4.7,49.7-2.2,65.7,1.6,3.5.8,4.8,3.3,5.1,3.3,3,.4,6.9-3.6,10.4-2.8-29.4,15.2-68.5,13.5-98.8,1.8Z"/>
  <path class="st5" d="M264.2,294.2c.3-.2,1.6,0,2.7-.5s6.3-5.7,5.6-1.8-9.7,9.4-12,10.9c-7.3,4.6-15.2,5.3-23.2,7.9l1.4-4.6c9.2-1.1,11.9-3.1,19.2-7.3s4.4-3.4,6.4-4.6Z"/>
  <path class="st5" d="M212.1,296c0,.6,0,1.2,0,1.8-1.7-2.4-.9-6.9-.9-10.1,1.7,1.8.9,5.6.9,8.2Z"/>
  <path class="st5" d="M231.3,306.1c-1.6,0-3.2,0-4.6.9v-.9c1.6-1.5,3-1.4,4.6,0Z"/>
  <path class="st5" d="M316.3,247.6c-.6-2.7,2.3-2.9,1.8,0-.6,0-1.2,0-1.8,0Z"/>
  <path class="st0" d="M226.7,307v.9c-2.2-.9-.6-1.2,0-1.8v.9Z"/>
  <path class="st5" d="M276.6,298.7c.6.3.6.6,0,.9v-.9Z"/>
  <path class="st0" d="M265.1,359.1c-.8,2.4-2,1.5-3.6,1.4-5.8-.3-32.4-5.4-34.8-10.1s6,1.1,6.8,1.4c8,2.8,17.8,6,24.3,6.4l-.9.9c2.7,0,5.5,0,8.2,0Z"/>
  <path class="st2" d="M257.8,358.2c6.6.4,13.5-.3,20.1,0,.2,1.6-2.1.9-3.2.9-3.2.1-6.4,0-9.6,0s-5.5,0-8.2,0l.9-.9Z"/>
  <path class="st0" d="M223.1,348.1c-.2-1.8,1.8-.9,2.7.5l-2.7-.5Z"/>
  <path class="st0" d="M352.9,337.1h.9c0,0,0,.9-.5.9-.3-.2-.3-.8-.5-.9Z"/>
  <path class="st5" d="M112.4,235.7c5.1,17.6-4.6,29.8-22.9,27.4l-.9-39.3c9.4-3.5,21,2.3,23.8,11.9Z"/>
  <path class="st2" d="M86.8,223.8c.2,11.3-.7,22.6.9,33.8-1.5,0-1.7-3-1.8-4.1-.4-5.6,0-12.1,0-17.8s-.8-8.8.9-11.9Z"/>
  <path class="st5" d="M167.9,257.9c1.8,1.6,4.5,9.1,3,10.6s-15.6.3-18.7,1.9l-3.2-2.3c2.7-1.3,2.1-4.6,4.2-7.7,3.2-4.7,10.2-6.5,14.7-2.5Z"/>
  <path class="st4" d="M226.7,260.4c3.7-1.3,10.4-3.8,14.1-3.7,12,.4,16.4,19.7,14.7,29.3-.3,1.6-2.4,7.2-3.2,8.2-3.6,3.8-12.8,4.1-17.7,3.5s-4.5-1.5-6.1-1.7c-.9-1.4-1.4-2.9-1.8-4.6v-31.1Z"/>
  <path class="st4" d="M323.7,293.3c-1.5,1.7-6,3.6-8.2,4.6-6.4-.2-14.6,1.8-17.4-5.5v-31.1c1.8-2.3,12.1-4.4,15-4.2,13.9.6,18.3,27.4,10.6,36.2Z"/>
  <path class="st5" d="M297.1,315.2c0-3,0-6.1,0-9.1,0-.1.7.1.9,0-.4,2.9,1,7-.9,9.1Z"/>
  <path class="st5" d="M322.8,309.7c.3,2-.5,2.8-1.8,4.2-2,2.1-9.4,8.4-11.9,10.1s-2.5,1.7-4.6,1.3c1-18.3,3.9-10.8,18.3-15.5Z"/>
  <path class="st5" d="M298.1,323.4c-.4,0-.9-.5-.9-.9.4.1.8.5.9.9Z"/>
  <path class="st0" d="M88.2,296c.6.3.6.6,0,.9v-.9Z"/>
  <path class="st3" d="M298.1,292.3c-.5-1.2-.8-1.2-1-3.1-.6-5.9-.6-20,0-25.8.2-1.4.3-1.3,1-2.2v31.1Z"/>
  <path class="st5" d="M391.3,268.5l-21.9,1.9c1.5-15.9,23.1-22.1,21.9-1.9Z"/>
  <path class="st3" d="M371.2,254.9c-1.1,1-2.9-.4-.4-1.8.8-.1.5,1.8.4,1.8Z"/>
  <path class="st0" d="M285.3,374.6c-.7-.5-2.6-8.5,2.3-4.6,3.3,2.6-.4,6-2.3,4.6Z"/>
  <path class="st0" d="M276,371.1c.3.4.3,2.4.1,3.1-1,4.8-5.4.9-4.6-2.7s4.1-.7,4.4-.4Z"/>
  <path class="st0" d="M336.5,342.6c2.2-.3,6.4-.2,5.5,3.2s-6.7.2-5.5-3.2Z"/>
  <path class="st3" d="M194.7,341.7c.9,2.8-3.3,6.4-5.1,3.7-2.8-4.2,1.7-4.1,5.1-3.7Z"/>
  <path class="st0" d="M297.1,175.4c-5.4.8-10.8-.8-16-1-16.6-.5-34,2.2-50.4,1s-2.4.5-2.2-2.7c6.9-3.7,5.4-4.4,13.2-4.5,13.7-.2,27.5.4,41.2,0,3.3,0,8.5-2.2,10.9,0s2.3,5.6,3.2,7.3Z"/>
  <path class="st3" d="M226.7,260.4v31.1c-2.6-9.8.8-21.1-1.8-31.1.6-.1,1.4.1,1.8,0Z"/>
</svg>