<?xml version="1.0" encoding="UTF-8"?>
<svg id="Camada_1" xmlns="http://www.w3.org/2000/svg" version="1.1" xmlns:xlink="http://www.w3.org/1999/xlink" viewBox="0 0 512 512">
  <!-- Generator: Adobe Illustrator 29.2.1, SVG Export Plug-In . SVG Version: 2.1.0 Build 116)  -->
  <defs>
    <style>
      .st0 {
        fill: #fcf4f1;
      }

      .st1 {
        fill: #df6826;
      }

      .st2 {
        fill: #c05728;
      }

      .st3 {
        fill: #02679d;
      }

      .st4 {
        fill: #50100e;
      }
    </style>
  </defs>
  <path class="st4" d="M360.3,226.3c-.9.9.9,6.1,1.1,7.7,2.4,16.3-8.2,33.2-20.3,43.3-29.1,24.1-82.4,27-118.4,22.1-27.1-3.7-58.3-16.2-69.5-43.1-.8-1.9-2.9-9.5-3.5-10.3-1.3-1.5-5.1.7-5.1-2.9s5.1-5.9,5.5-7.9-2.3-1.1-3.1-1.6c-1.6-.9-2.1-2.4-1.3-4.1s5.8-2.7,7.6-3.7c3.9-2.1,4.6-4.1,7.2-7s5.2-4.6,5.4-5.5c.3-1.6-2.2-4.5-2.9-6.1-9.7-20.7-4.2-45.1,14.6-58.4,1.6-1.1,9.2-5.2,9.5-5.9.8-1.7-.5-5.7-.6-7.7-.8-12.9,3.9-36.5,15.9-43.5s24.9,3.4,25.1,17.6-1.4,6.1.2,8.1c3.7,1.1,6.5-9.8,8.2-12.3,5.6-8.2,16.7-7,21.6,1.3s1.3,6.5,4.5,6.8,5.5-.7,9.6,2.5,3.7,6.3,8.3,3.3,2-3.9,1.9-6.8c-.1-12.2,5.7-27.2,20.8-22.4s18.4,25.5,19,38.7-.6,11.9.5,13.8,9.4,4.8,11.2,6c18.3,11.8,24.8,37,16.3,56.8s-3.1,4.7-2.9,6.7c.4,3.8,7.9,8.1,11.5,7.8s2.2-3.8,3.4-4.2c3.4-1.2,5.4,4.5,4.2,7.2s-4.5,2.7-5.6,3.8ZM297.8,100.2c-4.3,1-5.5,4.7-6.2,8.7-1.5,8.5,1.5,16.8.3,25.2-1.7,1-1.9,2.3-4.4,1.3-4.1-1.6-2.1-6.8-3.2-7.5s-7.3.5-7.9,1.5c-1,3.8-4.9,13.6-10.3,9.7s.7-8.1,1-11.5c.6-6.3-2.6-11-7.7-4.8s-2.7,5.8-5.8,5.4-2.5-6.2-2.8-9-.9-6.3-.9-9.5c-.6-1.1-1.3-1.6-2.4-2-4.1-1.5-5.1,6.6-6.6,9.5s-5.3,6.8-9,8.2-6.3,1.2-6.8,2,0,4-.8,5.9-1.3,1.6-1.9,2.5c-1.4-.7-3.9.2-5.2-1.7s0-9.3.2-12.3c.3-6.1.4-14.4-2.9-19.8-2.8-4.7-7.9,1.4-9.9,4.1-4.2,5.8-5.1,11.4-5.7,18.4,0,0-.4.5-.4,1-.1,2.7.6,11.1,1.6,13.5s3.6,1.3,5.5,1.4c15.4.9,27.6,6.4,36.8,19.1s4.3,7.8,5.7,8.9c2.4,1.9,4.6.1,6.9,0s6.4.6,8.4-.6,5.2-8.1,6.8-10.4c6.8-9.4,17.2-16.1,29-17s8.3.6,9.2-.9,0-1.2.2-1.7c2.2-8.9,2-22.3-2.3-30.6s-4.5-6.9-6.8-7.4-1.3.2-1.8.4ZM238,201.1c11.1-25.2-8.6-52.8-36.2-50.6-28.4,2.3-43,35.3-26,58.1,8.3,11.1,25.4,17.3,38.8,13.3s5.8-2.2,5.8-3c-8.7-5.9-10.2-19.3-4.9-28,2.7-4.4,7.2-7.3,12.5-5.7-.6,1.8-2.5,2.8-2.8,4.9-.7,4,3.6,7.2,7.5,6.2s2.2-2,3.7-1.9l1.7,6.7ZM297.4,194.4c2.6,9.3,1.1,18.3-6.7,24.5,16.6,9.2,38.2,2.2,47.5-14,16.1-28.2-9.4-61.6-40.8-53.4s-32.5,28.4-24.3,48.3l2.3-7.1c2.5-5.1,7.5-9.4,13.6-7.5.4.4-2.3,3.1-2.6,3.9-1.4,3.6,1.5,7.6,5.3,7.4s3.6-1.8,5.7-2.1ZM260.2,187.7l.8-7.8c0-.5-.7-1.9-1-1.9h-8c-.1,0-1,.5-1.1.7-.5,1.9.4,5.4.4,7.7,0,18.3-9.6,33.9-26,41.9-14.3,7-30.1,6.5-43.9-1.5s-8.8-6.5-9.5-6.4c-17.3,11.5-15.6,30.6-2.5,44.8,14.8,16.1,35.8,21.6,56.7,25.4s29.3,5,48.3,1.3c13.1-2.6,26.2-5.4,38.4-10.3,10.8-4.4,19.8-8.3,27.8-17.2s15.3-23.3,6.5-36.4c-.9-1.3-2.1-3-3.1-4.2s-3.5-4-5-3.8-7.9,6-9.7,7c-8.6,4.8-19.2,6.7-29,5.5-21.2-2.6-35.1-16.6-39.2-37.2-.5-2.4-.4-5.4-1-7.6ZM220.7,198.7c-3.1-3.2-5.6,5.3-2.2,8.3s3.4,1.7,4.7.3-1-3.9-1.7-5.5-.3-2.6-.8-3.1ZM278.7,198.7c-2.3,2.3-.4,10.7,4.1,9.4s1-4,.2-5.7-1.6-6.4-4.3-3.7Z"/>
  <path class="st3" d="M257.7,410.8v27.4c0,.3-1.2,2.7-1.5,3.1-5.2,7.6-16.6,4.2-17.3-4.8,1-19.8-1.4-41,0-60.7,2.4-34.4,44.9-48.2,67-21.8,23.7,28.3-4.4,70.6-40.3,59.9s-5.2-2.2-7.9-3.2ZM273,359.4c-19.6,2.7-20.5,33.6,0,37.1,28.5,4.9,30.3-41.2,0-37.1Z"/>
  <path class="st3" d="M108.9,347.9c-.9.9-3.2,2.2-4.4,2.5-7.4,1.5-8.5-3.9-13.8-6.3s-23.9-3.1-29.1,3.6c-5.3,6.8,2.2,10.7,8.1,12,14.7,3.2,39.5.4,45,19.1,10.9,37.5-49.1,48.1-68.6,25s-8.1-17.3,2.3-19.5c9.1-1.9,10.6,7.6,17.5,11s22.3,2.6,28.6-2.6c4.9-4,2.8-9.4-2.5-11.7-14.2-6.2-44-1.2-49.5-21.2-9.6-34.8,42.4-46,64-27.5,4.8,4.1,7.9,10.5,2.6,15.7Z"/>
  <path class="st3" d="M154.6,340.6c22.6-2.2,41.3,12.8,42.8,35.7s.7,21.5,0,29.7-6.1,11.2-12.9,9.1-5-4.6-5.4-4.7-6.2,2.9-7.5,3.3c-30.1,9.9-57.7-18.5-47.6-48.5,4.2-12.6,17.3-23.4,30.6-24.7ZM156.3,359.4c-6.4.9-13.1,7.1-14.8,13.3-4.9,17.5,15.1,31.1,29.5,20.3s5.2-36.2-14.7-33.6Z"/>
  <path class="st3" d="M353.4,340.6c42-4.3,59,48.7,24.9,69.7-19.8,12.2-47,2.8-55-19-8.1-22,6.3-48.3,30.1-50.7ZM355.5,359.4c-23.6,3.2-18.8,41.8,6.9,37,23-4.2,18.6-40.5-6.9-37Z"/>
  <path class="st3" d="M431.7,340.6c10.9-1,27.3,2.5,35.2,10.6s3.6,11.6-1.7,14.6c-7.5,4.2-12-3.3-18.2-6s-21.9-4-25,2.9c-2.5,5.5,3.7,7.1,7.9,7.5,11.5,1,21.4-1.3,32.2,5.5s11.6,19.5,4.3,28.4c-13,15.9-45.9,14-59.9.4-4-3.9-3.9-11.5,1.2-14.3s10.8,2.1,15.9,4.8c7.1,3.7,14.2,4.5,22,2.6s9.7-4.5,6.1-8.9-15.8-2.3-20.5-2.5c-40.1-2.4-35.1-42.3.5-45.5Z"/>
  <path class="st3" d="M216.5,346.9c5.5-.8,10.4,2.9,11,8.5,1.6,16.4-1.2,35.6,0,52.3-1.9,10.8-17.4,10.5-18.8-.4v-52.7c.8-3.7,4-7.1,7.8-7.7Z"/>
  <path class="st3" d="M217.4,323.4c12.3-.9,13.4,17.2,2.8,18.7-14.4,2-15.1-17.8-2.8-18.7Z"/>
  <path class="st1" d="M260.2,187.7c.6,2.2.5,5.2,1,7.6,4.1,20.6,18,34.6,39.2,37.2.7,2.4,4,3.5,6.3,4,9.6,2,25.5-.7,34.5-4.9s4-2.4,6.1-3.7c8.8,13.1,3.2,25.8-6.5,36.4s-17,12.8-27.8,17.2l-35.6,2.9c2.3-1.6,6.5-7.5,7.6-10.2,1.7-4.1,1.4-6.7,2-10.7s1.7-2.4,2.9-2.9,2.2-.2,3.6-1.2c3.2-2.5,4.5-8.3,4-12.1,2.2,0,3.6-2.5,3.1-4.5-1.1-4.7-9.6-8.3-14-7.2-3.3-6.1-11.2-11.5-17.6-14-18.1-7.2-40.9,1.2-47.7,19.9-3.8,0-9.1,2.4-8.8,6.9s4.3,2.8,5.5,4.6,1,3.3,1.6,4.7,3.4,5.9,3.8,6.4c-1,2.4.2,6,1.1,8.4,1.5,3.9,4.3,6.6,6.5,10.1-4-1.3-8.9-1.9-13.1-3-15.9-4.5-38.5-14.7-43.2-32.1s-2.4-11.2-1-12.1,8.1,2.2,9.9,2.8c9.9,2.8,20.3,2.7,30-.7s10.2-4.4,11.9-8.8c16.3-8,26-23.6,26-41.9,1.9.7,7-1.9,8-.7s.7,1.6.8,1.9Z"/>
  <path class="st1" d="M308.7,137.9c-20.9-.1-47.3,8.2-53.6,30.6-2.3.2-4.5,1.9-6.9,0s-4.3-6.9-5.7-8.9c-9.1-12.7-21.3-18.2-36.8-19.1,0-1.8-1.2-3.5-1.3-5.3s.5-2.2.5-3.3c0-3.8-4.6-4.3-5.9-7.3.5-7,1.5-12.6,5.7-18.4s7.1-8.8,9.9-4.1c3.2,5.4,3.1,13.7,2.9,19.8s-1.9,10-.2,12.3,3.8.9,5.2,1.7.3,1,1.5,1.2c11.7,2.1,20.2-12.6,22.2-22.2s.3-5.1,1.5-7.1c1.1.4,1.8.9,2.4,2,0,3.2.7,6.4.9,9.5s-1.1,8.5,2.8,9,4.2-3.5,5.8-5.4c5.2-6.2,8.3-1.5,7.7,4.8s-4.5,9-1,11.5c5.4,3.9,9.3-6,10.3-9.7.6-1,7.5-1.7,7.9-1.5,1.1.7-.9,5.9,3.2,7.5s2.7-.3,4.4-1.3.8,0,1.5-.4c1.8-1.2,3-6.5,3.4-8.7.7-4,1.2-10,1.4-14.1s-.2-7.1-.4-10.7c.5-.1.6-.6,1.8-.4,2.3.5,5.7,5.4,6.8,7.4,4.3,8.3,4.5,21.6,2.3,30.6Z"/>
  <path class="st2" d="M225.4,228.3c-1.7,4.4-7.6,7.3-11.9,8.8-9.8,3.4-20.1,3.5-30,.7s-8.8-3.5-9.9-2.8.5,10.3,1,12.1c4.7,17.5,27.3,27.6,43.2,32.1,4.2,1.2,9.1,1.7,13.1,3s6.4,3.7,10.2,5c9.1,3.1,19.3,2.8,28.5,0s6.6-2.2,7.7-2.9l35.6-2.9c-12.3,4.9-25.4,7.8-38.4,10.3-19,3.7-29.5,2.1-48.3-1.3s-41.8-9.3-56.7-25.4c-13.1-14.2-14.8-33.3,2.5-44.8.7,0,7.9,5.5,9.5,6.4,13.8,8,29.6,8.5,43.9,1.5Z"/>
  <path class="st2" d="M347.2,227.9c-2.1,1.3-3.8,2.6-6.1,3.7-9,4.2-24.9,6.9-34.5,4.9s-5.5-1.6-6.3-4c9.8,1.2,20.4-.7,29-5.5s9.1-7,9.7-7c1.5-.2,4,2.6,5,3.8s2.3,2.9,3.1,4.2Z"/>
  <path class="st2" d="M308.7,137.9c-.1.5.2,1.1-.2,1.7-.9,1.5-7.3.7-9.2.9-11.8.9-22.2,7.6-29,17-1.6,2.2-5.2,9.4-6.8,10.4s-5.9.5-8.4.6c6.3-22.3,32.7-30.7,53.6-30.6Z"/>
  <path class="st2" d="M247.6,107.8c-1.2,2-.9,4.7-1.5,7.1-2,9.6-10.5,24.3-22.2,22.2s-1.2-1.1-1.5-1.2c.6-1,1.4-1.4,1.9-2.5.8-1.8.3-5,.8-5.9s5.4-1.5,6.8-2c3.7-1.4,7.2-4.6,9-8.2s2.5-11,6.6-9.5Z"/>
  <path class="st2" d="M297.8,100.2c.3,3.6.6,7.1.4,10.7s-.7,10.1-1.4,14.1-1.6,7.5-3.4,8.7-1.3.3-1.5.4c1.2-8.5-1.8-16.7-.3-25.2s1.9-7.7,6.2-8.7Z"/>
  <path class="st2" d="M260.2,187.7c0-.3-.6-1.7-.8-1.9-1-1.3-6.1,1.3-8,.7,0-2.2-.9-5.7-.4-7.7s.9-.7,1.1-.7h8c.3,0,1.1,1.4,1,1.9l-.8,7.8Z"/>
  <path class="st2" d="M205.8,140.4c-1.9-.1-4.7.7-5.5-1.4s-1.7-10.8-1.6-13.5.4-.9.4-1c1.3,3.1,5.9,3.5,5.9,7.3s-.5,2.1-.5,3.3,1.2,3.5,1.3,5.3Z"/>
  <path class="st0" d="M278.7,198.7c2.6-2.7,3.6,2.4,4.3,3.7s3.9,4.4-.2,5.7-6.4-7-4.1-9.4Z"/>
  <path class="st0" d="M220.7,198.7c.5.5.5,2.2.8,3.1.6,1.6,3.4,3.6,1.7,5.5s-3.4.9-4.7-.3c-3.4-3-.9-11.5,2.2-8.3Z"/>
  <path class="st4" d="M286.5,235.4c4.4-1.1,12.8,2.5,14,7.2s-.9,4.6-3.1,4.5-2.1-1-2.7,0-.1,2.2-.3,3.1c-.8,4-2.2,7-4.5,10.4-1.2.5-2.7,1.6-2.9,2.9-5.1,1.9-10,3.1-15.5,3.1-.9.6.2,6.7-4.2,8.8s-6.2.9-9.4,1-10.3.9-14.5-.2-2.6-6.6-4.2-7.6-2.8-.1-3.9-.3c-3.5-.4-9.5-1.9-12-4.6s-3.5-5.6-3.8-6.4c-.6-1.4-.9-3.7-1.6-4.7-1.2-1.8-5.2-1-5.5-4.6s5-6.9,8.8-6.9,8.3,1.6,8.4,4.8-2.4,1.8-3.9,2.7,1.8,7.9,3.3,9.2c5.4,4.9,17.1,3,20.5-3.7s-.3-4.3-3.2-6.9c-4.5-4.1-11.7-11.4-7.9-17.9s15.5-4.9,20.2-4.5,9.3,2.1,11.1,4.4c2.9,3.7-1.8,11.8-4.4,14.9s-4.8,4.2-5.7,5.6,1.5,3.8,2.8,4.8c6.5,5.4,19.7,5.8,23.7-2.6s2.6-8.6-.2-8.2-1.6,1.3-3.7.6c-4.6-1.5,1.5-8.4,4.2-9ZM255.4,259.8c-.8.2-3.4,3.5-4.5,4.3s-6.1,2.9-6.7,3.8-.6,3.3.5,4.2,7.3,1.1,8.8.4-.1-10.2,4.2-8-1.9,9.4,5.5,8.1,4.2-3.6,3.7-6.4-4.8-2.7-6.1-3.5-4-3.3-5.3-2.9Z"/>
  <path class="st0" d="M286.5,235.4c-2.7.7-8.9,7.5-4.2,9s2.4-.4,3.7-.6c2.8-.5,1,6.5.2,8.2-4.1,8.4-17.3,8.1-23.7,2.6s-3.8-3.1-2.8-4.8,4.3-4,5.7-5.6c2.6-3.1,7.3-11.1,4.4-14.9s-8.2-4.1-11.1-4.4c-4.7-.4-17.6,0-20.2,4.5-3.9,6.6,3.4,13.8,7.9,17.9s5.6,2.2,3.2,6.9c-3.5,6.7-15.1,8.7-20.5,3.7s-5.3-8.1-3.3-9.2,4,.3,3.9-2.7-5.8-4.8-8.4-4.8c6.9-18.6,29.6-27,47.7-19.9,6.4,2.5,14.3,7.9,17.6,14Z"/>
  <path class="st0" d="M287,263.5c-.6,4-.3,6.7-2,10.7s-5.3,8.5-7.6,10.2-6.1,2.5-7.7,2.9c-9.2,2.8-19.4,3.1-28.5,0s-6.8-3.9-10.2-5c-2.2-3.5-5-6.1-6.5-10.1s-2-6-1.1-8.4c2.5,2.7,8.5,4.1,12,4.6s3.1-.2,3.9.3c1.6.9-.1,6.5,4.2,7.6s10.2.4,14.5.2,6.4.4,9.4-1c4.4-2.1,3.3-8.2,4.2-8.8,5.5,0,10.4-1.3,15.5-3.1Z"/>
  <path class="st2" d="M297.4,247.2c.6,3.9-.8,9.6-4,12.1s-2.4.8-3.6,1.2c2.3-3.4,3.7-6.4,4.5-10.4s0-2.5.3-3.1c.6-.9,2,0,2.7,0Z"/>
  <path class="st0" d="M255.4,259.8c1.3-.3,3.9,2.2,5.3,2.9s5.9,2.3,6.1,3.5c.5,2.8-.6,5.9-3.7,6.4-7.5,1.3-2.4-6.5-5.5-8.1s-2.3,7.1-4.2,8-7.5.6-8.8-.4-1.2-3.1-.5-4.2,5.2-2.7,6.7-3.8,3.8-4.1,4.5-4.3Z"/>
</svg>