<?xml version="1.0" encoding="UTF-8"?>
<svg id="Camada_1" xmlns="http://www.w3.org/2000/svg" version="1.1" xmlns:xlink="http://www.w3.org/1999/xlink" viewBox="0 0 512 512">
  <!-- Generator: Adobe Illustrator 29.2.1, SVG Export Plug-In . SVG Version: 2.1.0 Build 116)  -->
  <defs>
    <style>
      .st0 {
        fill: #fb4242;
      }

      .st1 {
        fill: #ffffffff;
      }

      .st2 {
        fill: #fbfbfb;
      }

      .st3 {
        fill: #ffffffff;
      }

      .st4 {
        fill: #ffffffff;
      }
    </style>
  </defs>
  <path class="st3" d="M101.1,180.8c62.4-7,112.3,55.9,90.8,114.9-28.3,77.7-138,75.8-164.1-3.4-16.8-51,19.8-105.5,73.3-111.5ZM30.9,257.5c-4.1-.8-2.6,2.1-2.7,4.7s-.1,6.4,0,9.6c.1,2.6-1.4,5.4,2.7,4.7,4,37.9,34.2,61.7,69.1,70.3,5.8,1.4,9.4,1.6,15.6,1.4s5.4,1.4,4.7-2.7c68.8-10,94.4-94.5,41.4-139.2-47.8-40.3-124.2-11.1-130.8,51.4Z"/>
  <path class="st4" d="M233.3,249.7c-9.4,8,15.8,13.2,19.9,16.6,13.6,11.1,1.4,31.6-14.3,33-4,.3-21.8-4.3-22.3-7.6s3.9-9.3,6.4-9.7,21.4,13.6,22.2-1c.4-7.9-17.8-7.6-23.8-15.4-15.8-20.4,20.1-39.3,35.9-22.2-3.4,18.3-15.5-.9-23.9,6.3Z"/>
  <path class="st1" d="M378,235.9v21.6c6.3-2.6,15.6-4.9,21.3.4.8.8,4.5,7.7,4.5,8.4v31.8h-13.6v-30.4c0-3.9-12.2-3.1-12.2,0v30.4h-13.6v-62.2h13.6Z"/>
  <path class="st4" d="M424,279.1c-.3,6.9,4.7,10.3,11.4,9.4s8.7-7.6,12.8-.4-12,11.7-18,11.2c-30-2.6-25.6-53.4,8.4-43.6,12.1,3.5,15.6,23.4,9,23.4h-23.7ZM438.9,271c.3-10.6-16.2-10.1-14.2,0h14.2Z"/>
  <path class="st4" d="M459.3,264.3c-.8-.9-9.5-.3-6.8-9.5,10.3,1.2,5.3-1.6,7.4-8.2s14.5-10.4,22.4-9.4c3.4,14.2-11.7,5.8-10.8,17.6h10.8s0,9.5,0,9.5h-10.9s0,33.8,0,33.8h-12.2c-.9-4.5,1.1-32.5,0-33.8Z"/>
  <path class="st4" d="M296.2,255.1c6.2-1.4,24.2-.4,19.7,8.8s-14.6-4.1-16.6,2.4,18.5,4,19.1,17.6c.8,20.2-32.4,16.2-34,9.4s3.5-5.4,5.1-5.8c3.8-1,15.1,6.3,16.6-.9s-17.7-4.4-20-15.1c-1.5-6.7,3.7-14.8,10.2-16.3Z"/>
  <path class="st3" d="M336.9,255.1c7.5-1.5,17-.6,22,5.9-4,10.9-10.2,2.9-15.4,3.2-9.8.6-9.7,19.2-4.3,23.1s16.8-8.5,19.6,2.2-15.6,10.3-21.3,8.9c-21.4-5.3-19.6-39.5-.6-43.4Z"/>
  <path class="st4" d="M277.6,254.8v43.2h-13.6v-41.2c0-3,11-1.9,13.6-2Z"/>
  <path class="st4" d="M277.3,237.5c8.5,8.4-7.5,19.1-12.6,10.5-5.5-9.2,6.5-16.6,12.6-10.5Z"/>
  <path class="st0" d="M120.4,345.3c-6.8,1-13.3,2-20.3,1.4-34.9-8.6-65.1-32.4-69.1-70.3-.5-4.9-.5-14.1,0-18.9,6.6-62.4,83.1-91.6,130.8-51.4,53.1,44.7,27.4,129.2-41.4,139.2ZM148.9,317l1.6-49.1c5.1-4.7,12.4-9.5,14.8-16.4,7-19.8-7.9-41.7-29.5-33.4-2.6,1-5.8,4.2-7.9,4.3-3.8.1-9.5-6.6-20.4-5.4-6.5.7-10.6,6.4-12.4,6.7s-4.1-3.2-6.3-4.2c-28.7-13-48.1,29.2-24.5,46.1s4.5,1.3,4.5,1.5v50h80Z"/>
  <path class="st4" d="M30.9,257.5c-.5,4.9-.5,14.1,0,18.9-4.1.8-2.6-2.1-2.7-4.7-.1-3.2-.1-6.4,0-9.6s-1.4-5.4,2.7-4.7Z"/>
  <path class="st4" d="M120.4,345.3c.8,4.1-2.1,2.6-4.7,2.7-6.3.2-9.8,0-15.6-1.4,7,.7,13.5-.4,20.3-1.4Z"/>
  <path class="st4" d="M148.9,317h-80v-50c0-.2-3-.4-4.5-1.5-23.6-16.9-4.2-59,24.5-46.1,2.2,1,4.4,4.6,6.3,4.2s5.8-6,12.4-6.7c10.9-1.2,16.6,5.5,20.4,5.4s5.3-3.3,7.9-4.3c21.5-8.3,36.5,13.6,29.5,33.4-2.4,6.8-9.6,11.7-14.8,16.4l-1.6,49.1ZM143.4,310.2v-46.6c0-.8,9.5-4.7,12.2-8.1,17.7-22-11.9-48.5-27.8-22.3-1.7.7-4.5-5.2-7.5-7.3-9.2-6.5-20.3-2.6-24.3,7.3-2.4,1.7-7.2-7.9-11.8-9.1-17.7-4.5-28.1,12.7-22.7,28.1,3.1,8.9,14,10.4,14.3,11.7,1.3,5.3.2,26.6,0,33.6-.1,3.6-3.3,11.3-.1,13.5,5.7,4,57.3-3.4,67.9-.8Z"/>
  <path class="st2" d="M143.4,310.2c-10.5-2.6-62.2,4.7-67.9.8s0-10,.1-13.5c.2-7,1.3-28.3,0-33.6-.3-1.3-11.2-2.8-14.3-11.7-5.4-15.4,5-32.6,22.7-28.1,4.6,1.2,9.4,10.8,11.8,9.1,4-10,15.1-13.8,24.3-7.3,3,2.2,5.8,8,7.5,7.3,15.9-26.2,45.4.3,27.8,22.3-2.7,3.4-12.2,7.3-12.2,8.1v46.6Z"/>
</svg>