<?xml version="1.0" encoding="UTF-8"?>
<svg id="Camada_1" xmlns="http://www.w3.org/2000/svg" version="1.1" xmlns:xlink="http://www.w3.org/1999/xlink" viewBox="0 0 512 512">
  <!-- Generator: Adobe Illustrator 29.2.1, SVG Export Plug-In . SVG Version: 2.1.0 Build 116)  -->
  <defs>
    <style>
      .st0 {
        fill: #c2271e;
      }

      .st1 {
        fill: #282425;
      }

      .st2 {
        fill: #f7c10b;
      }

      .st3 {
        fill: #c2291f;
      }

      .st4 {
        fill: #fefefe;
      }

      .st5 {
        fill: #f7c10f;
      }
    </style>
  </defs>
  <path class="st0" d="M433.7,264.8v56.8h-14.4v-4.2c-2.5,2.6-5.3,4.3-8.9,4.9-20.3,3.4-28.6-24-16.2-37.4s18.6-7.9,25.2-.4v-19.7h14.4ZM409,291.8c-2.3.4-4.9,3.2-5.7,5.3-2.5,7,2.2,14.3,10,13s5.4-2.4,5.9-4,.2-9.4,0-10.4c-.8-3.7-7.2-4.5-10.2-4Z"/>
  <path class="st3" d="M308.7,300.4v21.2h-14.8v-56.8h29.7c3.9,0,10,3.5,12.5,6.4,9.5,10.9,1.2,29.1-13.3,29.1h-14.2ZM308.7,288.3h11.5c.2,0,2.3-1,2.6-1.2,2.5-1.6,3.2-5,1.6-7.5s-3-2.3-3.4-2.3h-12.3v11Z"/>
  <path class="st0" d="M92,264.8l14.4,35.9,14-35.9h15.7l-22.9,56.8c-.8.9-11.6,0-13.6.4l-23.6-57.2h16.1Z"/>
  <path class="st5" d="M184.8,168.1c3.8,3.9,2.7,8.3-.3,12.2-13,16.9-30.2,35.2-44.8,50.9-5.6,6-13.6,15.4-19.7,20.4s-7.7,4.2-12.2,2-15.7-11.2-21.3-15.4-9-6.9-13.3-10.6c-.1-1,.6-.6,1.1-.4,1.9.7,4.8,2.5,6.7,3.5,9.9,5.4,19.5,11.3,29.1,17.1,1.1.6,2.4.6,3.5.1,17.2-18.6,34.8-36.9,52.9-54.6s7.2-6.5,10.6-9.8,11.2-9.1,5.5-14.2-12-7.5-16.4-10.1c-8-4.7-16.2-9-24.1-13.8s-10.7-7.7-15.4-10-1.7-.9-3.2-.5c-2.2.6-7.2,7.1-9.1,9-4.6,4.7-9.7,10.2-14.6,14.6s-3.8,3.5-4.4,3l5.7-8.4c2.9-3.8,5.7-7.7,8.7-11.4,4.6-5.8,8.7-13.8,17.2-12.7s15,8.8,18.1,11c8.9,6.1,17.5,12.9,26.3,19.2s10.8,6.4,13.2,8.9Z"/>
  <path class="st0" d="M151.9,279.3c33.8-3.5,35.5,43.4,3.3,43.4-29.5,0-31-40.6-3.3-43.4ZM153,291.8c-9.1,1.5-9.2,17.7,1.4,18.5,13.3.9,12.9-20.9-1.4-18.5Z"/>
  <path class="st3" d="M238.7,304.5c1.2,5.4,9.2,6.4,13.8,6,3.9-.3,7.5-2.3,11.2-3.4v10.8c-1.8,1.6-4.5,2.7-6.8,3.4-17.5,4.9-35.6-4.7-32.5-24.5,3.5-22.7,37.2-24.3,41.2-.8.2,1.1,1,8.5-.1,8.5h-26.7ZM251.6,296.6c-.4-9.1-12.2-8.8-13.3,0h13.3Z"/>
  <path class="st3" d="M383.3,304.5h-27.3c4.6,9.2,17.5,6.3,25,2.6v11.4c-2.5,1.3-4.8,2.5-7.6,3.2-16.2,3.6-33.1-4.1-31.7-22.6,1.6-22.5,33-27.5,40.4-7.1.3.7,1.2,3.9,1.2,4.5v8.1ZM369.3,296.6c-.6-9.1-12.6-8.8-13.3,0h13.3Z"/>
  <path class="st3" d="M482.5,304.5h-27.3c4.6,9.2,17.5,6.3,25,2.6v11.4c-2.5,1.3-4.8,2.5-7.6,3.2-16.2,3.6-33.1-4.1-31.7-22.6,1.6-22.2,32.4-27.7,40.3-7.4s1.3,3.7,1.3,4.3v8.5ZM468.5,296.6c-.6-9.1-12.6-8.8-13.3,0h13.3Z"/>
  <path class="st0" d="M218.2,281.5v12.1c-4.9-1.2-9.2-2.8-14.2-1.2-8.9,2.9-8.5,14.7.7,17.2s9.6-.2,14.3-1.6v11.5c-1.4,1.1-3.7,1.7-5.4,2.1-16.9,3.9-31.9-5.6-30.1-24s21.3-22.1,34.8-16.1Z"/>
  <path class="st3" d="M261.8,275h-11.9c-.4,0-4.2-5-4.9-5.7-.8.5-4.5,5.7-4.9,5.7h-11.9c-.2-.7.3-.8.6-1.1,2.9-3.9,6.6-7.3,9.4-11.3h14.3c2.4,3.9,6.5,7.3,8.9,10.9s.7.9.6,1.5Z"/>
  <path class="st1" d="M428,366.6h-3v-10.8c0-.4-.8-2.2-1.1-2.7-1.9-2.6-5.9-2.2-7.5.4s-.8,1.7-.8,1.8v11.2h-3v-11.2c0-.1-.7-1.6-.8-1.8-2.4-4.1-8.7-1.6-8.7,1.5v11.5h-3v-17.8c2,0,3-.4,3.2,1.9,2.7-3.7,8.9-3,11,1.1,2.7-4.9,10.9-4.6,13.1.5s.7,1.9.7,2v12.3Z"/>
  <path class="st1" d="M331.4,366.6c-.6-.1-3.3.1-3.4,0s.3-2.6-.2-2.7c-3.2,5-12,3.7-14.5-1.4-5-10.1,6.4-19.3,14.7-11.5v-2.7c.6,0,3.4-.2,3.4.6v17.6ZM326.4,362.3c1.2-1.2,1.7-3.4,1.7-5-.2-9.1-14.5-7.8-12.4,2.2s7.6,6,10.8,2.8Z"/>
  <path class="st1" d="M385.6,366.6c-.6-.1-3.3.1-3.4,0s.3-2.6-.2-2.7c-3.4,5.1-11.8,4-14.5-1.4-5.1-10.1,6.5-19,14.7-11.5-1.3-3.3,3.4-3.1,3.4-2.1v17.6ZM374.1,351.5c-6.8,1.3-5.8,13.3,2.1,12.8s7.8-14.6-2.1-12.8Z"/>
  <path class="st1" d="M450.7,367h-3s0-3,0-3c-.7.6-.9,1.2-1.8,1.8-4.9,3.4-12,.8-13.6-4.8-3-10.1,8.1-17,15.4-9.5-.3-3.3,0-2.7,3-2.6v18.2ZM440,351.6c-7.7,1.3-6.4,13.8,2.1,12.7,8-1,7.1-14.3-2.1-12.7Z"/>
  <path class="st1" d="M471,350.8c2.5,2.5,3.1,6.7,2.1,10-3,9.8-20.5,8.1-18.1-5.6s11-9.4,16-4.4ZM463.1,351.2c-6.8,1.1-6.7,11.8-.4,12.8,10.5,1.7,9.9-14.3.4-12.8Z"/>
  <path class="st1" d="M345.4,349c.2-.7,2.7-.8,3-.5s.3,1.8.4,2.2c3.4-3.5,10.5-3.2,12.8,1.4s1.2,3.4,1.2,4.1v10.4h-3.4v-10.8c0-.1-.6-1.7-.7-2-2.3-4.5-9.9-1.8-9.9,1.6v11.2h-3.4v-17.6Z"/>
  <polygon class="st1" points="314.4 341.2 314.4 344.3 305.7 344.3 305.7 366.6 302.7 366.6 302.7 344.3 294 344.3 294 341.2 314.4 341.2"/>
  <rect class="st1" x="478" y="341.2" width="3.4" height="19.7"/>
  <path class="st5" d="M148.9,198.1c-1.4,1.4-2.9.7-4.2-.3s-4.9-4.4-5.1-4.8c-.9-1.7-.5-3.5,1.4-4.1s2.6.5,3.8,1.5,3.9,3.5,4.2,4.1c.7,1.1.8,2.6-.2,3.6Z"/>
  <path class="st5" d="M143,184.9c-1.7-1.3-.8-4.3,1.3-4.7s7.6-.5,8.2-.4c2.9.6,2.9,4.7-.8,5.4s-7.6.5-8.6-.3Z"/>
  <path class="st5" d="M130.7,162c.7-.2,2.1-.2,2.8.1,1.7.8,1.4,7.9,1.5,9.8-.6,2.5-4.6,3-5.2.3s-.7-6.6-.4-8.2.6-1.8,1.4-2Z"/>
  <path class="st5" d="M144.7,166.9c1.7-.4,3.4,0,3.5,2,.3,2.8-4.2,5.4-5.6,7.7-2.8,1.4-5.3-.6-4-3.6s4.1-4.8,4.6-5.2.9-.7,1.4-.8Z"/>
  <path class="st1" d="M436.7,344.3c-.1-1.5,1.4-3.3,2.9-3.4s2.4,1.1,3.8,1.2,1.7-.8,2.5-.7c2.8.4.5,3.5-1.5,3.7s-2.5-1-3.8-1.1-2.3,1.3-3.9.4Z"/>
  <path class="st1" d="M326.1,340.9c.3.3-3.1,4.9-3.4,5.1-.8.5-2.1,0-3,.2-.3-.3,2.3-4.9,2.6-5.1.8-.5,2.8,0,3.8-.2Z"/>
  <path class="st1" d="M479.4,362.5c3.2-.6,3.8,4.2.6,4.5s-3.4-4-.6-4.5Z"/>
  <path class="st2" d="M91.4,176.7c5.5-2.1,11.9,0,10.4,6.8s-1.1,1.9-1.3,3c3.4-.7,6.5-2.3,9.8-3.2,4.8-1.3,14.4-3.6,19.1-4s4.5-.2,5.6,1.9,0,5-2.3,6.3c-3.7,2.3-10.1,3.8-14.3,5.8s-11.2,6.6-17.3,9c-.4.5,3.2,3.6,3.7,4.4,7.6,10.9-12.4,15.7-19.8,15.7s-13.1-3.4-21.9,4.2c-16.4,14-11.7,33.9-2,50.4,1.3,2.2,3.3,4.2,3.9,6.7-14.3-9.7-27.6-23.1-32.6-40.1s.2-41.1,12.7-56.5c7.5-9.2,17.7-15.7,26.7-23.2,2.7-1.2,5.9-.2,6.7,2.7s.1,3.2.8,3.3c6.5-4.9,13.1-1.5,11.9,6.8ZM99.9,186.5v.4c.2-.1.2-.3,0-.4Z"/>
  <path class="st4" d="M99.9,186.5c.2.1.2.3,0,.4v-.4Z"/>
</svg>