<?xml version="1.0" encoding="UTF-8"?>
<svg id="Camada_1" xmlns="http://www.w3.org/2000/svg" version="1.1" xmlns:xlink="http://www.w3.org/1999/xlink" viewBox="0 0 512 512">
  <!-- Generator: Adobe Illustrator 29.2.1, SVG Export Plug-In . SVG Version: 2.1.0 Build 116)  -->
  <defs>
    <style>
      .st0 {
        fill: #014fc7;
      }

      .st1 {
        fill: #115acb;
      }

      .st2 {
        fill: #0753c9;
      }

      .st3 {
        fill: #0250c8;
      }

      .st4 {
        fill: #03eff9;
      }
    </style>
  </defs>
  <path class="st0" d="M353.7,120.4c13.9-1.3,50.5-2.2,63.4,0s18.8,16.3,12.9,27.6-7.6,6.7-7.7,7.5,7.1,15.8,8.1,19.9c16.8,68.5-63.1,119.1-117.1,74.7-50.9-41.8-25.2-123.5,40.4-129.7ZM353.7,157.2c-44.9,6.1-39.2,79.1,12.6,72.2,43.7-5.8,37.8-79.1-12.6-72.2Z"/>
  <path class="st0" d="M130.5,229.5h25.5c4,0,10.6,4.3,13,7.6,8.3,11,2.7,26.7-11.1,29-22.2,3.7-53.4-2-76.5,0-14.4-3.6-18.9-20.3-8.9-31.2l77.6-78h-67.8c-.5,0-6.5-2.8-7.4-3.4-13.5-8.9-8.6-30.4,7.7-33.2,35.9,2.2,77.3-3.8,112.5-.2s23.3,17,14,30.2l-78.5,79.2Z"/>
  <path class="st3" d="M413.3,252.5c9.9-.8,19.4,8,19.7,17.8,1.1,37.1-38.9,69.6-74.3,69.8-19.9.1-50.9-13.3-60.7-31.4s6.6-32.9,23.8-26,9.6,10,15.5,13.8c17.9,11.6,41.2,7.6,52.9-10.7s4.4-31.8,23.2-33.3Z"/>
  <path class="st0" d="M245.2,127.9c12.7-2.4,22,4.8,23.1,17.6,2.9,33-2.2,70.5-.2,104-2.7,22.6-34.6,23.4-36.8-2-2.9-33.1,2.1-70.4.1-104,1.2-7.2,6.2-14.2,13.7-15.6Z"/>
  <path class="st4" d="M245.2,87.8c28.1-5.8,30.7,36.7,4.3,36.2-21.8-.5-23.9-32.1-4.3-36.2Z"/>
  <path class="st4" d="M193.2,229.8c23.5-2.3,27.1,33.5,5,36.5-26,3.5-28.6-34.2-5-36.5Z"/>
  <path class="st2" d="M158.7,367.2v28.7c0,9.9-23.7,11.9-23.9-.5,7.1-.7,16.6,7.8,17.3-4.3-20.8,12.2-27-24-7-23.9s5,1.9,6.7,2,4.2-3,6.9-1.9ZM144.3,373.8c-7,1.9-6.1,15.6,3.9,12.6,7.4-2.2,3.8-14.7-3.9-12.6Z"/>
  <path class="st1" d="M62.1,357.4c10.2-1.6,7.4,4.6,7.6,11.9,3.9-2.9,10.5-3.1,14.1.5s3.2,5.1,3.2,5.5v19h-7.6v-17.9c0-3-9.8-3-9.8,0v17.9h-7.6v-36.8Z"/>
  <path class="st2" d="M207.5,357.4h6.5s0,11.9,0,11.9c22-11,27.6,28.2,3.8,24.9s-3.3-1.8-4.4-2.1-1.3,4-5.9,2.2v-36.8ZM218,373.9c-7.7,2.3-6.5,17.2,5,13.7,7.3-2.2,3.3-16.1-5-13.7Z"/>
  <path class="st3" d="M445,357.4h6.5s0,11.9,0,11.9c.8.8,7.4-5.5,14.1.5s3.2,3.9,3.2,4.4v20h-6.5v-16.8c0-.6-3.6-3.7-4.9-3.9s-5.9,2.9-5.9,3.9v16.8h-6.5v-36.8Z"/>
  <path class="st1" d="M332.2,367.2v27.1c-2.7,1.3-5.8-1.7-7.1-1.7-2.8-.2-5.3,4.3-11.6,1.5s-6.3-5.6-6.3-7.8v-19c1.5-.2,7.6-.3,7.6,1.6v16.3c0,3.4,9.8,3.4,9.8,0v-16.3c0-1.9,6.1-1.8,7.6-1.6Z"/>
  <path class="st2" d="M117.5,383.4h-18.4c1.2,7.4,8.7,3.1,13.5,3.2s.1,5.7-3,6.8c-21.8,7.3-24.7-25.6-5.6-26.3s14.1,8.2,13.5,16.3ZM109.9,379.1c0-7.5-9.6-6.7-11.9-.5l11.9.5Z"/>
  <path class="st1" d="M362.6,394.3h-7.6v-17.9c0-3-9.8-3-9.8,0v17.9h-7.6v-27.1c2.9-1.4,6.5,2.1,7.9,2,2.5-.2,3.5-2.7,8.6-1.7s8.4,5.1,8.4,7.9v19Z"/>
  <path class="st2" d="M411.4,383.4h-18.4c2.1,7.7,9.2,3,14.6,3.2s3.6-.5,2.7,1.7c-4.4,10.7-25.5,6.9-25-7.5.6-19,29.4-17.6,26.1,2.7ZM403.5,375c-3.5-3.2-10.3-.9-10.6,4h11.9c.5-.5-.8-3.5-1.4-4Z"/>
  <path class="st2" d="M259.6,394.3c-6.7-2.4-22.9,4.5-22.9-7s10-9.7,16.4-9.2c-3-9.1-8.8-.7-15.2-2.2.6-8.8,13.3-11.4,18.9-5.4s2.8,4.5,2.8,4.8v19ZM253,382.3c-18.4-.4-5.6,13.2-.8,4.1s1-2.6.8-4.1Z"/>
  <path class="st2" d="M186.6,367.4c19.7-3.8,22.5,30.3-.2,26.8-14.3-2.2-13.5-24.1.2-26.8ZM187.7,373.9c-8.8,1.9-6.1,17.5,5,13.7s4.8-15.8-5-13.7Z"/>
  <path class="st2" d="M440.7,378c-7.4,2.3-9.5-7.5-16.2-2.7s-3.8,10.9.7,12.2c6.6,2,8.5-5.4,15.5-3.1-3.1,13.9-23.4,13.1-25.8-.8-3-17.3,22-23.9,25.8-5.7Z"/>
  <path class="st2" d="M58.9,357.4v6.5s-10.8,0-10.8,0v30.3h-6.5v-28.7c0-2.4-8.8-1.5-10.9-1.6v-6.5h28.2Z"/>
  <path class="st1" d="M291,374.8c-.3-.2-2.7.4-3.1,0s-.3-6,0-6.3,2.4.3,2.9-.2.6-5.9,2.7-8.2,7-2.7,10.5-2.5c-.2,1.9.4,4.2,0,5.9s-7.2-.3-5.5,4.9c1.2.2,5.1-.3,5.4,0s.2,6.3,0,6.5-4.2-.2-5.4,0v19.5h-7.6c-.5-2.7.7-18.8,0-19.5Z"/>
  <path class="st3" d="M376.7,361.7c-1.9,8.7,4.1,4.2,5.4,5.4s.2,6.3,0,6.5c-.4.4-5-.4-5.4,0s-.3,12.2,1,13.7c2.1,2.5,6-.4,4.5,6.9-16.4,4.8-10.5-19.3-11.9-20.6s-4,.4-4.4,0-.2-4.9.2-5.3,3.1-.2,4.3-1.7c2.4-3-1.8-6.3,6.4-5Z"/>
  <path class="st1" d="M171.7,357.4v36.8h-7.6v-35.2c0-1.9,6.1-1.8,7.6-1.6Z"/>
  <rect class="st3" x="265" y="357.4" width="6.5" height="36.8"/>
</svg>