<?xml version="1.0" encoding="UTF-8"?>
<svg id="Camada_1" data-name="Camada 1" xmlns="http://www.w3.org/2000/svg" viewBox="0 0 1958.5 385.87">
  <defs>
    <style>
      .cls-1 {
        fill: #6841fa;
      }

      .cls-2 {
        isolation: isolate;
      }
    </style>
  </defs>
  <g class="cls-2">
    <path class="cls-1" d="M105.32,151.07c-7.37,0-14.16,1.21-20.37,3.63-6.22,2.42-11.57,5.76-16.06,10.01-4.49,4.26-8,9.32-10.53,15.19-2.54,5.87-3.8,12.15-3.8,18.82v94.96H15.54V121.03h39.02v20.03c6.22-8.06,13.69-14.33,22.44-18.82,8.75-4.49,18.18-6.73,28.31-6.73v35.57Z"/>
    <path class="cls-1" d="M151.58,221.51c1.38,6.45,3.74,12.43,7.08,17.96,3.33,5.52,7.42,10.3,12.26,14.33,4.83,4.03,10.24,7.2,16.23,9.5,5.98,2.3,12.31,3.45,18.99,3.45,9.21,0,17.66-2.24,25.38-6.73,7.71-4.49,14.21-10.53,19.51-18.13l33.49,16.23c-8.75,13.12-19.97,23.6-33.67,31.42-13.7,7.82-28.83,11.74-45.41,11.74-12.89,0-25.04-2.42-36.43-7.25-11.39-4.83-21.29-11.51-29.7-20.03-8.41-8.51-15.08-18.42-20.03-29.7-4.95-11.28-7.42-23.36-7.42-36.26s2.47-24.98,7.42-36.26c4.95-11.28,11.62-21.18,20.03-29.7,8.4-8.51,18.3-15.19,29.7-20.03,11.39-4.83,23.42-7.25,36.08-7.25s24.52,2.36,35.57,7.08c11.05,4.72,20.77,11.05,29.18,18.99,8.4,7.94,15.07,17.27,20.03,27.97,4.95,10.7,7.65,22.05,8.11,34.01.46,5.52-1.21,10.01-5.01,13.47s-8.69,5.18-14.68,5.18h-126.72ZM256.9,192.16c-1.61-5.98-3.97-11.62-7.08-16.92-3.11-5.29-6.91-9.84-11.4-13.64-4.49-3.8-9.55-6.79-15.19-8.98-5.64-2.19-11.57-3.28-17.78-3.28s-12.55,1.1-18.3,3.28c-5.76,2.19-10.94,5.18-15.54,8.98-4.61,3.8-8.58,8.35-11.91,13.64-3.34,5.3-5.82,10.94-7.43,16.92h104.63Z"/>
    <path class="cls-1" d="M352.2,207.7c0,7.83,1.43,15.31,4.32,22.44,2.88,7.14,6.85,13.35,11.91,18.65,5.06,5.3,10.93,9.55,17.61,12.78,6.67,3.23,13.81,4.83,21.41,4.83,8.05,0,15.54-1.67,22.44-5.01,6.91-3.33,13-7.88,18.3-13.64l27.97,23.13c-8.75,9.44-18.99,16.81-30.73,22.1s-24.52,7.94-38.33,7.94c-12.89,0-24.98-2.42-36.26-7.25-11.28-4.83-21.18-11.51-29.7-20.03-8.52-8.51-15.19-18.41-20.03-29.7-4.83-11.28-7.25-23.36-7.25-36.26s2.47-24.92,7.42-36.08c4.95-11.16,11.62-21,20.03-29.52,8.4-8.51,18.3-15.19,29.7-20.03,11.4-4.83,23.54-7.25,36.43-7.25,13.81,0,26.53,2.65,38.16,7.94,11.62,5.3,21.81,12.66,30.56,22.1l-27.62,23.14c-5.3-5.52-11.4-9.95-18.3-13.29-6.91-3.33-14.39-5.01-22.45-5.01-7.6,0-14.79,1.55-21.58,4.66-6.79,3.11-12.72,7.31-17.78,12.6-5.07,5.3-9.04,11.45-11.91,18.47-2.88,7.02-4.32,14.45-4.32,22.27Z"/>
    <path class="cls-1" d="M906.39,195.61c0-6.67-1.04-12.78-3.11-18.3-2.07-5.52-4.95-10.24-8.63-14.16-3.68-3.91-7.89-6.91-12.6-8.98-4.72-2.07-9.84-3.11-15.37-3.11s-11.22,1.15-16.4,3.45c-5.18,2.3-9.61,5.47-13.29,9.5-3.68,4.03-6.62,8.75-8.8,14.16-2.19,5.41-3.28,11.22-3.28,17.44v98.07h-39.02V121.03h39.02v17.96c6.67-7.36,14.16-13.12,22.44-17.27s17.61-6.22,27.97-6.22c12.2,0,23.42,2.99,33.67,8.98,10.24,5.99,18.36,13.81,24.34,23.48,8.51-10.59,18.01-18.65,28.49-24.17,10.47-5.52,21.58-8.29,33.32-8.29,9.67,0,18.82,1.85,27.45,5.52,8.63,3.69,16.11,8.86,22.45,15.54,6.33,6.68,11.39,14.62,15.19,23.83,3.8,9.21,5.7,19.34,5.7,30.39v102.9h-39.02v-98.07c0-6.67-1.04-12.78-3.11-18.3s-4.95-10.24-8.63-14.16c-3.68-3.91-7.89-6.91-12.6-8.98-4.72-2.07-9.84-3.11-15.37-3.11s-11.22,1.15-16.4,3.45c-5.18,2.3-9.61,5.47-13.29,9.5-3.68,4.03-6.62,8.75-8.8,14.16-2.19,5.41-3.28,11.22-3.28,17.44v98.07h-39.02v-98.07Z"/>
    <path class="cls-1" d="M1282.42,208.04c0,12.89-2.3,24.98-6.91,36.26-4.61,11.28-10.82,21.18-18.65,29.7-7.83,8.52-17.04,15.19-27.62,20.03-10.59,4.83-21.87,7.25-33.84,7.25s-22.33-2.19-32.46-6.56c-10.13-4.37-19.11-10.47-26.93-18.3v86.67h-39.02V121.03h39.02v18.65c7.82-7.82,16.8-13.93,26.93-18.3,10.13-4.37,20.94-6.56,32.46-6.56s23.25,2.42,33.84,7.25c10.59,4.83,19.8,11.51,27.62,20.03,7.82,8.52,14.04,18.42,18.65,29.7,4.6,11.28,6.91,23.37,6.91,36.26ZM1244.09,207.7c0-7.82-1.44-15.25-4.32-22.27-2.88-7.02-6.79-13.18-11.74-18.47-4.95-5.29-10.76-9.5-17.44-12.6-6.68-3.11-13.81-4.66-21.41-4.66s-14.33,1.55-20.89,4.66c-6.56,3.11-12.26,7.31-17.09,12.6-4.83,5.3-8.69,11.45-11.57,18.47-2.88,7.02-4.32,14.45-4.32,22.27s1.43,15.31,4.32,22.44c2.88,7.14,6.73,13.41,11.57,18.82,4.83,5.41,10.53,9.67,17.09,12.78s13.52,4.66,20.89,4.66,14.73-1.55,21.41-4.66c6.67-3.11,12.48-7.36,17.44-12.78,4.95-5.41,8.86-11.68,11.74-18.82,2.88-7.13,4.32-14.62,4.32-22.44Z"/>
    <path class="cls-1" d="M1394.64,151.07c-7.37,0-14.16,1.21-20.37,3.63-6.21,2.42-11.57,5.76-16.06,10.01-4.49,4.26-8,9.32-10.53,15.19-2.54,5.87-3.8,12.15-3.8,18.82v94.96h-39.02V121.03h39.02v20.03c6.21-8.06,13.69-14.33,22.44-18.82,8.75-4.49,18.18-6.73,28.31-6.73v35.57Z"/>
    <path class="cls-1" d="M1401.2,208.04c0-12.89,2.3-24.98,6.91-36.26,4.6-11.28,10.82-21.18,18.65-29.7,7.82-8.51,17.03-15.19,27.62-20.03,10.59-4.83,21.87-7.25,33.84-7.25s22.33,2.19,32.46,6.56c10.13,4.38,18.99,10.48,26.59,18.3v-18.65h39.36v172.65h-39.36v-17.26c-7.6,7.83-16.46,13.93-26.59,18.3-10.13,4.37-20.95,6.56-32.46,6.56s-23.25-2.42-33.84-7.25c-10.59-4.83-19.8-11.51-27.62-20.03-7.83-8.51-14.04-18.42-18.65-29.7-4.61-11.28-6.91-23.36-6.91-36.26ZM1439.52,207.7c0,7.83,1.44,15.31,4.32,22.44,2.88,7.14,6.79,13.41,11.74,18.82,4.95,5.41,10.76,9.67,17.44,12.78,6.67,3.11,13.81,4.66,21.41,4.66s14.33-1.55,20.89-4.66,12.26-7.36,17.09-12.78c4.83-5.41,8.69-11.68,11.57-18.82,2.88-7.13,4.32-14.62,4.32-22.44s-1.44-15.25-4.32-22.27c-2.88-7.02-6.73-13.18-11.57-18.47-4.83-5.29-10.53-9.5-17.09-12.6-6.56-3.11-13.53-4.66-20.89-4.66s-14.73,1.55-21.41,4.66c-6.68,3.11-12.49,7.31-17.44,12.6-4.95,5.3-8.87,11.45-11.74,18.47-2.88,7.02-4.32,14.45-4.32,22.27Z"/>
    <path class="cls-1" d="M1613.55,276.41c0-6.67,2.36-12.37,7.08-17.09s10.41-7.08,17.09-7.08,12.37,2.36,17.09,7.08c4.72,4.72,7.08,10.42,7.08,17.09s-2.36,12.38-7.08,17.09c-4.72,4.72-10.42,7.08-17.09,7.08s-12.38-2.36-17.09-7.08c-4.72-4.71-7.08-10.41-7.08-17.09Z"/>
    <path class="cls-1" d="M1680.54,208.04c0-12.89,2.3-24.98,6.91-36.26,4.6-11.28,10.82-21.18,18.65-29.7,7.82-8.51,17.03-15.19,27.62-20.03,10.59-4.83,21.87-7.25,33.84-7.25s22.33,2.19,32.46,6.56c10.13,4.38,18.99,10.48,26.59,18.3v-18.65h39.36v172.65h-39.36v-17.26c-7.6,7.83-16.46,13.93-26.59,18.3-10.13,4.37-20.95,6.56-32.46,6.56s-23.25-2.42-33.84-7.25c-10.59-4.83-19.8-11.51-27.62-20.03-7.83-8.51-14.04-18.42-18.65-29.7-4.61-11.28-6.91-23.36-6.91-36.26ZM1718.86,207.7c0,7.83,1.44,15.31,4.32,22.44,2.88,7.14,6.79,13.41,11.74,18.82,4.95,5.41,10.76,9.67,17.44,12.78,6.67,3.11,13.81,4.66,21.41,4.66s14.33-1.55,20.89-4.66,12.26-7.36,17.09-12.78c4.83-5.41,8.69-11.68,11.57-18.82,2.88-7.13,4.32-14.62,4.32-22.44s-1.44-15.25-4.32-22.27c-2.88-7.02-6.73-13.18-11.57-18.47-4.83-5.29-10.53-9.5-17.09-12.6-6.56-3.11-13.53-4.66-20.89-4.66s-14.73,1.55-21.41,4.66c-6.68,3.11-12.49,7.31-17.44,12.6-4.95,5.3-8.87,11.45-11.74,18.47-2.88,7.02-4.32,14.45-4.32,22.27Z"/>
    <path class="cls-1" d="M1888.06,101.34l29-49.38h41.44l-40.05,49.38h-30.39ZM1898.07,121.03h39.02v172.65h-39.02V121.03Z"/>
  </g>
  <g>
    <path class="cls-1" d="M709,87.48c-2.3.9-3.6,2.5-4.5,5.3-.3,1-.3,2.9-.4,14v12.9c-.1,0-65.2.1-65.2.1-35.8,0-65.6.2-66.1.2s-2.2.2-3.6.3c-14.7,1.2-27.9,5.3-37.6,11.6-7.9,5.2-13.6,11.6-17.6,19.8-2.6,5.4-4.3,10.9-5,17-.4,3.1-.4,4.1-.4,33.7v30.5l13.3-13c7.3-7.1,14.5-14.3,16-16l2.8-3v-12c0-11.4,0-12.1.4-13.6,1.2-4.5,3.4-8.5,6.7-11.9,5.9-6.2,14.1-9.7,25.9-11.2,2.7-.3,7.6-.3,66-.4h64.3v13c0,13.9,0,13.7,1.1,15.9,1.8,3.7,5.8,4.8,10.2,2.7,1.3-.6,2.1-1.4,20.7-20.4,10.7-10.9,19.8-20.4,20.4-21.1,1.7-2.2,3-5.1,3-6.6,0-1-1-3.3-1.9-4.8-.6-.9-8.3-8.9-21-21.8-19.5-19.9-20.1-20.5-21.3-21-1.6-.6-3.7-1.2-4.5-1.1-.4,0-1.2.2-1.9.5l.2.4Z"/>
    <path class="cls-1" d="M740.9,187.88c-6,5.9-13.2,13-16,15.9l-5.2,5.3v12.4l-.1,12.4-.6,1.8c-.8,2.5-2.7,6.3-4.2,8.4-2.8,3.7-6.6,6.9-11.2,9.2-4.3,2.1-8.6,3.4-14.6,4.4l-2.8.5h-64.9c-52.2.1-64.9,0-65.1-.1,0-.1-.2-5.8-.2-12.6,0-11.7,0-12.5-.4-14-.5-2-1.1-3-2.5-4.2-1.6-1.5-3.8-1.9-6.4-1.2-2.9.7-2.4.3-19.5,17.7-8.7,8.8-17.7,18.1-20,20.5-4.4,4.5-5.6,6-6.4,8.1-.7,1.8-.7,2.5-.1,4.1.9,2.4,2.1,4,6.4,8.4,2.2,2.2,11.2,11.4,20,20.5,8.8,9,16.3,16.6,16.7,16.7.9.5,4.4,1.6,5.1,1.6.9,0,2.9-.7,3.8-1.4,1.1-.8,2.1-2.3,2.7-3.9.4-1.3.4-1.5.5-14,0-7,.1-12.9.2-13.1v-.4h65c47.5,0,65.6-.1,67.5-.3,7.8-.7,13.3-1.5,18.6-2.9,9.6-2.4,17.8-6.1,24.5-11.2,2.5-1.8,6.7-6,8.7-8.4,5.8-7.2,9.4-15.7,11-26,.3-2.1.3-5,.4-30.6v-34.1l-10.9,10.7v-.2Z"/>
  </g>
</svg>