<?xml version="1.0" encoding="UTF-8"?>
<svg xmlns="http://www.w3.org/2000/svg" viewBox="0 0 767.42 703.9">
  <path fill="#fff" d="M24.04,344.03c0-87.01,0-88.89,1.23-98.41,2.07-17.96,7.09-35.03,15.34-52.17,12.29-25.19,30.03-45.17,54.28-61.12,29.36-19.07,69.52-31.51,113.13-35.07h.1c1.75-.13,3.68-.32,5.38-.48,2.92-.28,4.51-.42,5.71-.42.18,0,1.25,0,3.15-.02,61.34-.36,127.93-.56,187.5-.56,16.39-.03,141.5-.22,178.06-.27v-27.22l.05-5.13c.27-30.81.3-34.03,1.53-38.12l.06-.19c1.54-4.78,4.09-10.91,9.52-15.83l-1.28-2.57,9.75-4.18c1.17-.5,5.1-2.07,8.8-2.24.39-.03.79-.05,1.19-.05,5.12,0,12.84,2.69,15.92,3.84l.17.06.17.07q5.4,2.25,64.73,62.8c58.43,59.35,60.93,63.1,61.75,64.33l.13.2.12.2c.71,1.18,6.91,11.72,6.91,18.99,0,7.73-5.57,18.46-10.74,25.15l-.16.2-.17.19c-2.14,2.5-29.29,30.78-59.3,61.36-56.96,58.18-57.14,58.37-62.6,60.89-5.57,2.65-11.14,3.99-16.55,3.99-11.49,0-20.99-5.98-26.08-16.4l-.11-.22c-4.1-8.19-4.1-8.97-4.1-50.07v-27.5h-175.46l-13.56.02c-152.13.26-168.54.29-175.62,1.06-31.67,4.04-53.48,13.34-68.64,29.27-8.17,8.42-13.84,18.49-16.91,30.01-.79,2.98-.82,5.91-.82,36.65v38.55l-10.67,11.44c-4.75,5.34-25.12,25.72-46.58,46.59l-55.33,54.09v-111.73Z"/>
  <path fill="#6841fa" d="M612.05,12.63c-6.63,2.6-10.38,7.21-12.98,15.29-.87,2.88-.87,8.36-1.15,40.38v37.21c-.29,0-188.06.29-188.06.29-103.26,0-189.21.58-190.65.58s-6.35.58-10.38.87c-42.4,3.46-80.47,15.29-108.45,33.46-22.79,15-39.23,33.46-50.76,57.11-7.5,15.58-12.4,31.44-14.42,49.03-1.15,8.94-1.15,11.83-1.15,97.2v87.97l38.36-37.5c21.06-20.48,41.82-41.25,46.15-46.15l8.08-8.65v-34.61c0-32.88,0-34.9,1.15-39.23,3.46-12.98,9.81-24.52,19.32-34.32,17.02-17.88,40.67-27.98,74.7-32.3,7.79-.87,21.92-.87,190.36-1.15h185.46v37.5c0,40.09,0,39.51,3.17,45.86,5.19,10.67,16.73,13.84,29.42,7.79,3.75-1.73,6.06-4.04,59.7-58.84,30.86-31.44,57.11-58.84,58.84-60.86,4.9-6.35,8.65-14.71,8.65-19.04,0-2.88-2.88-9.52-5.48-13.84-1.73-2.6-23.94-25.67-60.57-62.88-56.24-57.4-57.97-59.13-61.44-60.57-4.61-1.73-10.67-3.46-12.98-3.17-1.15,0-3.46.58-5.48,1.44l.58,1.15Z"/>
  <path fill="#fff" d="M150.28,703.9c-4.05,0-14.03-3.28-18.37-5.28-.33-.13-.69-.3-1.1-.54-.03-.02-.06-.03-.09-.05h0c-3.67-2.25-12.04-10.62-50.46-49.92-25.79-26.67-51.34-52.78-57.61-59.05l-.08-.08c-12.52-12.81-17.26-18.61-20.67-27.71-2.62-6.98-2.54-11.59.33-18.96,3.02-7.94,7.57-13.37,20.6-26.7,6.55-6.84,32.26-33.41,57.76-59.2l6.5-6.61q43.78-44.56,54.02-47.01l.37-.09c3.17-.84,6.28-1.27,9.25-1.27,7.05,0,13.39,2.41,18.34,6.97,5.52,4.77,8.31,9.43,10.23,17.07,1.47,5.53,1.47,7.08,1.47,42.88,0,8.4.11,17.58.32,26.56,9.86.09,30.42.19,73.07.19,28.25,0,63.56-.04,104.94-.12h186.32l7.32-1.31c16.37-2.73,27.77-6.15,39.37-11.81,11.37-5.68,21.29-13.81,28.63-23.47,3.72-5.24,8.67-15.18,10.65-21.36l1.27-3.81.28-34.18v-39.77l17.86-18.2c8.13-8.42,29-29,46.28-45.99l17.01-16.73v.61l31.44-30.86v122.18l-.03,8c-.26,68.04-.29,75.15-1.22,81.67l-.02.12c-4.89,31.47-15.95,57.55-33.82,79.73l-.11.13c-6.42,7.71-18.98,20.19-26.82,25.86-20.05,15.24-45,26.66-74.13,33.96-15.01,3.96-31.01,6.46-55.19,8.63-5.58.55-41.39.91-195.64.91h-177.83c-.12,6.45-.23,16.55-.23,28.94v.52q-.3,37.67-1.88,42.8l-.09.29-.11.28c-2.48,6.61-6.54,12.33-11.15,15.73-4.31,3.29-12.03,6.04-16.96,6.04Z"/>
  <path fill="#6841fa" d="M704.06,302.21c-17.31,17.02-38.07,37.5-46.15,45.86l-15,15.29v35.77l-.29,35.77-1.73,5.19c-2.31,7.21-7.79,18.17-12.11,24.23-8.08,10.67-19.04,19.9-32.3,26.54-12.4,6.06-24.8,9.81-42.11,12.69l-8.08,1.44h-187.19c-150.56.29-187.19,0-187.77-.29,0-.29-.58-16.73-.58-36.34,0-33.75,0-36.05-1.15-40.38-1.44-5.77-3.17-8.65-7.21-12.11-4.61-4.33-10.96-5.48-18.46-3.46-8.36,2.02-6.92.87-56.24,51.05-25.09,25.38-51.05,52.21-57.69,59.13-12.69,12.98-16.15,17.31-18.46,23.36-2.02,5.19-2.02,7.21-.29,11.83,2.6,6.92,6.06,11.54,18.46,24.23,6.35,6.35,32.3,32.88,57.69,59.13,25.38,25.96,47.01,47.88,48.17,48.17,2.6,1.44,12.69,4.61,14.71,4.61,2.6,0,8.36-2.02,10.96-4.04,3.17-2.31,6.06-6.63,7.79-11.25,1.15-3.75,1.15-4.33,1.44-40.38,0-20.19.29-37.21.58-37.78v-1.15h187.48c137,0,189.21-.29,194.69-.87,22.5-2.02,38.36-4.33,53.65-8.36,27.69-6.92,51.34-17.59,70.67-32.3,7.21-5.19,19.32-17.31,25.09-24.23,16.73-20.77,27.11-45.28,31.73-74.99.87-6.06.87-14.42,1.15-88.26v-98.35l-31.44,30.86v-.58Z"/>
</svg>
